<svg width="90" height="20" viewBox="0 0 90 20" fill="none" xmlns="http://www.w3.org/2000/svg">
<path d="M17.9282 8.2684H11.9225V9.06926H19.2405V12.7922H0V9.06926H7.31808V8.2684H1.31236V1.03896H17.9282V8.2684ZM13.5462 19.5671V17.316H1.08993V13.6147H18.1506V19.5671H13.5462ZM5.69431 4.11255V5.19481H13.5462V4.11255H5.69431Z" fill="white"/>
<path d="M22.6651 1.23377H40.1707V4.95671H38.0798V9.84848H40.1707V13.5714H37.7239V15.4113H41.0382V19.1342H21.7977V15.4113H25.1119V13.5714H22.6651V9.84848H24.7783V4.95671H22.6651V1.23377ZM29.3827 9.84848H33.4754V4.95671H29.3827V9.84848ZM29.7163 15.4113H33.1195V13.5714H29.7163V15.4113Z" fill="white"/>
<path d="M53.9666 13.6147V15.8658H66.4896V19.5671H49.3622V13.6147H53.9666ZM54.1 5.36796C55.1381 5.36796 56.0278 5.46176 56.7692 5.64935C57.5107 5.83694 58.1187 6.09668 58.5932 6.42857C59.0677 6.74603 59.4088 7.13564 59.6164 7.5974C59.8388 8.04473 59.95 8.53535 59.95 9.06926C59.95 9.6176 59.8388 10.1227 59.6164 10.5844C59.4088 11.0317 59.0677 11.4214 58.5932 11.7532C58.1187 12.0707 57.5107 12.3232 56.7692 12.5108C56.0278 12.684 55.1381 12.7706 54.1 12.7706C53.0472 12.7706 52.15 12.684 51.4086 12.5108C50.682 12.3232 50.0814 12.0707 49.6069 11.7532C49.1323 11.4214 48.7839 11.0317 48.5614 10.5844C48.3538 10.1227 48.25 9.6176 48.25 9.06926C48.25 8.53535 48.3538 8.04473 48.5614 7.5974C48.7839 7.13564 49.1323 6.74603 49.6069 6.42857C50.0814 6.09668 50.682 5.83694 51.4086 5.64935C52.15 5.46176 53.0472 5.36796 54.1 5.36796ZM66.2672 8.80952V14.3939H61.6628V0.822511H66.2672V5.08658H68.2024V8.80952H66.2672ZM56.3911 1.47186H60.4839V4.7619H47.6939V1.47186H51.7867V0H56.3911V1.47186ZM54.1 7.98701C53.6552 7.98701 53.3067 8.08802 53.0546 8.29004C52.8173 8.47763 52.6987 8.73737 52.6987 9.06926C52.6987 9.40115 52.8173 9.66811 53.0546 9.87013C53.3067 10.0721 53.6552 10.1732 54.1 10.1732C54.5449 10.1732 54.886 10.0721 55.1232 9.87013C55.3753 9.66811 55.5014 9.40115 55.5014 9.06926C55.5014 8.73737 55.3753 8.47763 55.1232 8.29004C54.8711 8.08802 54.5301 7.98701 54.1 7.98701Z" fill="white"/>
<path d="M79.6346 20C78.2258 20 76.9728 19.9206 75.8755 19.7619C74.7781 19.6032 73.8513 19.3579 73.095 19.026C72.3388 18.7085 71.7604 18.29 71.36 17.7706C70.9597 17.2655 70.7595 16.6522 70.7595 15.9307C70.7595 15.2237 70.9597 14.6176 71.36 14.1126C71.7604 13.5931 72.3388 13.1674 73.095 12.8355C73.8513 12.5036 74.7781 12.2655 75.8755 12.1212C76.9728 11.9625 78.2258 11.8831 79.6346 11.8831C81.0285 11.8831 82.2741 11.9625 83.3715 12.1212C84.4836 12.2655 85.4179 12.5036 86.1741 12.8355C86.9304 13.1674 87.5087 13.5931 87.9091 14.1126C88.3095 14.6176 88.5097 15.2237 88.5097 15.9307C88.5097 16.6522 88.3095 17.2655 87.9091 17.7706C87.5087 18.29 86.9304 18.7085 86.1741 19.026C85.4179 19.3579 84.4836 19.6032 83.3715 19.7619C82.2741 19.9206 81.0285 20 79.6346 20ZM81.5475 1.03896V11.0173H70.2256V1.03896H74.5853V2.8355H77.1878V1.03896H81.5475ZM88.0648 7.51082V11.5584H83.4604V0.822511H88.0648V3.78788H90V7.51082H88.0648ZM79.6346 16.9264C80.9395 16.9264 81.9775 16.847 82.7486 16.6883C83.5198 16.5296 83.9053 16.2771 83.9053 15.9307C83.9053 15.5844 83.5198 15.3319 82.7486 15.1732C81.9775 15.0144 80.9395 14.9351 79.6346 14.9351C78.3296 14.9351 77.2916 15.0144 76.5205 15.1732C75.7494 15.3319 75.3639 15.5844 75.3639 15.9307C75.3639 16.2771 75.7494 16.5296 76.5205 16.6883C77.2916 16.847 78.3296 16.9264 79.6346 16.9264ZM77.1878 7.72727V6.12554H74.5853V7.72727H77.1878Z" fill="white"/>
</svg>
