<svg width="278" height="122" viewBox="0 0 278 122" fill="none" xmlns="http://www.w3.org/2000/svg">
<rect x="0.5" y="0.5" width="277" height="121" rx="9.5" fill="#FAFAFA"/>
<path d="M38.9429 31.784V33.256H36.3189V31.784H38.9429ZM34.2549 34.552H31.4549V32.472H34.2549V34.552ZM36.3189 34.936H38.9429V38.52H41.0549V27.64H38.9429V30.088H36.3189V28.616H34.2549V30.856H31.4549V28.616H29.3589V36.232H36.3189V34.936ZM33.4389 40.44V37.464H31.3269V42.12H41.3749V40.44H33.4389ZM53.6616 31.656V33.016H50.4136V34.712H53.6616V36.12H55.7736V27.64H53.6616V29.976H51.0216C51.0856 29.544 51.1176 29.096 51.1176 28.632H44.3656V30.328H48.8136C48.5416 32.328 46.9256 33.912 43.5656 34.808L44.3816 36.472C47.6296 35.56 49.6936 33.976 50.6056 31.656H53.6616ZM50.9096 40.664C49.0856 40.664 48.0136 40.2 48.0136 39.304C48.0136 38.408 49.0856 37.944 50.9096 37.944C52.7176 37.944 53.7896 38.408 53.7896 39.304C53.7896 40.2 52.7176 40.664 50.9096 40.664ZM50.9096 36.312C47.9016 36.312 45.9336 37.464 45.9336 39.304C45.9336 41.144 47.9016 42.296 50.9096 42.296C53.9016 42.296 55.8696 41.144 55.8696 39.304C55.8696 37.464 53.9016 36.312 50.9096 36.312ZM70.4444 27.624H68.3164V38.728H70.4444V27.624ZM67.4364 35.048C66.3644 35.144 65.2284 35.224 64.0924 35.272V33.832H66.6684V32.152H61.5644V30.2H66.5724V28.52H59.4524V33.832H61.9804V35.352C60.6844 35.384 59.4044 35.384 58.2364 35.384L58.5084 37.064C61.2124 37.064 64.5084 37 67.5804 36.552L67.4364 35.048ZM62.5884 40.44V37.928H60.4604V42.12H70.8284V40.44H62.5884ZM79.5635 29.272H77.4515V38.792H78.4755C79.9475 38.792 81.6435 38.712 83.5635 38.36L83.3875 36.584C81.9795 36.84 80.7155 36.936 79.5635 36.968V29.272ZM87.4835 27.624V33.304H86.1555V27.896H84.1875V41.672H86.1555V35.016H87.4835V42.36H89.4995V27.624H87.4835ZM98.2183 40.792C96.2503 40.792 95.2423 40.456 95.2423 39.704C95.2423 38.952 96.2503 38.632 98.2183 38.632C100.186 38.632 101.194 38.952 101.194 39.704C101.194 40.456 100.186 40.792 98.2183 40.792ZM98.2183 37.032C95.0343 37.032 93.1143 37.992 93.1143 39.704C93.1143 41.416 95.0343 42.392 98.2183 42.392C101.402 42.392 103.338 41.416 103.338 39.704C103.338 37.992 101.402 37.032 98.2183 37.032ZM96.6983 33.4C97.1783 33.464 97.6903 33.496 98.2503 33.496C98.7943 33.496 99.3063 33.464 99.7703 33.416V34.632H96.6983V33.4ZM98.2503 29.464C100.266 29.464 101.418 29.864 101.418 30.696C101.418 31.496 100.266 31.912 98.2503 31.912C96.2503 31.912 95.0983 31.496 95.0983 30.696C95.0983 29.864 96.2503 29.464 98.2503 29.464ZM101.882 34.632V32.872C102.97 32.392 103.594 31.656 103.594 30.696C103.594 28.936 101.514 27.864 98.2503 27.864C95.0023 27.864 92.9223 28.936 92.9223 30.696C92.9223 31.64 93.5303 32.376 94.5863 32.856V34.632H91.5943V36.296H104.906V34.632H101.882ZM112.969 29.4C115.113 29.4 116.121 29.704 116.121 30.36C116.121 31.048 115.113 31.336 112.969 31.336C110.841 31.336 109.833 31.048 109.833 30.36C109.833 29.704 110.841 29.4 112.969 29.4ZM112.969 32.872C116.345 32.872 118.313 31.992 118.313 30.36C118.313 28.744 116.345 27.848 112.969 27.848C109.609 27.848 107.641 28.744 107.641 30.36C107.641 31.992 109.609 32.872 112.969 32.872ZM109.945 39.848H118.009V36.056H107.833V37.608H115.929V38.392H107.849V42.264H118.393V40.68H109.945V39.848ZM106.313 33.576V35.224H119.625V33.576H106.313ZM130.552 30.76H133.576V29.048H125.4V30.76H128.424V31.272C128.424 34.008 127.256 36.84 124.792 37.992L126.04 39.656C127.736 38.808 128.888 37.176 129.512 35.192C130.152 37.032 131.288 38.552 132.952 39.368L134.168 37.704C131.72 36.584 130.552 33.864 130.552 31.272V30.76ZM135.272 27.624V32.776H132.68V34.488H135.272V42.408H137.384V27.624H135.272ZM148.519 34.328C146.199 33.64 145.191 31.992 145.159 30.312H148.039V28.616H140.071V30.312H142.999C142.967 32.152 141.911 34.024 139.527 34.824L140.583 36.472C142.311 35.912 143.479 34.744 144.135 33.288C144.775 34.504 145.895 35.48 147.511 35.96L148.519 34.328ZM146.519 40.76C144.631 40.76 143.623 40.36 143.623 39.528C143.623 38.68 144.631 38.28 146.519 38.28C148.391 38.28 149.399 38.68 149.399 39.528C149.399 40.36 148.391 40.76 146.519 40.76ZM146.519 36.648C143.447 36.648 141.527 37.72 141.527 39.528C141.527 41.32 143.447 42.376 146.519 42.376C149.575 42.376 151.495 41.32 151.495 39.528C151.495 37.72 149.575 36.648 146.519 36.648ZM151.335 31.032V27.64H149.223V36.392H151.335V32.76H153.287V31.032H151.335ZM158.71 37.64C157.718 37.64 156.982 36.968 156.982 35.848C156.982 34.728 157.718 34.04 158.71 34.04C159.702 34.04 160.422 34.728 160.422 35.832C160.422 36.968 159.702 37.64 158.71 37.64ZM158.71 32.328C156.566 32.328 154.966 33.784 154.966 35.832C154.966 37.912 156.566 39.368 158.71 39.368C160.838 39.368 162.422 37.912 162.422 35.832C162.422 33.784 160.838 32.328 158.71 32.328ZM159.75 27.896H157.638V29.816H154.374V31.496H162.95V29.816H159.75V27.896ZM168.134 33.4H166.022V27.64H163.91V42.376H166.022V35.144H168.134V33.4ZM174.884 28.776H172.772V30.92C172.772 33.784 171.556 36.632 168.98 37.736L170.244 39.48C172.004 38.648 173.204 37.064 173.86 35.096C174.516 36.904 175.652 38.36 177.348 39.128L178.548 37.416C176.052 36.344 174.884 33.656 174.884 30.92V28.776ZM179.268 27.624V42.408H181.38V27.624H179.268ZM196.451 27.64H194.451V36.024H196.451V27.64ZM184.931 36.456C186.899 35.624 188.307 34.536 189.171 33.16H191.443V35.832H193.411V27.912H191.443V31.48H189.955C190.211 30.632 190.339 29.688 190.339 28.648H184.643V30.344H188.131C187.843 32.36 186.547 33.864 183.891 34.92L184.931 36.456ZM194.723 36.488H192.627V37.128C192.627 38.216 192.147 39.496 190.963 40.36C189.795 39.544 189.331 38.312 189.331 37.128V36.488H187.283V37.128C187.283 38.584 186.483 40.056 184.547 40.712L185.571 42.264C186.915 41.784 187.795 40.904 188.307 39.8C188.787 40.936 189.619 41.896 190.979 42.392C192.291 41.864 193.139 40.888 193.651 39.752C194.147 40.888 195.043 41.784 196.435 42.264L197.475 40.712C195.507 40.12 194.723 38.664 194.723 37.128V36.488ZM211.266 31.768C207.954 31.4 206.354 29.736 206.354 28.248V27.8H204.178V28.248C204.178 29.752 202.578 31.384 199.266 31.768L200.002 33.4C202.514 33.08 204.338 32.056 205.266 30.648C206.21 32.056 208.002 33.096 210.514 33.4L211.266 31.768ZM208.162 40.568H202.258V39.288H208.162V40.568ZM208.162 37.704H202.258V36.472H200.162V42.2H210.242V36.472H208.162V37.704ZM198.61 34.072V35.736H211.922V34.072H198.61ZM216.193 29.032H214.097V38.744H215.409C217.649 38.744 220.097 38.584 222.609 38.056L222.385 36.296C220.225 36.728 218.129 36.888 216.193 36.936V29.032ZM223.521 27.624V42.36H225.633V27.624H223.521ZM228.399 29.144V30.84H230.383C230.271 33.8 229.695 35.928 227.743 38.088L229.391 39.288C232.015 36.376 232.383 33.208 232.383 29.144H228.399ZM232.895 29.144V30.84H234.463C234.351 34.12 233.823 36.584 231.871 39.048L233.535 40.216C236.111 37.032 236.447 33.4 236.447 29.144H232.895ZM241.663 33.4H239.759V27.624H237.631V42.36H239.759V35.144H241.663V33.4ZM246.68 37.5859H244.812C244.818 37.112 244.857 36.7057 244.93 36.3672C245.008 36.0286 245.135 35.724 245.312 35.4531C245.49 35.1771 245.729 34.8958 246.031 34.6094C246.271 34.3854 246.484 34.1745 246.672 33.9766C246.865 33.7734 247.016 33.5625 247.125 33.3438C247.234 33.1198 247.289 32.8672 247.289 32.5859C247.289 32.2682 247.237 32.0026 247.133 31.7891C247.034 31.5755 246.885 31.4141 246.688 31.3047C246.495 31.1901 246.253 31.1328 245.961 31.1328C245.721 31.1328 245.495 31.1823 245.281 31.2812C245.068 31.3802 244.896 31.5339 244.766 31.7422C244.635 31.9453 244.565 32.2109 244.555 32.5391H242.484C242.5 31.8568 242.661 31.2891 242.969 30.8359C243.276 30.3776 243.69 30.0365 244.211 29.8125C244.732 29.5833 245.315 29.4688 245.961 29.4688C246.674 29.4688 247.284 29.5885 247.789 29.8281C248.299 30.0625 248.688 30.4062 248.953 30.8594C249.224 31.3125 249.359 31.8594 249.359 32.5C249.359 32.9583 249.271 33.3698 249.094 33.7344C248.917 34.0938 248.682 34.4297 248.391 34.7422C248.099 35.0547 247.784 35.3698 247.445 35.6875C247.148 35.9531 246.948 36.237 246.844 36.5391C246.74 36.8411 246.685 37.1901 246.68 37.5859ZM244.617 40.0156C244.617 39.7031 244.721 39.4427 244.93 39.2344C245.143 39.026 245.43 38.9219 245.789 38.9219C246.148 38.9219 246.432 39.026 246.641 39.2344C246.854 39.4427 246.961 39.7031 246.961 40.0156C246.961 40.3177 246.854 40.5729 246.641 40.7812C246.432 40.9896 246.148 41.0938 245.789 41.0938C245.43 41.0938 245.143 40.9896 244.93 40.7812C244.721 40.5729 244.617 40.3177 244.617 40.0156Z" fill="black"/>
<g filter="url(#filter0_d_644_2107)">
<rect x="29" y="62" width="102" height="36" rx="8" fill="#FAFAFA"/>
<rect x="29.5" y="62.5" width="101" height="35" rx="7.5" stroke="black"/>
</g>
<path d="M63.5843 74.528H61.7363V83.04H62.8563C64.7323 83.04 66.8043 82.928 68.9463 82.48L68.7643 80.968C66.9583 81.318 65.2083 81.458 63.5843 81.5V74.528ZM73.2443 78.168H71.4383V73.296H69.5903V86.176H71.4383V79.694H73.2443V78.168Z" fill="black"/>
<path d="M74.9112 74.626V76.124H79.1252C78.7892 78.98 77.1932 81.024 74.1972 82.564L75.2332 83.978C79.5172 81.808 80.9872 78.49 80.9872 74.626H74.9112ZM86.2232 78.224H84.4172V73.296H82.5692V86.176H84.4172V79.75H86.2232V78.224Z" fill="black"/>
<path d="M88.0161 74.64V76.11H92.3141C92.0481 78.966 90.6201 80.982 87.3301 82.564L88.2961 84.02C92.8741 81.808 94.2041 78.588 94.2041 74.64H88.0161ZM96.1781 73.296V86.19H98.0401V73.296H96.1781Z" fill="black"/>
<g filter="url(#filter1_d_644_2107)">
<rect x="147" y="62" width="102" height="36" rx="8" fill="black"/>
</g>
<path d="M177.699 76.04H180.345V74.542H173.191V76.04H175.837V76.488C175.837 78.882 174.815 81.36 172.659 82.368L173.751 83.824C175.235 83.082 176.243 81.654 176.789 79.918C177.349 81.528 178.343 82.858 179.799 83.572L180.863 82.116C178.721 81.136 177.699 78.756 177.699 76.488V76.04ZM181.829 73.296V77.804H179.561V79.302H181.829V86.232H183.677V73.296H181.829Z" fill="white"/>
<path d="M193.52 79.162C191.49 78.56 190.608 77.118 190.58 75.648H193.1V74.164H186.128V75.648H188.69C188.662 77.258 187.738 78.896 185.652 79.596L186.576 81.038C188.088 80.548 189.11 79.526 189.684 78.252C190.244 79.316 191.224 80.17 192.638 80.59L193.52 79.162ZM191.77 84.79C190.118 84.79 189.236 84.44 189.236 83.712C189.236 82.97 190.118 82.62 191.77 82.62C193.408 82.62 194.29 82.97 194.29 83.712C194.29 84.44 193.408 84.79 191.77 84.79ZM191.77 81.192C189.082 81.192 187.402 82.13 187.402 83.712C187.402 85.28 189.082 86.204 191.77 86.204C194.444 86.204 196.124 85.28 196.124 83.712C196.124 82.13 194.444 81.192 191.77 81.192ZM195.984 76.278V73.31H194.136V80.968H195.984V77.79H197.692V76.278H195.984Z" fill="white"/>
<path d="M202.537 82.06C201.669 82.06 201.025 81.472 201.025 80.492C201.025 79.512 201.669 78.91 202.537 78.91C203.405 78.91 204.035 79.512 204.035 80.478C204.035 81.472 203.405 82.06 202.537 82.06ZM202.537 77.412C200.661 77.412 199.261 78.686 199.261 80.478C199.261 82.298 200.661 83.572 202.537 83.572C204.399 83.572 205.785 82.298 205.785 80.478C205.785 78.686 204.399 77.412 202.537 77.412ZM203.447 73.534H201.599V75.214H198.743V76.684H206.247V75.214H203.447V73.534ZM210.783 78.35H208.935V73.31H207.087V86.204H208.935V79.876H210.783V78.35Z" fill="white"/>
<path d="M212.505 74.64V76.11H216.803C216.537 78.966 215.109 80.982 211.819 82.564L212.785 84.02C217.363 81.808 218.693 78.588 218.693 74.64H212.505ZM220.667 73.296V86.19H222.529V73.296H220.667Z" fill="white"/>
<rect x="0.5" y="0.5" width="277" height="121" rx="9.5" stroke="#E0E0E0"/>
<defs>
<filter id="filter0_d_644_2107" x="28" y="62" width="104" height="38" filterUnits="userSpaceOnUse" color-interpolation-filters="sRGB">
<feFlood flood-opacity="0" result="BackgroundImageFix"/>
<feColorMatrix in="SourceAlpha" type="matrix" values="0 0 0 0 0 0 0 0 0 0 0 0 0 0 0 0 0 0 127 0" result="hardAlpha"/>
<feOffset dy="1"/>
<feGaussianBlur stdDeviation="0.5"/>
<feComposite in2="hardAlpha" operator="out"/>
<feColorMatrix type="matrix" values="0 0 0 0 0 0 0 0 0 0 0 0 0 0 0 0 0 0 0.25 0"/>
<feBlend mode="normal" in2="BackgroundImageFix" result="effect1_dropShadow_644_2107"/>
<feBlend mode="normal" in="SourceGraphic" in2="effect1_dropShadow_644_2107" result="shape"/>
</filter>
<filter id="filter1_d_644_2107" x="146" y="62" width="104" height="38" filterUnits="userSpaceOnUse" color-interpolation-filters="sRGB">
<feFlood flood-opacity="0" result="BackgroundImageFix"/>
<feColorMatrix in="SourceAlpha" type="matrix" values="0 0 0 0 0 0 0 0 0 0 0 0 0 0 0 0 0 0 127 0" result="hardAlpha"/>
<feOffset dy="1"/>
<feGaussianBlur stdDeviation="0.5"/>
<feComposite in2="hardAlpha" operator="out"/>
<feColorMatrix type="matrix" values="0 0 0 0 0 0 0 0 0 0 0 0 0 0 0 0 0 0 0.25 0"/>
<feBlend mode="normal" in2="BackgroundImageFix" result="effect1_dropShadow_644_2107"/>
<feBlend mode="normal" in="SourceGraphic" in2="effect1_dropShadow_644_2107" result="shape"/>
</filter>
</defs>
</svg>
