<svg width="278" height="122" viewBox="0 0 278 122" fill="none" xmlns="http://www.w3.org/2000/svg">
<rect x="0.5" y="0.5" width="277" height="121" rx="9.5" fill="#FAFAFA"/>
<path d="M38.9429 31.784V33.256H36.3189V31.784H38.9429ZM34.2549 34.552H31.4549V32.472H34.2549V34.552ZM36.3189 34.936H38.9429V38.52H41.0549V27.64H38.9429V30.088H36.3189V28.616H34.2549V30.856H31.4549V28.616H29.3589V36.232H36.3189V34.936ZM33.4389 40.44V37.464H31.3269V42.12H41.3749V40.44H33.4389ZM53.6616 31.656V33.016H50.4136V34.712H53.6616V36.12H55.7736V27.64H53.6616V29.976H51.0216C51.0856 29.544 51.1176 29.096 51.1176 28.632H44.3656V30.328H48.8136C48.5416 32.328 46.9256 33.912 43.5656 34.808L44.3816 36.472C47.6296 35.56 49.6936 33.976 50.6056 31.656H53.6616ZM50.9096 40.664C49.0856 40.664 48.0136 40.2 48.0136 39.304C48.0136 38.408 49.0856 37.944 50.9096 37.944C52.7176 37.944 53.7896 38.408 53.7896 39.304C53.7896 40.2 52.7176 40.664 50.9096 40.664ZM50.9096 36.312C47.9016 36.312 45.9336 37.464 45.9336 39.304C45.9336 41.144 47.9016 42.296 50.9096 42.296C53.9016 42.296 55.8696 41.144 55.8696 39.304C55.8696 37.464 53.9016 36.312 50.9096 36.312ZM70.4444 27.624H68.3164V38.728H70.4444V27.624ZM67.4364 35.048C66.3644 35.144 65.2284 35.224 64.0924 35.272V33.832H66.6684V32.152H61.5644V30.2H66.5724V28.52H59.4524V33.832H61.9804V35.352C60.6844 35.384 59.4044 35.384 58.2364 35.384L58.5084 37.064C61.2124 37.064 64.5084 37 67.5804 36.552L67.4364 35.048ZM62.5884 40.44V37.928H60.4604V42.12H70.8284V40.44H62.5884ZM79.5635 29.272H77.4515V38.792H78.4755C79.9475 38.792 81.6435 38.712 83.5635 38.36L83.3875 36.584C81.9795 36.84 80.7155 36.936 79.5635 36.968V29.272ZM87.4835 27.624V33.304H86.1555V27.896H84.1875V41.672H86.1555V35.016H87.4835V42.36H89.4995V27.624H87.4835ZM98.2183 40.792C96.2503 40.792 95.2423 40.456 95.2423 39.704C95.2423 38.952 96.2503 38.632 98.2183 38.632C100.186 38.632 101.194 38.952 101.194 39.704C101.194 40.456 100.186 40.792 98.2183 40.792ZM98.2183 37.032C95.0343 37.032 93.1143 37.992 93.1143 39.704C93.1143 41.416 95.0343 42.392 98.2183 42.392C101.402 42.392 103.338 41.416 103.338 39.704C103.338 37.992 101.402 37.032 98.2183 37.032ZM96.6983 33.4C97.1783 33.464 97.6903 33.496 98.2503 33.496C98.7943 33.496 99.3063 33.464 99.7703 33.416V34.632H96.6983V33.4ZM98.2503 29.464C100.266 29.464 101.418 29.864 101.418 30.696C101.418 31.496 100.266 31.912 98.2503 31.912C96.2503 31.912 95.0983 31.496 95.0983 30.696C95.0983 29.864 96.2503 29.464 98.2503 29.464ZM101.882 34.632V32.872C102.97 32.392 103.594 31.656 103.594 30.696C103.594 28.936 101.514 27.864 98.2503 27.864C95.0023 27.864 92.9223 28.936 92.9223 30.696C92.9223 31.64 93.5303 32.376 94.5863 32.856V34.632H91.5943V36.296H104.906V34.632H101.882ZM112.969 29.4C115.113 29.4 116.121 29.704 116.121 30.36C116.121 31.048 115.113 31.336 112.969 31.336C110.841 31.336 109.833 31.048 109.833 30.36C109.833 29.704 110.841 29.4 112.969 29.4ZM112.969 32.872C116.345 32.872 118.313 31.992 118.313 30.36C118.313 28.744 116.345 27.848 112.969 27.848C109.609 27.848 107.641 28.744 107.641 30.36C107.641 31.992 109.609 32.872 112.969 32.872ZM109.945 39.848H118.009V36.056H107.833V37.608H115.929V38.392H107.849V42.264H118.393V40.68H109.945V39.848ZM106.313 33.576V35.224H119.625V33.576H106.313ZM130.552 30.76H133.576V29.048H125.4V30.76H128.424V31.272C128.424 34.008 127.256 36.84 124.792 37.992L126.04 39.656C127.736 38.808 128.888 37.176 129.512 35.192C130.152 37.032 131.288 38.552 132.952 39.368L134.168 37.704C131.72 36.584 130.552 33.864 130.552 31.272V30.76ZM135.272 27.624V32.776H132.68V34.488H135.272V42.408H137.384V27.624H135.272ZM148.519 34.328C146.199 33.64 145.191 31.992 145.159 30.312H148.039V28.616H140.071V30.312H142.999C142.967 32.152 141.911 34.024 139.527 34.824L140.583 36.472C142.311 35.912 143.479 34.744 144.135 33.288C144.775 34.504 145.895 35.48 147.511 35.96L148.519 34.328ZM146.519 40.76C144.631 40.76 143.623 40.36 143.623 39.528C143.623 38.68 144.631 38.28 146.519 38.28C148.391 38.28 149.399 38.68 149.399 39.528C149.399 40.36 148.391 40.76 146.519 40.76ZM146.519 36.648C143.447 36.648 141.527 37.72 141.527 39.528C141.527 41.32 143.447 42.376 146.519 42.376C149.575 42.376 151.495 41.32 151.495 39.528C151.495 37.72 149.575 36.648 146.519 36.648ZM151.335 31.032V27.64H149.223V36.392H151.335V32.76H153.287V31.032H151.335ZM158.71 37.64C157.718 37.64 156.982 36.968 156.982 35.848C156.982 34.728 157.718 34.04 158.71 34.04C159.702 34.04 160.422 34.728 160.422 35.832C160.422 36.968 159.702 37.64 158.71 37.64ZM158.71 32.328C156.566 32.328 154.966 33.784 154.966 35.832C154.966 37.912 156.566 39.368 158.71 39.368C160.838 39.368 162.422 37.912 162.422 35.832C162.422 33.784 160.838 32.328 158.71 32.328ZM159.75 27.896H157.638V29.816H154.374V31.496H162.95V29.816H159.75V27.896ZM168.134 33.4H166.022V27.64H163.91V42.376H166.022V35.144H168.134V33.4ZM174.884 28.776H172.772V30.92C172.772 33.784 171.556 36.632 168.98 37.736L170.244 39.48C172.004 38.648 173.204 37.064 173.86 35.096C174.516 36.904 175.652 38.36 177.348 39.128L178.548 37.416C176.052 36.344 174.884 33.656 174.884 30.92V28.776ZM179.268 27.624V42.408H181.38V27.624H179.268ZM196.451 27.64H194.451V36.024H196.451V27.64ZM184.931 36.456C186.899 35.624 188.307 34.536 189.171 33.16H191.443V35.832H193.411V27.912H191.443V31.48H189.955C190.211 30.632 190.339 29.688 190.339 28.648H184.643V30.344H188.131C187.843 32.36 186.547 33.864 183.891 34.92L184.931 36.456ZM194.723 36.488H192.627V37.128C192.627 38.216 192.147 39.496 190.963 40.36C189.795 39.544 189.331 38.312 189.331 37.128V36.488H187.283V37.128C187.283 38.584 186.483 40.056 184.547 40.712L185.571 42.264C186.915 41.784 187.795 40.904 188.307 39.8C188.787 40.936 189.619 41.896 190.979 42.392C192.291 41.864 193.139 40.888 193.651 39.752C194.147 40.888 195.043 41.784 196.435 42.264L197.475 40.712C195.507 40.12 194.723 38.664 194.723 37.128V36.488ZM211.266 31.768C207.954 31.4 206.354 29.736 206.354 28.248V27.8H204.178V28.248C204.178 29.752 202.578 31.384 199.266 31.768L200.002 33.4C202.514 33.08 204.338 32.056 205.266 30.648C206.21 32.056 208.002 33.096 210.514 33.4L211.266 31.768ZM208.162 40.568H202.258V39.288H208.162V40.568ZM208.162 37.704H202.258V36.472H200.162V42.2H210.242V36.472H208.162V37.704ZM198.61 34.072V35.736H211.922V34.072H198.61ZM216.193 29.032H214.097V38.744H215.409C217.649 38.744 220.097 38.584 222.609 38.056L222.385 36.296C220.225 36.728 218.129 36.888 216.193 36.936V29.032ZM223.521 27.624V42.36H225.633V27.624H223.521ZM228.399 29.144V30.84H230.383C230.271 33.8 229.695 35.928 227.743 38.088L229.391 39.288C232.015 36.376 232.383 33.208 232.383 29.144H228.399ZM232.895 29.144V30.84H234.463C234.351 34.12 233.823 36.584 231.871 39.048L233.535 40.216C236.111 37.032 236.447 33.4 236.447 29.144H232.895ZM241.663 33.4H239.759V27.624H237.631V42.36H239.759V35.144H241.663V33.4ZM246.68 37.5859H244.812C244.818 37.112 244.857 36.7057 244.93 36.3672C245.008 36.0286 245.135 35.724 245.312 35.4531C245.49 35.1771 245.729 34.8958 246.031 34.6094C246.271 34.3854 246.484 34.1745 246.672 33.9766C246.865 33.7734 247.016 33.5625 247.125 33.3438C247.234 33.1198 247.289 32.8672 247.289 32.5859C247.289 32.2682 247.237 32.0026 247.133 31.7891C247.034 31.5755 246.885 31.4141 246.688 31.3047C246.495 31.1901 246.253 31.1328 245.961 31.1328C245.721 31.1328 245.495 31.1823 245.281 31.2812C245.068 31.3802 244.896 31.5339 244.766 31.7422C244.635 31.9453 244.565 32.2109 244.555 32.5391H242.484C242.5 31.8568 242.661 31.2891 242.969 30.8359C243.276 30.3776 243.69 30.0365 244.211 29.8125C244.732 29.5833 245.315 29.4688 245.961 29.4688C246.674 29.4688 247.284 29.5885 247.789 29.8281C248.299 30.0625 248.688 30.4062 248.953 30.8594C249.224 31.3125 249.359 31.8594 249.359 32.5C249.359 32.9583 249.271 33.3698 249.094 33.7344C248.917 34.0938 248.682 34.4297 248.391 34.7422C248.099 35.0547 247.784 35.3698 247.445 35.6875C247.148 35.9531 246.948 36.237 246.844 36.5391C246.74 36.8411 246.685 37.1901 246.68 37.5859ZM244.617 40.0156C244.617 39.7031 244.721 39.4427 244.93 39.2344C245.143 39.026 245.43 38.9219 245.789 38.9219C246.148 38.9219 246.432 39.026 246.641 39.2344C246.854 39.4427 246.961 39.7031 246.961 40.0156C246.961 40.3177 246.854 40.5729 246.641 40.7812C246.432 40.9896 246.148 41.0938 245.789 41.0938C245.43 41.0938 245.143 40.9896 244.93 40.7812C244.721 40.5729 244.617 40.3177 244.617 40.0156Z" fill="black"/>
<g filter="url(#filter0_d_366_3294)">
<rect x="29" y="62" width="102" height="36" rx="8" fill="#FAFAFA"/>
<rect x="29.5" y="62.5" width="101" height="35" rx="7.5" stroke="black"/>
</g>
<path d="M56.059 79.8899C57.557 79.5819 58.579 78.8679 59.153 77.9299C59.727 78.7699 60.693 79.4139 62.135 79.6939L62.849 78.2659C60.973 77.9299 60.091 77.0339 60.035 76.0119H62.555V74.5839H60.035V73.3239H58.187V74.5839H55.667V76.0119H58.187C58.131 77.1039 57.249 78.0979 55.317 78.4619L56.059 79.8899ZM63.073 80.0579C60.371 80.4219 57.249 80.4359 54.897 80.4359L55.121 81.9339C56.045 81.9339 57.081 81.9339 58.173 81.8919V85.8119H60.021V81.7799C61.071 81.6959 62.149 81.5699 63.185 81.3879L63.073 80.0579ZM63.801 73.3099V86.1899H65.649V73.3099H63.801Z" fill="black"/>
<path d="M79.1179 79.1899C76.1779 78.7139 74.5959 76.7819 74.5959 74.9479V74.0239H72.6219V74.9479C72.6219 76.7399 71.0259 78.7139 68.1139 79.1899L68.8699 80.7159C71.1239 80.3099 72.7619 79.0919 73.6019 77.5099C74.4419 79.1059 76.0939 80.3099 78.3619 80.7159L79.1179 79.1899ZM74.5399 83.1939V80.3099H72.6919V83.1939H67.8339V84.6779H79.5099V83.1939H74.5399Z" fill="black"/>
<path d="M84.5368 82.0599C83.6688 82.0599 83.0248 81.4719 83.0248 80.4919C83.0248 79.5119 83.6688 78.9099 84.5368 78.9099C85.4048 78.9099 86.0348 79.5119 86.0348 80.4779C86.0348 81.4719 85.4048 82.0599 84.5368 82.0599ZM84.5368 77.4119C82.6608 77.4119 81.2608 78.6859 81.2608 80.4779C81.2608 82.2979 82.6608 83.5719 84.5368 83.5719C86.3988 83.5719 87.7848 82.2979 87.7848 80.4779C87.7848 78.6859 86.3988 77.4119 84.5368 77.4119ZM85.4468 73.5339H83.5988V75.2139H80.7428V76.6839H88.2468V75.2139H85.4468V73.5339ZM92.7828 78.3499H90.9348V73.3099H89.0868V86.2039H90.9348V79.8759H92.7828V78.3499Z" fill="black"/>
<path d="M94.5057 74.6399V76.1099H98.8037C98.5377 78.9659 97.1097 80.9819 93.8197 82.5639L94.7857 84.0199C99.3637 81.8079 100.694 78.5879 100.694 74.6399H94.5057ZM102.668 73.2959V86.1899H104.53V73.2959H102.668Z" fill="black"/>
<g filter="url(#filter1_d_366_3294)">
<rect x="147" y="62" width="102" height="36" rx="8" fill="black"/>
</g>
<path d="M177.699 76.0399H180.345V74.5419H173.191V76.0399H175.837V76.4879C175.837 78.8819 174.815 81.3599 172.659 82.3679L173.751 83.8239C175.235 83.0819 176.243 81.6539 176.789 79.9179C177.349 81.5279 178.343 82.8579 179.799 83.5719L180.863 82.1159C178.721 81.1359 177.699 78.7559 177.699 76.4879V76.0399ZM181.829 73.2959V77.8039H179.561V79.3019H181.829V86.2319H183.677V73.2959H181.829Z" fill="white"/>
<path d="M193.52 79.1619C191.49 78.5599 190.608 77.1179 190.58 75.6479H193.1V74.1639H186.128V75.6479H188.69C188.662 77.2579 187.738 78.8959 185.652 79.5959L186.576 81.0379C188.088 80.5479 189.11 79.5259 189.684 78.2519C190.244 79.3159 191.224 80.1699 192.638 80.5899L193.52 79.1619ZM191.77 84.7899C190.118 84.7899 189.236 84.4399 189.236 83.7119C189.236 82.9699 190.118 82.6199 191.77 82.6199C193.408 82.6199 194.29 82.9699 194.29 83.7119C194.29 84.4399 193.408 84.7899 191.77 84.7899ZM191.77 81.1919C189.082 81.1919 187.402 82.1299 187.402 83.7119C187.402 85.2799 189.082 86.2039 191.77 86.2039C194.444 86.2039 196.124 85.2799 196.124 83.7119C196.124 82.1299 194.444 81.1919 191.77 81.1919ZM195.984 76.2779V73.3099H194.136V80.9679H195.984V77.7899H197.692V76.2779H195.984Z" fill="white"/>
<path d="M202.537 82.0599C201.669 82.0599 201.025 81.4719 201.025 80.4919C201.025 79.5119 201.669 78.9099 202.537 78.9099C203.405 78.9099 204.035 79.5119 204.035 80.4779C204.035 81.4719 203.405 82.0599 202.537 82.0599ZM202.537 77.4119C200.661 77.4119 199.261 78.6859 199.261 80.4779C199.261 82.2979 200.661 83.5719 202.537 83.5719C204.399 83.5719 205.785 82.2979 205.785 80.4779C205.785 78.6859 204.399 77.4119 202.537 77.4119ZM203.447 73.5339H201.599V75.2139H198.743V76.6839H206.247V75.2139H203.447V73.5339ZM210.783 78.3499H208.935V73.3099H207.087V86.2039H208.935V79.8759H210.783V78.3499Z" fill="white"/>
<path d="M212.505 74.6399V76.1099H216.803C216.537 78.9659 215.109 80.9819 211.819 82.5639L212.785 84.0199C217.363 81.8079 218.693 78.5879 218.693 74.6399H212.505ZM220.667 73.2959V86.1899H222.529V73.2959H220.667Z" fill="white"/>
<rect x="0.5" y="0.5" width="277" height="121" rx="9.5" stroke="#E0E0E0"/>
<defs>
<filter id="filter0_d_366_3294" x="28" y="62" width="104" height="38" filterUnits="userSpaceOnUse" color-interpolation-filters="sRGB">
<feFlood flood-opacity="0" result="BackgroundImageFix"/>
<feColorMatrix in="SourceAlpha" type="matrix" values="0 0 0 0 0 0 0 0 0 0 0 0 0 0 0 0 0 0 127 0" result="hardAlpha"/>
<feOffset dy="1"/>
<feGaussianBlur stdDeviation="0.5"/>
<feComposite in2="hardAlpha" operator="out"/>
<feColorMatrix type="matrix" values="0 0 0 0 0 0 0 0 0 0 0 0 0 0 0 0 0 0 0.25 0"/>
<feBlend mode="normal" in2="BackgroundImageFix" result="effect1_dropShadow_366_3294"/>
<feBlend mode="normal" in="SourceGraphic" in2="effect1_dropShadow_366_3294" result="shape"/>
</filter>
<filter id="filter1_d_366_3294" x="146" y="62" width="104" height="38" filterUnits="userSpaceOnUse" color-interpolation-filters="sRGB">
<feFlood flood-opacity="0" result="BackgroundImageFix"/>
<feColorMatrix in="SourceAlpha" type="matrix" values="0 0 0 0 0 0 0 0 0 0 0 0 0 0 0 0 0 0 127 0" result="hardAlpha"/>
<feOffset dy="1"/>
<feGaussianBlur stdDeviation="0.5"/>
<feComposite in2="hardAlpha" operator="out"/>
<feColorMatrix type="matrix" values="0 0 0 0 0 0 0 0 0 0 0 0 0 0 0 0 0 0 0.25 0"/>
<feBlend mode="normal" in2="BackgroundImageFix" result="effect1_dropShadow_366_3294"/>
<feBlend mode="normal" in="SourceGraphic" in2="effect1_dropShadow_366_3294" result="shape"/>
</filter>
</defs>
</svg>
