<svg width="237" height="64" viewBox="0 0 237 64" fill="none" xmlns="http://www.w3.org/2000/svg">
<path d="M41.2353 2.32812H30.4345V12.2266H32.3213C37.3252 12.2539 40.292 12.1172 43.7783 11.3789L43.5048 9.65625C40.1826 10.3262 37.3115 10.5039 32.54 10.4766V4.07812H41.2353V2.32812ZM32.8134 16.1367H46.1845V18.6797H32.8681V24.8867H49.2197V23.1367H34.9736V20.375H48.3173V14.3867H32.8134V16.1367ZM46.1845 13.1836H48.3173V7.85156H51.9814V6.07422H48.3173V0.90625H46.1845V13.1836ZM62.4398 4.73438V2.30078H60.307V4.81641C60.2797 8.58984 57.7914 11.8164 54.0453 13.1289L55.2211 14.8789C58.1605 13.7715 60.3754 11.5156 61.4145 8.60352C62.4672 11.1602 64.5727 13.1426 67.2523 14.1406L68.4555 12.4727C64.8871 11.2559 62.4125 8.20703 62.4398 4.73438ZM58.0102 20.6211C57.9965 23.5195 61.1 25.1602 66.1586 25.1602C71.2035 25.1602 74.307 23.5195 74.307 20.6211C74.307 17.6953 71.2035 16.0137 66.1586 16.0273C61.1 16.0137 57.9965 17.6953 58.0102 20.6211ZM60.143 20.6211C60.1293 18.8027 62.4262 17.7227 66.1586 17.7227C69.8773 17.7227 72.1742 18.8027 72.1742 20.6211C72.1742 22.3848 69.8773 23.4512 66.1586 23.4375C62.4262 23.4512 60.1293 22.3848 60.143 20.6211ZM66.6508 7.90625H72.0648V15.3164H74.225V0.90625H72.0648V6.12891H66.6508V7.90625ZM92.9686 8.89062H83.3163V4.26953H92.7772V2.49219H81.1561V10.6406H85.9139V14.127C83.4666 14.209 81.0741 14.2363 78.9413 14.25L79.2694 16C83.8358 16 89.619 15.8496 94.8553 15.125L94.6913 13.5391C92.5858 13.7715 90.3163 13.9355 88.0467 14.0312V10.6406H92.9686V8.89062ZM83.0975 24.6953H99.6678V22.8906H85.2303V17.8594H83.0975V24.6953ZM96.7147 19.1172H98.8748V0.933594H96.7147V19.1172ZM131.987 0.90625H129.909V25.2148H131.987V0.90625ZM112.135 19.3633H113.667C117.577 19.3496 119.956 19.2266 122.772 18.6523L122.553 16.8203C119.942 17.4082 117.727 17.5312 114.214 17.5586V5.69141H121.296V3.91406H112.135V19.3633ZM119.655 12.0078H124.96V23.957H127.01V1.50781H124.96V10.2031H119.655V12.0078ZM155.981 0.90625H153.82V25.2695H155.981V0.90625ZM136.84 11.2695C136.854 16.4512 139.424 19.7324 143.047 19.7188C146.656 19.7324 149.268 16.4512 149.254 11.2695C149.268 6.10156 146.656 2.80664 143.047 2.79297C139.424 2.80664 136.854 6.10156 136.84 11.2695ZM138.918 11.2695C138.918 7.31836 140.613 4.7207 143.047 4.70703C145.494 4.7207 147.176 7.31836 147.176 11.2695C147.176 15.2207 145.494 17.8184 143.047 17.8047C140.613 17.8184 138.918 15.2207 138.918 11.2695ZM180.849 0.90625H178.716V10.0938H173.576V11.8711H178.716V25.2695H180.849V0.90625ZM161.818 19.3906H163.677C168.38 19.3906 171.347 19.2266 174.888 18.6523L174.642 16.875C171.306 17.4766 168.435 17.5996 163.978 17.6133V11.7344H172.099V9.98438H163.978V4.92578H173.166V3.14844H161.818V19.3906ZM205.116 8.28906H190.597V1.80859H188.464V10.0117H205.116V8.28906ZM185.429 15.0703H207.687V13.3203H185.429V15.0703ZM188.327 24.6133H205.253V22.8359H190.46V17.5586H188.327V24.6133ZM23.5652 57.9648H13.7215V53.1523H20.9949V40.3555H17.9598V44.4023H6.50273V40.3555H3.46758V53.1523H10.7137V57.9648H0.979294V60.4531H23.5652V57.9648ZM6.50273 50.6914V46.8359H17.9598V50.6914H6.50273ZM39.5471 40.5469H26.9416V43.0625H36.553C36.5256 44.5801 36.4299 46.4805 35.9377 49.0234L38.9455 49.2969C39.5198 46.166 39.5198 43.7051 39.5471 42.0234V40.5469ZM25.4651 51.2656L25.7385 53.6992C30.0725 53.6855 35.9104 53.5898 41.051 52.6602L40.8869 50.4727C38.4944 50.8145 35.8694 51.0059 33.3127 51.1152V46.1797H30.3049V51.2109C28.5686 51.2383 26.928 51.252 25.4651 51.2656ZM29.1565 62.9414H46.2463V60.4805H32.219V55.5859H29.1565V62.9414ZM42.3362 57.2266H45.4534V48.9688H48.6526V46.4258H45.4534V38.7148H42.3362V57.2266ZM69.9938 38.7148H66.9587V53.6172H69.9938V47.5195H73.4391V44.9766H69.9938V38.7148ZM50.5251 43.5273H65.1813V41.0938H59.3844V38.5508H56.3493V41.0938H50.5251V43.5273ZM51.7829 48.8594C51.7829 51.5254 54.2438 53.2891 57.8532 53.2891C61.4216 53.2891 63.8825 51.5254 63.8962 48.8594C63.8825 46.2207 61.4352 44.4297 57.8532 44.4297C54.2438 44.4297 51.7829 46.2207 51.7829 48.8594ZM54.0251 63.1328H69.9938V54.793H54.0251V63.1328ZM54.736 48.8594C54.7223 47.5195 55.9802 46.7266 57.8532 46.7266C59.7262 46.7266 60.9977 47.5195 60.9977 48.8594C60.9977 50.2402 59.7262 51.0195 57.8532 51.0195C55.9802 51.0195 54.7223 50.2402 54.736 48.8594ZM57.0329 60.6719V57.1992H66.986V60.6719H57.0329ZM96.5851 38.7148H93.6593V63.4336H96.5851V38.7148ZM75.503 49.4062C75.503 54.8613 77.6085 58.252 80.8351 58.2383C83.8976 58.252 85.962 55.2988 86.2491 50.4727H88.6007V62.2305H91.4991V39.1523H88.6007V48.0117H86.2218C85.8663 43.3906 83.8292 40.5879 80.8351 40.6016C77.6085 40.5879 75.503 43.9648 75.503 49.4062ZM78.3195 49.4062C78.3058 45.5508 79.2628 43.459 80.8351 43.4727C82.4757 43.459 83.4464 45.5508 83.4601 49.4062C83.4464 53.2754 82.4757 55.3535 80.8351 55.3398C79.2628 55.3535 78.3058 53.2754 78.3195 49.4062ZM109.149 44.6484V40.7109H106.059V44.6484C106.045 49.2695 103.803 54.0273 99.7701 55.9141L101.684 58.375C104.528 56.9395 106.551 54.0957 107.631 50.6777C108.684 53.918 110.653 56.543 113.442 57.9102L115.274 55.4766C111.336 53.7539 109.135 49.2422 109.149 44.6484ZM112.54 49.1602H117.735V63.4609H120.743V38.7148H117.735V46.6992H112.54V49.1602ZM151.558 38.7422H148.523V55.4492H151.558V48.4492H154.894V45.9336H151.558V38.7422ZM131.761 52.4961L132.089 54.875C136.437 54.875 142.22 54.8203 147.484 53.8906L147.238 51.7852C145.255 52.0449 143.136 52.209 141.031 52.3184V50.8965C143.738 50.541 145.433 49.2285 145.433 47.3008C145.433 45.0176 143.068 43.623 139.472 43.6367C135.89 43.623 133.497 45.0176 133.511 47.3008C133.497 49.2422 135.247 50.5684 137.996 50.9102V52.4277C135.767 52.4824 133.621 52.4961 131.761 52.4961ZM132.39 42.9258H146.581V40.6836H141.031V38.5234H137.996V40.6836H132.39V42.9258ZM134.878 58.8945H148.523V63.4336H151.558V56.5156H134.878V58.8945ZM136.437 47.3008C136.41 46.2207 137.558 45.6738 139.472 45.6875C141.386 45.6738 142.535 46.2207 142.535 47.3008C142.535 48.3262 141.386 48.9688 139.472 48.9414C137.558 48.9688 136.41 48.3262 136.437 47.3008ZM177.329 38.7422H174.266V56.5977H177.329V38.7422ZM157.177 46.5352C157.177 50.1855 160.089 52.7422 163.849 52.7422C167.608 52.7422 170.507 50.1855 170.493 46.5352C170.507 42.9395 167.608 40.3691 163.849 40.3555C160.089 40.3691 157.177 42.9395 157.177 46.5352ZM160.157 46.5352C160.143 44.4023 161.729 43.0078 163.849 43.0078C165.913 43.0078 167.513 44.4023 167.513 46.5352C167.513 48.7227 165.913 50.0898 163.849 50.0898C161.729 50.0898 160.143 48.7227 160.157 46.5352ZM160.977 62.9414H178.013V60.4805H164.04V54.793H160.977V62.9414ZM208.062 38.7148H205.027V63.3789H208.062V50.9102H211.726V48.3672H208.062V38.7148ZM188.566 56.625L190.289 58.9766C198.506 54.9297 201.513 48.5449 201.527 41.2852H189.906V43.8008H198.437C197.836 49.4336 194.582 53.6172 188.566 56.625ZM233.45 45.1406H219.423V39.1523H216.388V47.6016H233.45V45.1406ZM213.462 52.4414H236.021V49.9805H213.462V52.4414ZM216.087 58.7852C216.087 61.6836 219.327 63.3242 224.7 63.3242C230.032 63.3242 233.245 61.6836 233.259 58.7852C233.245 55.873 230.032 54.2324 224.7 54.2188C219.327 54.2324 216.087 55.873 216.087 58.7852ZM219.177 58.7852C219.163 57.3223 221.105 56.6113 224.7 56.5977C228.241 56.6113 230.196 57.3223 230.224 58.7852C230.196 60.207 228.241 60.9863 224.7 61C221.105 60.9863 219.163 60.207 219.177 58.7852Z" fill="black"/>
</svg>
