<svg width="24" height="24" viewBox="0 0 24 24" fill="none" xmlns="http://www.w3.org/2000/svg">
<circle cx="12" cy="12" r="10" fill="white"/>
<path d="M11.3731 12.1434C12.0086 11.2808 13.0329 10.8742 13.7083 10.1287C14.4218 9.34756 14.3556 7.66784 12.7223 7.41047C11.6524 7.24188 10.9906 8.02419 10.6561 8.7057L9.13257 7.71063C9.8089 6.34185 11.2256 5.29754 13.0046 5.57786C14.4923 5.81229 15.3976 6.69608 15.774 7.68355C16.0946 8.53063 16.1252 10.0247 15.2711 10.9983C14.3229 12.0749 13.5374 12.3251 13.0235 13.0338C12.8162 13.3197 12.7209 13.5125 12.5633 14.5128L10.7337 14.2245C10.8105 13.6963 10.8698 12.826 11.3731 12.1434ZM12.4665 17.2682C12.3494 18.0116 11.6837 18.5301 10.9874 18.4204C10.291 18.3107 9.81707 17.6126 9.93422 16.8691C10.0514 16.1257 10.717 15.6072 11.4134 15.7169C12.1097 15.8267 12.5837 16.5247 12.4665 17.2682Z" fill="black"/>
</svg>
