<svg width="190" height="65" viewBox="0 0 190 65" fill="none" xmlns="http://www.w3.org/2000/svg">
<path d="M72.3474 12.7717C68.7354 11.5117 66.2434 8.37573 66.2434 4.98773V2.21573H63.9474V4.81973C63.9474 8.57174 61.5114 11.9037 57.7314 13.2477L58.8794 15.0957C61.8474 14.0037 64.0594 11.7357 65.1234 8.87973C66.2154 11.4837 68.3994 13.5557 71.1994 14.5917L72.3474 12.7717ZM60.9234 19.2957H74.9794V26.0997H77.2754V17.4477H60.9234V19.2957ZM80.9994 7.59173H77.2754V0.983735H74.9794V16.1877H77.2754V9.49574H80.9994V7.59173Z" fill="black"/>
<path d="M91.4692 5.77174H95.9492V3.89573H84.4972V5.77174H89.2572V8.03973C89.2572 12.6597 87.2972 17.2237 83.7972 19.3237L85.1972 21.0317C87.6892 19.4637 89.5092 16.5237 90.3772 13.0797C91.2452 16.2717 92.9812 18.9597 95.4172 20.4157L96.8172 18.7357C93.3452 16.7757 91.4692 12.4077 91.4692 8.03973V5.77174ZM98.1892 9.97173H94.0452V11.8477H98.1892V24.7557H100.373V1.51573H98.1892V9.97173ZM103.229 0.927734V26.0437H105.441V0.927734H103.229Z" fill="black"/>
<path d="M130.555 8.51573H115.771V1.87973H113.475V10.3917H130.555V8.51573ZM115.603 18.1197H113.307V25.4557H130.695V23.5797H115.603V18.1197ZM110.395 13.7517V15.5997H133.159V13.7517H110.395Z" fill="black"/>
<path d="M2.02942 40.5517V43.4917H10.4294C9.84142 47.1037 6.64942 50.0997 0.909424 51.6677L2.44942 54.6077C10.1214 52.3957 14.4334 47.5517 14.4334 40.5517H2.02942ZM8.44143 55.2237H4.74543V63.9597H22.2734V61.0197H8.44143V55.2237ZM21.3774 45.8157V38.6197H17.6814V57.0717H21.3774V48.8397H24.8214V45.8157H21.3774Z" fill="black"/>
<path d="M45.2872 57.6317H48.9832V38.6197H45.2872V43.1277H42.1512V46.0957H45.2872V48.3357H42.1512V51.3037H45.2872V57.6317ZM33.6672 43.4077H36.0752V51.3597C35.2632 51.4157 34.4512 51.4437 33.6672 51.4437V43.4077ZM41.9832 50.9397C41.2272 51.0237 40.4432 51.1077 39.6312 51.1637V43.4077H41.6752V40.4677H28.0672V43.4077H30.1112V51.5277C29.1592 51.5277 28.2632 51.5277 27.4232 51.5277L27.8152 54.5237C31.8752 54.5237 37.4192 54.4397 42.2072 53.6277L41.9832 50.9397ZM35.6832 61.0197V56.2037H31.9872V63.9597H49.5712V61.0197H35.6832Z" fill="black"/>
<path d="M68.9451 41.3357H63.1771V38.5917H59.4531V41.3357H53.7411V44.2197H68.9171L68.9451 41.3357ZM58.529 50.0997C58.529 48.6997 59.6771 47.9437 61.3291 47.9437C62.9531 47.9437 64.1291 48.6997 64.1291 50.0997C64.1291 51.5277 62.9531 52.2837 61.3291 52.2837C59.6771 52.2837 58.529 51.5277 58.529 50.0997ZM67.6571 50.0997C67.6571 47.1877 65.0251 45.1437 61.3291 45.1437C57.6331 45.1437 55.001 47.1877 55.001 50.0997C55.001 53.0677 57.6331 55.0837 61.3291 55.0837C65.0251 55.0837 67.6571 53.0677 67.6571 50.0997ZM61.1051 56.4837H57.4091V63.9597H74.9651V61.0197H61.1051V56.4837ZM74.041 46.4877V38.6197H70.345V57.9117H74.041V49.5397H77.457V46.4877H74.041Z" fill="black"/>
<path d="M109.74 45.0317C103.944 44.4717 101.144 41.8117 101.144 39.2917V38.8157H97.3355V39.2917C97.3355 41.8117 94.5355 44.4717 88.7395 45.0317L89.9435 47.8317C94.3955 47.3277 97.6155 45.6197 99.2395 43.2397C100.864 45.6197 104.056 47.3277 108.508 47.8317L109.74 45.0317ZM93.9475 59.9277H108.06V53.2357H90.2515V55.9797H104.42V57.4077H90.2795V64.2117H108.732V61.4397H93.9475V59.9277ZM87.5915 48.8397V51.7517H110.888V48.8397H87.5915Z" fill="black"/>
<path d="M118.613 50.7717H126.789V40.8037H114.945V43.7437H123.149V47.8597H114.973V58.4997H117.157C121.637 58.4997 125.193 58.3317 129.057 57.6317L128.721 54.6357C125.361 55.2237 122.309 55.4197 118.613 55.4477V50.7717ZM137.849 48.3357H134.153V38.5917H130.457V64.4637H134.153V51.3877H137.849V48.3357Z" fill="black"/>
<path d="M157.895 38.5917V64.4637H161.591V38.5917H157.895ZM147.731 40.4117C143.839 40.4117 140.955 43.9397 140.955 49.5957C140.955 55.2797 143.839 58.8357 147.731 58.8357C151.623 58.8357 154.507 55.2797 154.507 49.5957C154.507 43.9397 151.623 40.4117 147.731 40.4117ZM147.731 43.7437C149.635 43.7437 150.951 45.7877 150.951 49.5957C150.951 53.4317 149.635 55.4757 147.731 55.4757C145.827 55.4757 144.511 53.4317 144.511 49.5957C144.511 45.7877 145.827 43.7437 147.731 43.7437Z" fill="black"/>
<path d="M187.405 50.5197H172.957V43.7437H187.209V40.7477H169.261V53.4597H187.405V50.5197ZM166.545 58.3037V61.3277H189.897V58.3037H166.545Z" fill="black"/>
</svg>
