<svg width="29" height="30" viewBox="0 0 29 30" fill="none" xmlns="http://www.w3.org/2000/svg">
<path fill-rule="evenodd" clip-rule="evenodd" d="M12.0622 6.99527C12.0624 6.73128 12.1679 6.47832 12.3552 6.29181C12.5426 6.10529 12.7965 6.00022 13.0613 6H15.1181C15.3831 6.00022 15.637 6.10529 15.8243 6.29181C16.0115 6.47832 16.117 6.73128 16.1172 6.99527V7.43475H12.0622V6.99527ZM18.6 16.1852C18.5994 16.6663 18.4073 17.1275 18.0658 17.4676C17.7243 17.8077 17.2614 17.9993 16.7784 17.9998H11.3722C10.8892 17.9991 10.4263 17.8077 10.0848 17.4676C9.74335 17.1275 9.55124 16.6661 9.55057 16.1849V9.92238C9.55057 9.81444 9.56032 9.7065 9.5796 9.60011H18.571C18.5905 9.7065 18.6003 9.81444 18.6003 9.92238L18.6 16.1852ZM18.9816 9.13216H9.19803C8.97977 9.12907 8.77924 9.01098 8.67111 8.82204C8.56276 8.63309 8.56276 8.40132 8.67111 8.21238C8.77924 8.02343 8.97977 7.90556 9.19803 7.90225H18.9818C19.2003 7.90556 19.4006 8.02343 19.5087 8.21238C19.6169 8.40132 19.6169 8.63309 19.5087 8.82204C19.4004 9.01098 19.1999 9.12885 18.9816 9.13216ZM12.5182 11.3271C12.5182 11.1982 12.4134 11.0936 12.2838 11.0936C12.1542 11.0936 12.0494 11.198 12.0494 11.3271V16.3609C12.0494 16.4898 12.1544 16.5944 12.2838 16.5944C12.4132 16.5944 12.5182 16.4898 12.5182 16.3609V11.3271ZM16.103 11.3271C16.103 11.198 15.998 11.0934 15.8684 11.0934C15.7387 11.0934 15.6337 11.198 15.6337 11.3271V16.3609C15.6337 16.49 15.7389 16.5946 15.8684 16.5946C15.9978 16.5946 16.103 16.49 16.103 16.3609V11.3271Z" fill="white"/>
<path d="M4.176 26.029C3.144 25.669 2.432 24.773 2.432 23.805V23.013H1.776V23.757C1.776 24.829 1.08 25.781 0 26.165L0.328 26.693C1.176 26.381 1.808 25.733 2.112 24.917C2.424 25.661 3.048 26.253 3.848 26.549L4.176 26.029ZM0.912 27.893H4.928V29.837H5.584V27.365H0.912V27.893ZM6.648 24.549H5.584V22.661H4.928V27.005H5.584V25.093H6.648V24.549Z" fill="white"/>
<path d="M9.57938 24.029H10.8594V23.493H7.58738V24.029H8.94738V24.677C8.94738 25.997 8.38738 27.301 7.38738 27.901L7.78738 28.389C8.49938 27.941 9.01937 27.101 9.26737 26.117C9.51538 27.029 10.0114 27.797 10.7074 28.213L11.1074 27.733C10.1154 27.173 9.57938 25.925 9.57938 24.677V24.029ZM11.4994 25.229H10.3154V25.765H11.4994V29.453H12.1234V22.813H11.4994V25.229ZM12.9394 22.645V29.821H13.5714V22.645H12.9394Z" fill="white"/>
<path d="M17.0387 27.685C16.3907 27.685 15.9187 27.221 15.9187 26.581C15.9187 25.933 16.3907 25.469 17.0387 25.469C17.6947 25.469 18.1667 25.933 18.1667 26.581C18.1667 27.221 17.6947 27.685 17.0387 27.685ZM17.0387 24.925C16.0308 24.925 15.3027 25.613 15.3027 26.581C15.3027 27.557 16.0308 28.229 17.0387 28.229C18.0627 28.229 18.7907 27.557 18.7907 26.581C18.7907 25.613 18.0627 24.925 17.0387 24.925ZM17.3587 22.741H16.7027V23.805H14.8947V24.333H19.1268V23.805H17.3587V22.741ZM21.6387 25.605H20.4627V22.661H19.8068V29.829H20.4627V26.157H21.6387V25.605Z" fill="white"/>
<path d="M22.8181 23.429V23.957H25.5141C25.3781 25.661 24.4181 27.037 22.4901 27.957L22.8421 28.493C25.2261 27.325 26.1781 25.501 26.1781 23.429H22.8181ZM27.6261 22.653V29.829H28.2821V22.653H27.6261Z" fill="white"/>
</svg>
