<svg width="168" height="70" viewBox="0 0 168 70" fill="none" xmlns="http://www.w3.org/2000/svg">
<path d="M42.6158 2.90406V5.04806H53.1758C52.6318 10.1041 48.2158 14.1681 41.4638 16.2801L42.5198 18.3601C50.7758 15.7681 55.9918 10.3281 55.9918 2.90406H42.6158ZM48.4078 19.5121H45.7838V28.7281H64.9198V26.5841H48.4078V19.5121ZM63.6718 9.40006V0.696062H61.0478V21.6561H63.6718V11.5761H67.8958V9.40006H63.6718Z" fill="black"/>
<path d="M92.4693 22.0081H95.1253V0.696062H92.4693V6.13606H87.6693V8.24806H92.4693V11.6081H87.6693V13.7521H92.4693V22.0081ZM77.7173 5.11206H82.0373V15.2881C80.5973 15.3521 79.1253 15.4161 77.7173 15.4481V5.11206ZM88.3413 14.7761C87.1573 14.9041 85.8773 15.0321 84.5973 15.1281V5.11206H87.4453V3.00006H72.3413V5.11206H75.1893V15.4801C73.9093 15.5121 72.6613 15.5121 71.5733 15.5121L71.8613 17.6881C76.5013 17.6881 82.9973 17.5921 88.5013 16.7281L88.3413 14.7761ZM79.3493 26.5841V20.2801H76.7253V28.7281H95.8613V26.5841H79.3493Z" fill="black"/>
<path d="M118.579 4.18406H111.411V0.664062H108.787V4.18406H101.651V6.29606H118.579V4.18406ZM105.747 13.2081C105.747 11.2241 107.507 9.94406 110.099 9.94406C112.691 9.94406 114.483 11.2241 114.483 13.2081C114.483 15.2241 112.691 16.5041 110.099 16.5041C107.507 16.5041 105.747 15.2241 105.747 13.2081ZM116.979 13.2081C116.979 10.0081 114.163 7.89606 110.099 7.89606C106.035 7.89606 103.251 10.0081 103.251 13.2081C103.251 16.4401 106.035 18.5521 110.099 18.5521C114.163 18.5521 116.979 16.4401 116.979 13.2081ZM108.595 20.5041H105.971V28.7281H125.107V26.5841H108.595V20.5041ZM123.827 10.1361V0.664062H121.203V22.2001H123.827V12.3441H128.051V10.1361H123.827Z" fill="black"/>
<path d="M19.385 55.0469V56.2188C19.385 57.9376 19.1558 59.4844 18.6975 60.8594C18.2392 62.224 17.5881 63.3855 16.7444 64.3438C15.9006 65.3021 14.8954 66.0365 13.7288 66.5469C12.5621 67.0574 11.2652 67.3126 9.83813 67.3126C8.43188 67.3126 7.14022 67.0574 5.96313 66.5469C4.79647 66.0365 3.78605 65.3021 2.93188 64.3438C2.07772 63.3855 1.41626 62.224 0.94751 60.8594C0.47876 59.4844 0.244385 57.9376 0.244385 56.2188V55.0469C0.244385 53.3178 0.47876 51.7709 0.94751 50.4063C1.41626 49.0417 2.07251 47.8803 2.91626 46.9219C3.76001 45.9532 4.76522 45.2136 5.93188 44.7032C7.10897 44.1928 8.40063 43.9376 9.80688 43.9376C11.234 43.9376 12.5308 44.1928 13.6975 44.7032C14.8642 45.2136 15.8694 45.9532 16.7131 46.9219C17.5673 47.8803 18.2236 49.0417 18.6819 50.4063C19.1506 51.7709 19.385 53.3178 19.385 55.0469ZM15.0413 56.2188V55.0157C15.0413 53.7761 14.9267 52.6876 14.6975 51.7501C14.4683 50.8021 14.1298 50.0053 13.6819 49.3594C13.234 48.7136 12.6819 48.2292 12.0256 47.9063C11.3694 47.573 10.6298 47.4063 9.80688 47.4063C8.97355 47.4063 8.23397 47.573 7.58813 47.9063C6.95272 48.2292 6.41105 48.7136 5.96313 49.3594C5.51522 50.0053 5.17147 50.8021 4.93188 51.7501C4.70272 52.6876 4.58813 53.7761 4.58813 55.0157V56.2188C4.58813 57.448 4.70272 58.5365 4.93188 59.4844C5.17147 60.4324 5.51522 61.2344 5.96313 61.8907C6.42147 62.5365 6.97355 63.0261 7.61938 63.3594C8.26522 63.6928 9.0048 63.8594 9.83813 63.8594C10.6715 63.8594 11.4111 63.6928 12.0569 63.3594C12.7027 63.0261 13.2444 62.5365 13.6819 61.8907C14.1298 61.2344 14.4683 60.4324 14.6975 59.4844C14.9267 58.5365 15.0413 57.448 15.0413 56.2188Z" fill="black"/>
<path d="M27.9625 44.2501V67.0001H23.6656V44.2501H27.9625ZM41.6188 44.2501L32.4938 55.3438L27.275 60.9219L26.5094 56.7501L30.1344 52.0469L36.3531 44.2501H41.6188ZM36.8375 67.0001L29.7594 56.3438L32.8375 53.5626L41.9469 67.0001H36.8375Z" fill="black"/>
<path d="M44.5869 44.2501H52.8525C54.5817 44.2501 56.0661 44.5105 57.3056 45.0313C58.5452 45.5521 59.4983 46.323 60.165 47.3438C60.8317 48.3646 61.165 49.6199 61.165 51.1094C61.165 52.2865 60.9567 53.3074 60.54 54.1719C60.1233 55.0365 59.5348 55.7605 58.7744 56.3438C58.0244 56.9271 57.139 57.3855 56.1181 57.7188L54.7744 58.4063H47.4775L47.4463 55.0157H52.8994C53.7848 55.0157 54.5192 54.8594 55.1025 54.5469C55.6858 54.2344 56.1233 53.8021 56.415 53.2501C56.7171 52.698 56.8681 52.0678 56.8681 51.3594C56.8681 50.599 56.7223 49.9428 56.4306 49.3907C56.139 48.8282 55.6963 48.3959 55.1025 48.0938C54.5088 47.7917 53.7588 47.6407 52.8525 47.6407H48.8838V67.0001H44.5869V44.2501ZM57.4306 67.0001L52.165 56.8126L56.7119 56.7969L62.04 66.7813V67.0001H57.4306Z" fill="black"/>
<path d="M89.1275 52.9201C89.7995 49.2081 89.7995 46.2961 89.7995 44.2481V42.4241H74.6635V45.7841H85.6395C85.6075 47.5441 85.4795 49.6881 84.9995 52.4401L89.1275 52.9201ZM91.0795 54.1041C88.3275 54.4881 85.3835 54.7121 82.4715 54.8401V49.2721H78.3435V55.0001C76.4235 55.0321 74.5995 55.0321 72.9675 55.0321L73.3515 58.3921C78.4075 58.3601 85.2555 58.2321 91.3355 57.1121L91.0795 54.1041ZM81.4795 60.3761H77.2555V69.2401H97.8315V65.8801H81.4795V60.3761ZM96.9035 49.2401V40.2481H92.6795V62.3281H96.9035V52.7281H100.424V49.2401H96.9035Z" fill="black"/>
<path d="M109.349 54.1681H118.917V42.7761H104.997V46.1361H114.597V50.8401H105.029V62.9681H107.685C113.029 62.9681 117.349 62.7761 122.149 61.9441L121.701 58.5201C117.541 59.2241 113.829 59.4481 109.349 59.4801V54.1681ZM123.749 40.2481V69.8161H127.973V40.2481H123.749Z" fill="black"/>
<path d="M146.051 48.6961C146.051 46.5201 147.267 45.3041 148.963 45.3041C150.723 45.3041 151.939 46.5201 151.939 48.6961C151.939 50.9041 150.723 52.1521 148.963 52.1521C147.267 52.1521 146.051 50.9041 146.051 48.6961ZM155.715 48.6961C155.715 44.6961 152.931 41.8801 148.963 41.8801C145.059 41.8801 142.243 44.6961 142.243 48.6961C142.243 52.7281 145.059 55.5441 148.963 55.5441C152.931 55.5441 155.715 52.7281 155.715 48.6961ZM163.107 66.0401H151.427V63.4481H163.107V66.0401ZM163.107 60.1841H151.427V57.5281H147.235V69.4001H167.267V57.5281H163.107V60.1841ZM163.267 40.3121V46.4241H160.963V40.8561H157.027V56.1201H160.963V49.8481H163.267V56.3121H167.267V40.3121H163.267Z" fill="black"/>
</svg>
