<svg width="300" height="140" viewBox="0 0 300 140" fill="none" xmlns="http://www.w3.org/2000/svg">
<rect x="0.5" y="0.5" width="299" height="139" rx="9.5" fill="#FAFAFA"/>
<rect x="0.5" y="0.5" width="299" height="139" rx="9.5" stroke="#E0E0E0"/>
<path d="M46.5269 38.3139H54.6549V41.4819H56.7669V36.6339H46.5269V38.3139ZM48.7669 28.9539H54.6069V30.8579H48.7669V28.9539ZM52.7509 33.8979V32.5219H56.6869V27.3059H46.6869V32.5219H50.6389V33.8979H45.0549V35.5779H58.3669V33.8979H52.7509Z" fill="black"/>
<path d="M65.1497 35.3859H67.6937V38.1539H65.1497V35.3859ZM64.9097 29.5779H67.9177V33.7219H64.9097V29.5779ZM69.7897 38.1539V35.3859H71.9817V33.7219H70.0137V29.5779H72.0137V27.8979H60.8137V29.5779H62.8137V33.7219H60.8937V35.3859H63.0537V38.1539H59.7577V39.8499H73.1177V38.1539H69.7897Z" fill="black"/>
<path d="M84.1244 29.1299H76.1564V32.6499H86.4604V31.2259H78.2364V30.4579H86.2044V26.9859H76.1244V28.4099H84.1244V29.1299ZM78.1084 39.1139H86.2524V35.6099H75.9964V37.0339H84.1564V37.7859H76.0124V41.3379H86.6524V39.9139H78.1084V39.1139ZM74.4924 33.3539V34.8739H87.8364V33.3539H74.4924Z" fill="black"/>
<path d="M101.196 30.2819V31.9939H103.404V35.4979H105.516V26.7299H103.404V30.2819H101.196ZM102.076 33.4499C99.8356 32.7139 98.8116 30.9859 98.7476 29.3059H101.612V27.6099H93.6916V29.3059H96.5876C96.5236 31.1459 95.4516 33.0179 93.1156 33.8339L94.1876 35.4979C95.8996 34.9219 97.0676 33.7219 97.7076 32.2339C98.3476 33.5299 99.4516 34.5699 101.052 35.0979L102.076 33.4499ZM100.54 39.8819C98.6036 39.8819 97.5956 39.4819 97.5956 38.6499C97.5956 37.8179 98.6036 37.4179 100.54 37.4179C102.46 37.4179 103.468 37.8179 103.468 38.6499C103.468 39.4819 102.46 39.8819 100.54 39.8819ZM100.54 35.8179C97.4036 35.8179 95.4836 36.8579 95.4836 38.6499C95.4836 40.4419 97.4036 41.4819 100.54 41.4819C103.66 41.4819 105.58 40.4419 105.58 38.6499C105.58 36.8579 103.66 35.8179 100.54 35.8179Z" fill="black"/>
<path d="M113.29 31.8819H110.41V29.0659H113.29V31.8819ZM115.37 27.4179H108.346V33.5459H115.37V27.4179ZM111.898 38.6979H119.514V34.6659H109.786V36.2979H117.434V37.1779H109.802V41.2899H119.946V39.6579H111.898V38.6979ZM119.514 29.5619V26.7299H117.402V34.0899H119.514V31.2899H121.45V29.5619H119.514Z" fill="black"/>
<path d="M130.345 38.1219V35.9299H134.809V34.2339H126.265V32.5859H134.473V27.6739H124.153V29.3539H132.393V30.9379H124.169V35.9299H128.233V38.1219H122.633V39.8499H135.977V38.1219H130.345Z" fill="black"/>
<path d="M150.072 33.2419C147.768 32.5219 146.776 30.7779 146.776 29.0179V27.4659H144.632V28.8259C144.632 30.7299 143.608 32.6339 141.176 33.4019L142.232 35.0659C143.912 34.5219 145.048 33.4179 145.704 32.0419C146.328 33.3539 147.432 34.3779 149.048 34.9059L150.072 33.2419ZM143.096 37.9459H150.824V41.4819H152.936V36.2659H143.096V37.9459ZM154.888 30.3139H152.936V26.7299H150.824V35.6259H152.936V32.0419H154.888V30.3139Z" fill="black"/>
<path d="M160.727 29.9139H162.871V28.2019H156.311V29.9139H158.679V30.6339C158.679 33.1619 157.911 35.8019 155.767 37.1619L157.015 38.7139C158.343 37.8819 159.207 36.4419 159.719 34.7619C160.199 36.3139 161.047 37.5779 162.343 38.3619L163.575 36.8259C161.447 35.5779 160.727 33.0979 160.727 30.6339V29.9139ZM163.719 31.7539H161.847V33.4659H163.719V40.7939H165.687V26.9699H163.719V31.7539ZM166.695 26.7139V41.4499H168.695V26.7139H166.695Z" fill="black"/>
<path d="M179.014 36.7299C178.022 36.7299 177.286 36.0579 177.286 34.9379C177.286 33.8179 178.022 33.1299 179.014 33.1299C180.006 33.1299 180.726 33.8179 180.726 34.9219C180.726 36.0579 180.006 36.7299 179.014 36.7299ZM179.014 31.4179C176.87 31.4179 175.27 32.8739 175.27 34.9219C175.27 37.0019 176.87 38.4579 179.014 38.4579C181.142 38.4579 182.726 37.0019 182.726 34.9219C182.726 32.8739 181.142 31.4179 179.014 31.4179ZM180.054 26.9859H177.942V28.9059H174.678V30.5859H183.254V28.9059H180.054V26.9859ZM188.438 32.4899H186.326V26.7299H184.214V41.4659H186.326V34.2339H188.438V32.4899Z" fill="black"/>
<path d="M201.701 26.7459H199.589V34.1699H201.701V26.7459ZM198.517 32.3459C196.133 31.6419 195.077 29.9299 195.077 28.1859V27.0819H192.933V28.1859C192.933 29.9779 191.861 31.8339 189.413 32.5859L190.437 34.2339C192.165 33.7059 193.365 32.5859 194.037 31.1939C194.693 32.4739 195.829 33.4979 197.509 33.9939L198.517 32.3459ZM194.005 39.7219V38.8099H201.717V34.8259H191.893V36.4419H199.621V37.3059H191.909V41.3539H202.085V39.7219H194.005Z" fill="black"/>
<path d="M211.86 31.0179V32.7299H214.404V37.4979H216.516V26.7299H214.404V31.0179H211.86ZM205.14 27.8339V29.5139H209.732C209.38 31.6739 207.444 33.4339 204.372 34.3939L205.236 36.0899C209.524 34.7299 211.988 31.8179 211.988 27.8339H205.14ZM208.996 39.5299V36.4419H206.884V41.2099H216.884V39.5299H208.996Z" fill="black"/>
<path d="M219.586 28.2339V29.9459H224.402C224.018 33.2099 222.194 35.5459 218.77 37.3059L219.954 38.9219C224.85 36.4419 226.53 32.6499 226.53 28.2339H219.586ZM232.514 32.3459H230.45V26.7139H228.338V41.4339H230.45V34.0899H232.514V32.3459Z" fill="black"/>
<path d="M238.673 35.2259C239.185 35.3219 239.713 35.3699 240.289 35.3699C240.865 35.3699 241.409 35.3219 241.921 35.2259V38.0419H238.673V35.2259ZM240.289 29.1139C242.337 29.1139 243.713 29.9459 243.713 31.4179C243.713 32.8739 242.337 33.7219 240.289 33.7219C238.241 33.7219 236.881 32.8739 236.881 31.4179C236.881 29.9459 238.241 29.1139 240.289 29.1139ZM244.017 38.0419V34.4419C245.121 33.7539 245.793 32.6979 245.793 31.4179C245.793 29.0019 243.473 27.4499 240.289 27.4499C237.121 27.4499 234.801 29.0019 234.801 31.4179C234.785 32.6979 235.457 33.7539 236.577 34.4419V38.0419H233.633V39.7539H246.977V38.0419H244.017Z" fill="black"/>
<path d="M252.265 36.6758H250.398C250.403 36.2018 250.442 35.7956 250.515 35.4571C250.593 35.1185 250.721 34.8138 250.898 34.543C251.075 34.267 251.315 33.9857 251.617 33.6992C251.857 33.4753 252.07 33.2643 252.258 33.0664C252.45 32.8633 252.601 32.6524 252.711 32.4336C252.82 32.2097 252.875 31.9571 252.875 31.6758C252.875 31.3581 252.823 31.0925 252.718 30.8789C252.62 30.6654 252.471 30.5039 252.273 30.3946C252.08 30.28 251.838 30.2227 251.547 30.2227C251.307 30.2227 251.08 30.2722 250.867 30.3711C250.653 30.4701 250.482 30.6237 250.351 30.8321C250.221 31.0352 250.151 31.3008 250.14 31.6289H248.07C248.086 30.9466 248.247 30.3789 248.554 29.9258C248.862 29.4675 249.276 29.1263 249.797 28.9024C250.317 28.6732 250.901 28.5586 251.547 28.5586C252.26 28.5586 252.87 28.6784 253.375 28.918C253.885 29.1524 254.273 29.4961 254.539 29.9492C254.81 30.4024 254.945 30.9492 254.945 31.5899C254.945 32.0482 254.857 32.4597 254.679 32.8242C254.502 33.1836 254.268 33.5196 253.976 33.8321C253.685 34.1446 253.37 34.4597 253.031 34.7774C252.734 35.043 252.534 35.3268 252.429 35.6289C252.325 35.931 252.271 36.28 252.265 36.6758ZM250.203 39.1055C250.203 38.793 250.307 38.5326 250.515 38.3242C250.729 38.1159 251.015 38.0117 251.375 38.0117C251.734 38.0117 252.018 38.1159 252.226 38.3242C252.44 38.5326 252.547 38.793 252.547 39.1055C252.547 39.4076 252.44 39.6628 252.226 39.8711C252.018 40.0795 251.734 40.1836 251.375 40.1836C251.015 40.1836 250.729 40.0795 250.515 39.8711C250.307 39.6628 250.203 39.4076 250.203 39.1055Z" fill="black"/>
<path d="M27.3861 61.4389H34.3931V64.2729H35.4591V60.5809H27.3861V61.4389ZM28.6081 53.9249H34.3541V56.1869H28.6081V53.9249ZM32.0271 58.5139V57.0319H35.4071V53.0799H27.5681V57.0319H30.9611V58.5139H26.2031V59.3719H36.7591V58.5139H32.0271Z" fill="black"/>
<path d="M42.1661 59.2029H44.7011V61.9719H42.1661V59.2029ZM41.9841 54.5359H44.8831V58.3449H41.9841V54.5359ZM45.7671 61.9719V59.2029H47.7431V58.3449H45.9491V54.5359H47.7561V53.6779H39.1111V54.5359H40.9181V58.3449H39.1371V59.2029H41.1001V61.9719H38.1621V62.8429H48.7441V61.9719H45.7671Z" fill="black"/>
<path d="M58.2981 54.6399H51.4861V57.1359H59.5591V56.3689H52.5391V55.3679H59.3511V52.9369H51.4601V53.6909H58.2981V54.6399ZM52.4741 62.2579H59.3901V59.7749H51.3951V60.5419H58.3371V61.5169H51.4211V64.1039H59.7541V63.3369H52.4741V62.2579ZM50.1341 58.0199V58.8259H60.7031V58.0199H50.1341Z" fill="black"/>
<path d="M74.8219 52.6119H73.7559V58.6439H74.8219V52.6119ZM72.3259 57.4739C70.5969 56.9019 69.3749 55.4459 69.3749 53.8339V52.9499H68.3089V53.8339C68.3089 55.5239 67.0999 57.0839 65.3449 57.6949L65.8909 58.5269C67.2689 58.0329 68.3479 56.9669 68.8549 55.6279C69.3879 56.8629 70.4539 57.8379 71.7929 58.3059L72.3259 57.4739ZM68.3609 63.2849V62.0369H74.8349V59.2289H67.2819V60.0609H73.7819V61.2309H67.3079V64.1299H75.2249V63.2849H68.3609Z" fill="black"/>
<path d="M84.5579 56.6419H86.0399V59.9829H87.0669V52.5989H86.0399V55.7709H84.5579V52.8199H83.5439V59.5539H84.5579V56.6419ZM83.0759 53.9899H80.6579V52.6899H79.6049V53.9899H77.1609V54.8349H83.0889L83.0759 53.9899ZM78.6039 57.4349C78.6039 56.7199 79.2149 56.2389 80.1379 56.2389C81.0479 56.2389 81.6719 56.7199 81.6719 57.4349C81.6719 58.1629 81.0479 58.6439 80.1379 58.6439C79.2149 58.6439 78.6039 58.1629 78.6039 57.4349ZM82.6209 57.4349C82.6209 56.2389 81.6069 55.4459 80.1379 55.4459C78.6689 55.4459 77.6419 56.2389 77.6419 57.4349C77.6419 58.6569 78.6689 59.4369 80.1379 59.4369C81.6069 59.4369 82.6209 58.6569 82.6209 57.4349ZM83.2319 63.4279C81.4509 63.4279 80.3849 62.9859 80.3849 62.2189C80.3849 61.4389 81.4509 60.9969 83.2319 60.9969C84.9999 60.9969 86.0659 61.4389 86.0659 62.2189C86.0659 62.9859 84.9999 63.4279 83.2319 63.4279ZM83.2319 60.1779C80.8009 60.1779 79.3319 60.9059 79.3319 62.2189C79.3319 63.5189 80.8009 64.2469 83.2319 64.2469C85.6629 64.2469 87.1319 63.5189 87.1319 62.2189C87.1319 60.9059 85.6629 60.1779 83.2319 60.1779Z" fill="black"/>
<path d="M92.6039 60.7759C91.5509 60.7759 90.7839 60.0219 90.7839 58.9819C90.7839 57.9289 91.5509 57.1749 92.6039 57.1749C93.6699 57.1749 94.4369 57.9289 94.4369 58.9819C94.4369 60.0219 93.6699 60.7759 92.6039 60.7759ZM92.6039 56.2909C90.9659 56.2909 89.7829 57.4089 89.7829 58.9819C89.7829 60.5679 90.9659 61.6599 92.6039 61.6599C94.2679 61.6599 95.4509 60.5679 95.4509 58.9819C95.4509 57.4089 94.2679 56.2909 92.6039 56.2909ZM93.1239 52.7419H92.0579V54.4709H89.1199V55.3289H95.9969V54.4709H93.1239V52.7419ZM100.079 57.3959H98.1679V52.6119H97.1019V64.2599H98.1679V58.2929H100.079V57.3959Z" fill="black"/>
<path d="M105.954 58.2149H102.73V54.4709H105.954V58.2149ZM109.672 55.5239V57.1489H106.994V55.5239H109.672ZM106.994 58.0199H109.672V61.1139H110.751V52.6119H109.672V54.6529H106.994V53.6259H101.677V59.0599H106.994V58.0199ZM104.316 63.1289V60.3599H103.25V63.9999H111.024V63.1289H104.316Z" fill="black"/>
<path d="M123.193 54.0289H120.281V52.5989H119.215V54.0289H116.316V54.8869H123.193V54.0289ZM117.98 57.6949C117.98 56.8889 118.695 56.3689 119.748 56.3689C120.801 56.3689 121.529 56.8889 121.529 57.6949C121.529 58.5139 120.801 59.0339 119.748 59.0339C118.695 59.0339 117.98 58.5139 117.98 57.6949ZM122.543 57.6949C122.543 56.3949 121.399 55.5369 119.748 55.5369C118.097 55.5369 116.966 56.3949 116.966 57.6949C116.966 59.0079 118.097 59.8659 119.748 59.8659C121.399 59.8659 122.543 59.0079 122.543 57.6949ZM119.137 60.6589H118.071V63.9999H125.845V63.1289H119.137V60.6589ZM125.325 56.4469V52.5989H124.259V61.3479H125.325V57.3439H127.041V56.4469H125.325Z" fill="black"/>
<path d="M136.764 58.5789H137.843V52.5989H136.764V55.4069H134.229V56.2649H136.764V58.5789ZM129.029 53.1709V54.0289H133.007C132.825 55.8879 131.187 57.2919 128.405 57.9679L128.795 58.8129C132.136 57.9809 134.151 56.0699 134.151 53.1709H129.029ZM131.408 63.2979V61.9459H137.843V59.0859H130.329V59.9309H136.777V61.1399H130.355V64.1429H138.233V63.2979H131.408Z" fill="black"/>
<path d="M145.46 52.8589C142.938 52.8589 141.365 53.6779 141.365 55.0689C141.365 56.4469 142.938 57.2659 145.46 57.2659C147.982 57.2659 149.555 56.4469 149.555 55.0689C149.555 53.6779 147.982 52.8589 145.46 52.8589ZM145.46 53.7039C147.306 53.7039 148.463 54.2109 148.463 55.0689C148.463 55.9269 147.306 56.4339 145.46 56.4339C143.614 56.4339 142.457 55.9269 142.457 55.0689C142.457 54.2109 143.614 53.7039 145.46 53.7039ZM141.495 60.2689V64.1039H149.451V60.2689H141.495ZM148.411 61.1139V63.2459H142.535V61.1139H148.411ZM140.195 58.2669V59.1249H150.738V58.2669H140.195Z" fill="black"/>
<path d="M156.978 54.5879H161.216V53.7039H155.912V61.3999H156.809C159.019 61.3999 160.423 61.3219 162.113 61.0099L161.983 60.1259C160.41 60.4249 159.045 60.5029 156.978 60.5029V54.5879ZM163.868 52.5989V56.8239H160.527V57.7079H163.868V64.2859H164.934V52.5989H163.868Z" fill="black"/>
<path d="M178.988 59.5019H180.067V52.6119H178.988V55.0819H176.453V55.9529H178.988V59.5019ZM177.298 58.1239C175.595 57.5259 174.464 56.0829 174.464 54.4189V53.2619H173.398V54.4579C173.398 56.2389 172.241 57.7989 170.447 58.4359L171.006 59.3069C172.41 58.7739 173.463 57.7209 173.957 56.3429C174.464 57.5519 175.452 58.4749 176.726 58.9559L177.298 58.1239ZM176.219 63.4019C174.464 63.4019 173.398 62.8949 173.398 62.0499C173.398 61.1919 174.464 60.6849 176.219 60.6849C177.974 60.6849 179.04 61.1919 179.04 62.0499C179.04 62.8949 177.974 63.4019 176.219 63.4019ZM176.219 59.8529C173.827 59.8529 172.332 60.6459 172.332 62.0499C172.332 63.4409 173.827 64.2469 176.219 64.2469C178.611 64.2469 180.106 63.4409 180.106 62.0499C180.106 60.6459 178.611 59.8529 176.219 59.8529Z" fill="black"/>
<path d="M189.179 58.2409C187.463 57.6689 186.358 56.3039 186.358 54.7829V54.3279H188.932V53.4699H182.679V54.3279H185.292V54.7829C185.292 56.4599 184.122 57.9679 182.367 58.5789L182.913 59.4239C184.304 58.9299 185.357 57.8899 185.851 56.5639C186.345 57.7209 187.346 58.6439 188.672 59.0729L189.179 58.2409ZM187.762 63.4019C186.02 63.4019 184.98 62.9209 184.98 62.0889C184.98 61.2699 186.02 60.7889 187.762 60.7889C189.478 60.7889 190.531 61.2699 190.531 62.0889C190.531 62.9209 189.478 63.4019 187.762 63.4019ZM187.762 59.9439C185.37 59.9439 183.914 60.7369 183.914 62.0889C183.914 63.4539 185.37 64.2469 187.762 64.2469C190.128 64.2469 191.597 63.4539 191.597 62.0889C191.597 60.7369 190.128 59.9439 187.762 59.9439ZM191.467 55.5499V52.6119H190.401V59.6449H191.467V56.4469H193.196V55.5499H191.467Z" fill="black"/>
<path d="M201.294 53.6649H198.382V52.4819H197.316V53.6649H194.417V54.4839H201.294V53.6649ZM196.081 56.9149C196.081 56.2129 196.77 55.7969 197.849 55.7969C198.928 55.7969 199.63 56.2129 199.63 56.9149C199.63 57.6039 198.928 58.0329 197.849 58.0329C196.77 58.0329 196.081 57.6039 196.081 56.9149ZM200.644 56.9149C200.644 55.7319 199.539 55.0039 197.849 55.0039C196.172 55.0039 195.067 55.7319 195.067 56.9149C195.067 58.0979 196.172 58.8259 197.849 58.8259C199.539 58.8259 200.644 58.0979 200.644 56.9149ZM197.095 62.1929H203.426V59.6059H196.016V60.3989H202.373V61.4129H196.055V64.1299H203.855V63.3109H197.095V62.1929ZM203.426 55.3679V52.5599H202.36V59.0079H203.426V56.2519H205.155V55.3679H203.426Z" fill="black"/>
<path d="M219.547 57.0449C217.428 56.7329 215.348 55.2899 215.348 53.6649V53.0149H214.23V53.6649C214.23 55.3289 212.176 56.7329 210.057 57.0449L210.486 57.9029C212.306 57.5909 214.061 56.5899 214.789 55.1729C215.543 56.5769 217.298 57.5909 219.105 57.9029L219.547 57.0449ZM220.054 59.1639H209.524V60.0479H214.23V64.2729H215.296V60.0479H220.067L220.054 59.1639Z" fill="black"/>
<path d="M234.212 52.6119H233.146V59.2679H234.212V52.6119ZM227.946 54.1719C229.103 54.1719 229.961 54.9389 229.961 56.0049C229.961 57.0839 229.103 57.8379 227.946 57.8379C226.789 57.8379 225.957 57.0839 225.957 56.0049C225.957 54.9389 226.789 54.1719 227.946 54.1719ZM227.946 58.7219C229.714 58.7219 231.001 57.6169 231.001 56.0049C231.001 54.3929 229.714 53.2879 227.946 53.2879C226.191 53.2879 224.917 54.3929 224.917 56.0049C224.917 57.6169 226.191 58.7219 227.946 58.7219ZM232.912 59.7749H231.872V60.3989C231.872 61.3089 231.313 62.4789 230.195 63.1679C229.116 62.5309 228.583 61.4259 228.583 60.3989V59.7749H227.556V60.3989C227.556 61.5169 226.685 62.7779 225.216 63.2979L225.749 64.1039C226.841 63.6879 227.634 62.8819 228.05 61.9459C228.401 62.9209 229.103 63.7659 230.221 64.2079C231.3 63.7399 232.015 62.8559 232.379 61.9069C232.769 62.8819 233.575 63.6879 234.719 64.1039L235.252 63.2979C233.77 62.8039 232.912 61.6079 232.912 60.3989V59.7749Z" fill="black"/>
<path d="M246.548 56.2389C244.481 55.9789 242.427 54.6919 242.427 53.2489V52.7289H241.335V53.2489C241.335 54.7309 239.294 55.9789 237.201 56.2389L237.591 57.0969C239.411 56.8109 241.153 55.9009 241.881 54.6009C242.622 55.9009 244.351 56.8109 246.158 57.0969L246.548 56.2389ZM244.715 63.2459H238.982V61.7639H244.715V63.2459ZM244.715 60.9449H238.982V59.5799H237.929V64.1039H245.768V59.5799H244.715V60.9449ZM236.59 57.9159V58.7739H247.146V57.9159H236.59Z" fill="black"/>
<path d="M250.356 53.7299H249.29V61.2439H250.252C252.111 61.2439 253.944 61.1139 255.972 60.6979L255.855 59.7879C253.918 60.1779 252.111 60.3339 250.356 60.3339V53.7299ZM257.051 52.5989V64.2469H258.117V52.5989H257.051Z" fill="black"/>
<path d="M262.081 54.6009H266.436V53.7169H261.015V61.3739H261.938C264.135 61.3739 265.669 61.2959 267.45 60.9579L267.333 60.0739C265.643 60.3729 264.148 60.4639 262.081 60.4639V54.6009ZM271.415 57.2009H269.491V52.5989H268.425V64.2859H269.491V58.0849H271.415V57.2009Z" fill="black"/>
<path d="M272.718 62.8346C272.718 62.6864 272.764 62.5616 272.857 62.46C272.955 62.3542 273.086 62.3014 273.251 62.3014C273.42 62.3014 273.553 62.3521 273.651 62.4537C273.748 62.5553 273.797 62.6822 273.797 62.8346C273.797 62.9784 273.748 63.1012 273.651 63.2027C273.553 63.3043 273.42 63.3551 273.251 63.3551C273.086 63.3551 272.955 63.3043 272.857 63.2027C272.764 63.1012 272.718 62.9784 272.718 62.8346Z" fill="black"/>
<g filter="url(#filter0_d_162_2364)">
<rect x="40" y="83.2856" width="102" height="36" rx="8" fill="#FAFAFA"/>
<rect x="40.5" y="83.7856" width="101" height="35" rx="7.5" stroke="black"/>
</g>
<path d="M67.5184 101.425C69.0164 101.117 70.0384 100.403 70.6124 99.4646C71.1864 100.305 72.1524 100.949 73.5944 101.229L74.3084 99.8006C72.4324 99.4646 71.5504 98.5686 71.4944 97.5466H74.0144V96.1186H71.4944V94.8586H69.6464V96.1186H67.1264V97.5466H69.6464C69.5904 98.6386 68.7084 99.6326 66.7764 99.9966L67.5184 101.425ZM74.5324 101.593C71.8304 101.957 68.7084 101.971 66.3564 101.971L66.5804 103.469C67.5044 103.469 68.5404 103.469 69.6324 103.427V107.347H71.4804V103.315C72.5304 103.231 73.6084 103.105 74.6444 102.923L74.5324 101.593ZM75.2604 94.8446V107.725H77.1084V94.8446H75.2604Z" fill="black"/>
<path d="M90.5774 100.725C87.6374 100.249 86.0554 98.3166 86.0554 96.4826V95.5586H84.0814V96.4826C84.0814 98.2746 82.4854 100.249 79.5734 100.725L80.3294 102.251C82.5834 101.845 84.2214 100.627 85.0614 99.0446C85.9014 100.641 87.5534 101.845 89.8214 102.251L90.5774 100.725ZM85.9994 104.729V101.845H84.1514V104.729H79.2934V106.213H90.9694V104.729H85.9994Z" fill="black"/>
<path d="M95.9963 103.595C95.1283 103.595 94.4843 103.007 94.4843 102.027C94.4843 101.047 95.1283 100.445 95.9963 100.445C96.8643 100.445 97.4943 101.047 97.4943 102.013C97.4943 103.007 96.8643 103.595 95.9963 103.595ZM95.9963 98.9466C94.1203 98.9466 92.7203 100.221 92.7203 102.013C92.7203 103.833 94.1203 105.107 95.9963 105.107C97.8583 105.107 99.2443 103.833 99.2443 102.013C99.2443 100.221 97.8583 98.9466 95.9963 98.9466ZM96.9063 95.0686H95.0583V96.7486H92.2023V98.2186H99.7063V96.7486H96.9063V95.0686ZM104.242 99.8846H102.394V94.8446H100.546V107.739H102.394V101.411H104.242V99.8846Z" fill="black"/>
<path d="M105.965 96.1746V97.6446H110.263C109.997 100.501 108.569 102.517 105.279 104.099L106.245 105.555C110.823 103.343 112.153 100.123 112.153 96.1746H105.965ZM114.127 94.8306V107.725H115.989V94.8306H114.127Z" fill="black"/>
<g filter="url(#filter1_d_162_2364)">
<rect x="158" y="83.2856" width="102" height="36" rx="8" fill="black"/>
</g>
<path d="M192.14 100.543C190.124 99.9126 189.256 98.3866 189.256 96.8466V95.4886H187.38V96.6786C187.38 98.3446 186.484 100.011 184.356 100.683L185.28 102.139C186.75 101.663 187.744 100.697 188.318 99.4926C188.864 100.641 189.83 101.537 191.244 101.999L192.14 100.543ZM186.036 104.659H192.798V107.753H194.646V103.189H186.036V104.659ZM196.354 97.9806H194.646V94.8446H192.798V102.629H194.646V99.4926H196.354V97.9806Z" fill="white"/>
<path d="M201.563 97.6306H203.439V96.1326H197.699V97.6306H199.771V98.2606C199.771 100.473 199.099 102.783 197.223 103.973L198.315 105.331C199.477 104.603 200.233 103.343 200.681 101.873C201.101 103.231 201.843 104.337 202.977 105.023L204.055 103.679C202.193 102.587 201.563 100.417 201.563 98.2606V97.6306ZM204.181 99.2406H202.543V100.739H204.181V107.151H205.903V95.0546H204.181V99.2406ZM206.785 94.8306V107.725H208.535V94.8306H206.785Z" fill="white"/>
<path d="M214.178 103.595C213.31 103.595 212.666 103.007 212.666 102.027C212.666 101.047 213.31 100.445 214.178 100.445C215.046 100.445 215.676 101.047 215.676 102.013C215.676 103.007 215.046 103.595 214.178 103.595ZM214.178 98.9466C212.302 98.9466 210.902 100.221 210.902 102.013C210.902 103.833 212.302 105.107 214.178 105.107C216.04 105.107 217.426 103.833 217.426 102.013C217.426 100.221 216.04 98.9466 214.178 98.9466ZM215.088 95.0686H213.24V96.7486H210.384V98.2186H217.888V96.7486H215.088V95.0686ZM222.424 99.8846H220.576V94.8446H218.728V107.739H220.576V101.411H222.424V99.8846Z" fill="white"/>
<path d="M224.147 96.1746V97.6446H228.445C228.179 100.501 226.751 102.517 223.461 104.099L224.427 105.555C229.005 103.343 230.335 100.123 230.335 96.1746H224.147ZM232.309 94.8306V107.725H234.171V94.8306H232.309Z" fill="white"/>
<defs>
<filter id="filter0_d_162_2364" x="39" y="83.2856" width="104" height="38" filterUnits="userSpaceOnUse" color-interpolation-filters="sRGB">
<feFlood flood-opacity="0" result="BackgroundImageFix"/>
<feColorMatrix in="SourceAlpha" type="matrix" values="0 0 0 0 0 0 0 0 0 0 0 0 0 0 0 0 0 0 127 0" result="hardAlpha"/>
<feOffset dy="1"/>
<feGaussianBlur stdDeviation="0.5"/>
<feComposite in2="hardAlpha" operator="out"/>
<feColorMatrix type="matrix" values="0 0 0 0 0 0 0 0 0 0 0 0 0 0 0 0 0 0 0.25 0"/>
<feBlend mode="normal" in2="BackgroundImageFix" result="effect1_dropShadow_162_2364"/>
<feBlend mode="normal" in="SourceGraphic" in2="effect1_dropShadow_162_2364" result="shape"/>
</filter>
<filter id="filter1_d_162_2364" x="157" y="83.2856" width="104" height="38" filterUnits="userSpaceOnUse" color-interpolation-filters="sRGB">
<feFlood flood-opacity="0" result="BackgroundImageFix"/>
<feColorMatrix in="SourceAlpha" type="matrix" values="0 0 0 0 0 0 0 0 0 0 0 0 0 0 0 0 0 0 127 0" result="hardAlpha"/>
<feOffset dy="1"/>
<feGaussianBlur stdDeviation="0.5"/>
<feComposite in2="hardAlpha" operator="out"/>
<feColorMatrix type="matrix" values="0 0 0 0 0 0 0 0 0 0 0 0 0 0 0 0 0 0 0.25 0"/>
<feBlend mode="normal" in2="BackgroundImageFix" result="effect1_dropShadow_162_2364"/>
<feBlend mode="normal" in="SourceGraphic" in2="effect1_dropShadow_162_2364" result="shape"/>
</filter>
</defs>
</svg>
