<svg width="224" height="65" viewBox="0 0 224 65" fill="none" xmlns="http://www.w3.org/2000/svg">
<path d="M17.1663 19.9961H32.2583V26.1001H34.5543V18.1481H17.1663V19.9961ZM19.7983 3.81205H32.1743V8.68405H19.7983V3.81205ZM27.1623 13.6961V10.5041H34.4423V1.99205H17.5583V10.5041H24.8663V13.6961H14.6183V15.5441H37.3543V13.6961H27.1623Z" fill="black"/>
<path d="M49.5601 15.1801H55.0201V21.1441H49.5601V15.1801ZM49.1681 5.12805H55.4121V13.3321H49.1681V5.12805ZM57.3161 21.1441V15.1801H61.5721V13.3321H57.7081V5.12805H61.6001V3.28006H42.9801V5.12805H46.8721V13.3321H43.0361V15.1801H47.2641V21.1441H40.9361V23.0201H63.7281V21.1441H57.3161Z" fill="black"/>
<path d="M89.3193 9.94405C85.9593 10.6161 83.0473 10.8121 78.1753 10.8121V4.26005H86.9953V2.41205H75.9073V12.6601H77.8393C83.0193 12.6601 86.0713 12.4921 89.5993 11.7641L89.3193 9.94405ZM80.6393 21.0601H94.2753V14.8721H78.3153V16.6921H92.0073V19.3241H78.3993V25.7361H95.1993V23.8881H80.6393V21.0601ZM94.2753 6.24805V0.956055H91.9793V13.5841H94.2753V8.12405H97.9993V6.24805H94.2753Z" fill="black"/>
<path d="M119.473 15.8241H121.797V0.984055H119.473V6.30405H114.013V8.18006H119.473V15.8241ZM115.833 12.8561C112.165 11.5681 109.729 8.46006 109.729 4.87605V2.38406H107.433V4.96005C107.433 8.79605 104.941 12.1561 101.077 13.5281L102.281 15.4041C105.305 14.2561 107.573 11.9881 108.637 9.02005C109.729 11.6241 111.857 13.6121 114.601 14.6481L115.833 12.8561ZM113.509 24.2241C109.729 24.2241 107.433 23.1321 107.433 21.3121C107.433 19.4641 109.729 18.3721 113.509 18.3721C117.289 18.3721 119.585 19.4641 119.585 21.3121C119.585 23.1321 117.289 24.2241 113.509 24.2241ZM113.509 16.5801C108.357 16.5801 105.137 18.2881 105.137 21.3121C105.137 24.3081 108.357 26.0441 113.509 26.0441C118.661 26.0441 121.881 24.3081 121.881 21.3121C121.881 18.2881 118.661 16.5801 113.509 16.5801Z" fill="black"/>
<path d="M138.763 3.11205C142.879 3.11205 145.231 4.06405 145.231 5.74405C145.231 7.42406 142.879 8.37605 138.763 8.37605C134.647 8.37605 132.295 7.42406 132.295 5.74405C132.295 4.06405 134.647 3.11205 138.763 3.11205ZM138.763 10.0841C144.279 10.0841 147.583 8.57205 147.583 5.74405C147.583 2.91605 144.279 1.37605 138.763 1.37605C133.247 1.37605 129.943 2.91605 129.943 5.74405C129.943 8.57205 133.247 10.0841 138.763 10.0841ZM132.463 21.4521H147.219V15.7961H130.139V17.5321H144.951V19.7721H130.223V25.7921H147.975V24.0001H132.463V21.4521ZM127.395 11.7921V13.6401H150.131V11.7921H127.395Z" fill="black"/>
<path d="M169.478 4.03605C171.914 4.03605 173.65 5.35206 173.65 7.31206C173.65 9.27206 171.914 10.5881 169.478 10.5881C167.014 10.5881 165.278 9.27206 165.278 7.31206C165.278 5.35206 167.014 4.03605 169.478 4.03605ZM169.478 12.4641C173.202 12.4641 175.862 10.3641 175.862 7.31206C175.862 4.23206 173.202 2.13206 169.478 2.13206C165.726 2.13206 163.066 4.23206 163.066 7.31206C163.066 10.3641 165.726 12.4641 169.478 12.4641ZM177.738 13.6961C172.222 14.5361 165.866 14.5921 161.19 14.5921L161.498 16.5241C163.57 16.5241 165.95 16.4961 168.442 16.3841V25.2881H170.738V16.2441C173.118 16.1041 175.554 15.8241 177.934 15.4041L177.738 13.6961ZM179.558 0.984055V26.1001H181.854V0.984055H179.558Z" fill="black"/>
<path d="M202.46 4.03605H196.188V0.956055H193.892V4.03605H187.648V5.88405H202.46V4.03605ZM191.232 11.9321C191.232 10.1961 192.772 9.07605 195.04 9.07605C197.308 9.07605 198.876 10.1961 198.876 11.9321C198.876 13.6961 197.308 14.8161 195.04 14.8161C192.772 14.8161 191.232 13.6961 191.232 11.9321ZM201.06 11.9321C201.06 9.13206 198.596 7.28406 195.04 7.28406C191.484 7.28406 189.048 9.13206 189.048 11.9321C189.048 14.7601 191.484 16.6081 195.04 16.6081C198.596 16.6081 201.06 14.7601 201.06 11.9321ZM193.724 18.3161H191.428V25.5121H208.172V23.6361H193.724V18.3161ZM207.052 9.24405V0.956055H204.756V19.8001H207.052V11.1761H210.748V9.24405H207.052Z" fill="black"/>
<path d="M16.3841 50.0441C12.3241 48.784 10.5881 45.7601 10.5881 42.6521V40.0201H6.83609V42.3441C6.83609 45.8441 5.10009 49.2881 0.788086 50.7161L2.72009 53.6281C5.66009 52.5921 7.64809 50.6041 8.76809 48.0841C9.86009 50.2681 11.7361 52.0041 14.4521 52.9001L16.3841 50.0441ZM13.0521 61.5521C9.74809 61.5521 7.98409 60.8801 7.98409 59.424C7.98409 57.996 9.74809 57.3241 13.0521 57.3241C16.3281 57.3241 18.0921 57.996 18.0921 59.424C18.0921 60.8801 16.3281 61.5521 13.0521 61.5521ZM13.0521 54.4681C7.67609 54.4681 4.31609 56.316 4.31609 59.424C4.31609 62.5601 7.67609 64.4081 13.0521 64.4081C18.4001 64.4081 21.7601 62.5601 21.7601 59.424C21.7601 56.316 18.4001 54.4681 13.0521 54.4681ZM21.4801 44.6121V38.6481H17.7841V53.8801H21.4801V47.6641H24.8961V44.6121H21.4801Z" fill="black"/>
<path d="M35.7299 40.8601H32.1739V45.2001C32.1739 49.5961 30.8019 54.2161 27.0219 56.5121L29.2339 59.284C31.5579 57.884 33.0699 55.4201 33.9659 52.5641C34.7779 55.1681 36.1499 57.3521 38.3339 58.6961L40.3499 55.84C36.8499 53.516 35.7299 49.2321 35.7299 45.0601V40.8601ZM40.8819 47.3281H37.6339V50.3241H40.8819V63.2601H44.3259V39.0401H40.8819V47.3281ZM46.1179 38.6201V64.4081H49.6179V38.6201H46.1179Z" fill="black"/>
<path d="M69.3557 50.3801C65.3797 49.0361 63.5877 45.9281 63.5317 42.9881H68.5437V40.0481H54.6837V42.9881H59.7517C59.6957 46.1801 57.8197 49.4561 53.6757 50.8561L55.5517 53.7681C58.5477 52.7881 60.5637 50.7161 61.7117 48.1961C62.8037 50.4921 64.7357 52.3401 67.5637 53.2641L69.3557 50.3801ZM57.7917 58.0521H71.6797V64.4361H75.3757V55.1121H57.7917V58.0521ZM71.6797 38.6481V44.7801H67.8717V47.7481H71.6797V53.9641H75.3757V38.6481H71.6797Z" fill="black"/>
<path d="M101.554 38.6481H97.8295V57.1561H101.554V38.6481ZM84.1095 46.8241C84.1095 44.6961 85.6215 43.4641 87.5255 43.4641C89.4575 43.4641 90.9135 44.6961 90.9135 46.8241C90.9135 48.8961 89.4575 50.1561 87.5255 50.1561C85.6215 50.1561 84.1095 48.8961 84.1095 46.8241ZM94.5255 46.8241C94.5255 43.0161 91.4735 40.2721 87.5255 40.2721C83.5775 40.2721 80.4975 43.0161 80.4975 46.8241C80.4975 50.576 83.5775 53.3481 87.5255 53.3481C91.4735 53.3481 94.5255 50.576 94.5255 46.8241ZM88.0855 61.0201V55.3361H84.3895V63.9601H102.198V61.0201H88.0855Z" fill="black"/>
<path d="M127.368 45.4241H124.876C125.016 44.2201 125.1 42.9881 125.1 41.6721H115.076V44.6121H121.432C120.956 49.6521 118.716 53.3761 113.62 56.4841L115.72 59.0601C120.536 56.2041 123.112 52.6201 124.26 48.3641H127.368V51.8641H123.784V54.8321H127.368V63.2881H130.812V39.1801H127.368V45.4241ZM132.66 38.5921V64.4081H136.16V38.5921H132.66Z" fill="black"/>
<path d="M156.29 40.5241H150.606V38.4241H146.91V40.5241H141.17V43.1561H156.29V40.5241ZM145.874 47.6361C145.874 46.6841 146.994 46.2081 148.758 46.2081C150.494 46.2081 151.586 46.6841 151.586 47.6361C151.586 48.5601 150.494 49.0921 148.758 49.0921C146.994 49.0921 145.874 48.5601 145.874 47.6361ZM156.542 52.1161C154.638 52.34 152.622 52.5081 150.606 52.6201V51.3881C153.35 50.9681 155.114 49.5961 155.114 47.6361C155.114 45.2841 152.538 43.8001 148.758 43.8001C144.922 43.8001 142.346 45.2841 142.346 47.6361C142.346 49.5961 144.11 50.9681 146.91 51.3881V52.7601C144.586 52.8161 142.402 52.8161 140.442 52.8161L140.918 55.5881C145.426 55.5881 151.334 55.5041 156.794 54.5801L156.542 52.1161ZM143.97 59.9561H158.054V64.4361H161.778V57.1001H143.97V59.9561ZM158.054 38.6481V56.0921H161.778V38.6481H158.054Z" fill="black"/>
<path d="M194.844 45.7041H180.676V42.2601H194.704V39.3201H177.008V48.6161H194.844V45.7041ZM185.744 61.6081C182.3 61.6081 180.536 61.0201 180.536 59.6761C180.536 58.3321 182.3 57.7161 185.744 57.7161C189.188 57.7161 190.952 58.3321 190.952 59.6761C190.952 61.0201 189.188 61.6081 185.744 61.6081ZM185.744 54.9161C180.172 54.9161 176.812 56.6241 176.812 59.6761C176.812 62.7001 180.172 64.4081 185.744 64.4081C191.316 64.4081 194.704 62.7001 194.704 59.6761C194.704 56.6241 191.316 54.9161 185.744 54.9161ZM174.18 50.4081V53.4321H197.504V50.4081H174.18Z" fill="black"/>
<path d="M203.046 59.7321H217.438V64.3241H221.134V56.8201H203.046V59.7321ZM213.994 52.424V50.5761H221.498V47.7761H207.022V46.0961H220.966V39.1241H203.326V41.9241H217.326V43.4921H203.382V50.5761H210.298V52.424H200.47V55.3641H223.822V52.424H213.994Z" fill="black"/>
</svg>
