<svg width="87" height="76" viewBox="0 0 87 76" fill="none" xmlns="http://www.w3.org/2000/svg">
<rect y="41.0547" width="76.2911" height="40.9711" rx="10" transform="rotate(-32.5564 0 41.0547)" fill="#703CDE"/>
<path d="M27.0349 36.2899L37.7471 53.0681L34.0019 55.4592L23.2898 38.681L27.0349 36.2899ZM32.1398 33.0306L34.0012 35.9461L20.15 44.7895L18.2886 41.874L32.1398 33.0306Z" fill="black"/>
<path d="M39.6458 28.2384L50.3579 45.0166L46.6128 47.4077L35.9006 30.6295L39.6458 28.2384Z" fill="black"/>
<path d="M57.9323 31.973L53.7147 34.6657L51.8534 31.7503L56.071 29.0575C56.6932 28.6602 57.1264 28.2377 57.3704 27.79C57.622 27.3373 57.721 26.874 57.6671 26.4001C57.6161 25.9137 57.4434 25.44 57.1491 24.979C56.845 24.5027 56.4708 24.1198 56.0265 23.8304C55.5849 23.5284 55.0912 23.3732 54.5452 23.3649C54.0069 23.3517 53.4266 23.5438 52.8043 23.9411L49.9465 25.7657L58.7973 39.6285L55.0406 42.0269L44.3285 25.2487L50.943 21.0256C52.2797 20.1722 53.5788 19.6834 54.8405 19.5592C56.1098 19.4301 57.2677 19.6262 58.3143 20.1475C59.3636 20.6563 60.2341 21.4522 60.9256 22.5354C61.6172 23.6186 61.9607 24.724 61.9561 25.8516C61.9592 26.9743 61.6228 28.065 60.947 29.1237C60.2739 30.1698 59.2691 31.1195 57.9323 31.973Z" fill="black"/>
</svg>
