<svg width="270" height="13" viewBox="0 0 270 13" fill="none" xmlns="http://www.w3.org/2000/svg">
<path d="M8.60507 0.53125H7.69101V8.07812H8.60507V4.41016H10.1871V3.63672H8.60507V0.53125ZM0.952728 6.22656H1.76132C3.95273 6.22656 5.19492 6.15625 6.65976 5.875L6.54257 5.11328C5.14804 5.39453 3.95859 5.45898 1.86679 5.45312V2.20703H5.59335V1.43359H0.952728V6.22656ZM2.08945 10.7266H9.08554V9.95312H2.99179V7.31641H2.08945V10.7266ZM12.7826 9.21484H11.6459L11.0013 12.4023H11.8685L12.7826 9.21484ZM27.1727 8.85156H22.8251V6.60156H26.0009V1.26953H25.0985V3.15625H19.6844V1.26953H18.7587V6.60156H21.9227V8.85156H17.6337V9.61328H27.1727V8.85156ZM19.6844 5.85156V3.90625H25.0985V5.85156H19.6844ZM34.0221 1.33984H28.8307V2.11328H33.1139C33.1022 2.77539 33.0787 3.66016 32.8268 4.90234L33.7526 4.97266C34.0162 3.61328 34.0162 2.57617 34.0221 1.89062V1.33984ZM28.1862 5.94531L28.2799 6.70703C30.1373 6.70117 32.6451 6.66016 34.8307 6.28516L34.7721 5.60547C33.6881 5.75781 32.4928 5.83984 31.3385 5.88672V3.64844H30.4244V5.91602C29.6217 5.93945 28.86 5.94531 28.1862 5.94531ZM29.7916 10.7266H36.7526V9.95312H30.7174V7.66797H29.7916V10.7266ZM35.4752 8.37109H36.4127V4.71484H37.9362V3.92969H36.4127V0.53125H35.4752V8.37109ZM44.9144 3.95312H40.7777V1.97266H44.8324V1.21094H39.8519V4.70312H41.891V6.19727C40.8422 6.23242 39.8168 6.24414 38.9027 6.25L39.0434 7C41.0004 7 43.4789 6.93555 45.723 6.625L45.6527 5.94531C44.7504 6.04492 43.7777 6.11523 42.8051 6.15625V4.70312H44.9144V3.95312ZM40.684 10.7266H47.7855V9.95312H41.598V7.79688H40.684V10.7266ZM46.5199 8.33594H47.4457V0.542969H46.5199V8.33594ZM61.6366 0.53125H60.746V10.9492H61.6366V0.53125ZM53.1288 8.44141H53.7851C55.4609 8.43555 56.4804 8.38281 57.6874 8.13672L57.5937 7.35156C56.4745 7.60352 55.5253 7.65625 54.0194 7.66797V2.58203H57.0546V1.82031H53.1288V8.44141ZM56.3515 5.28906H58.6249V10.4102H59.5038V0.789062H58.6249V4.51562H56.3515V5.28906ZM71.9196 0.53125H70.9938V10.9727H71.9196V0.53125ZM63.7165 4.97266C63.7223 7.19336 64.8239 8.59961 66.3766 8.59375C67.9235 8.59961 69.0426 7.19336 69.0368 4.97266C69.0426 2.75781 67.9235 1.3457 66.3766 1.33984C64.8239 1.3457 63.7223 2.75781 63.7165 4.97266ZM64.6071 4.97266C64.6071 3.2793 65.3337 2.16602 66.3766 2.16016C67.4255 2.16602 68.1462 3.2793 68.1462 4.97266C68.1462 6.66602 67.4255 7.7793 66.3766 7.77344C65.3337 7.7793 64.6071 6.66602 64.6071 4.97266ZM82.5776 0.53125H81.6635V4.46875H79.4604V5.23047H81.6635V10.9727H82.5776V0.53125ZM74.4213 8.45312H75.2182C77.2338 8.45312 78.5053 8.38281 80.0229 8.13672L79.9174 7.375C78.4877 7.63281 77.2573 7.68555 75.3471 7.69141V5.17188H78.8276V4.42188H75.3471V2.25391H79.2846V1.49219H74.4213V8.45312ZM92.9777 3.69531H86.7551V0.917969H85.841V4.43359H92.9777V3.69531ZM84.5402 6.60156H94.0793V5.85156H84.5402V6.60156ZM85.7824 10.6914H93.0363V9.92969H86.6965V7.66797H85.7824V10.6914ZM103.641 1.50391V0.90625H102.692V1.50391C102.692 2.99805 100.788 4.24023 98.9069 4.50391L99.2819 5.25391C100.905 4.98438 102.505 4.09961 103.173 2.81055C103.841 4.08789 105.446 4.98438 107.063 5.25391L107.438 4.50391C105.557 4.24023 103.647 2.97461 103.641 1.50391ZM98.4148 7.17578H102.692V10.9492H103.594V7.17578H107.907V6.40234H98.4148V7.17578ZM117.663 0.53125H116.737V3.25H114.639V4.01172H116.737V6.74219H117.663V0.53125ZM109.073 5.91016L109.553 6.64844C110.795 6.17383 111.762 5.20117 112.207 3.98242C112.659 5.05469 113.567 5.93359 114.733 6.35547L115.213 5.61719C113.69 5.0957 112.647 3.80078 112.647 2.44141V2.06641H114.979V1.29297H109.366V2.06641H111.721V2.45312C111.721 3.94141 110.62 5.35352 109.073 5.91016ZM110.713 9.00391C110.707 10.2344 112.038 10.9375 114.206 10.9492C116.368 10.9375 117.698 10.2344 117.698 9.00391C117.698 7.7793 116.368 7.06445 114.206 7.07031C112.038 7.06445 110.707 7.7793 110.713 9.00391ZM111.627 9.00391C111.622 8.24219 112.606 7.78516 114.206 7.78516C115.799 7.78516 116.784 8.24219 116.784 9.00391C116.784 9.75977 115.799 10.2168 114.206 10.2109C112.606 10.2168 111.622 9.75977 111.627 9.00391ZM128.227 0.53125H127.301V10.9727H128.227V0.53125ZM120.024 4.97266C120.03 7.19336 121.131 8.59961 122.684 8.59375C124.231 8.59961 125.35 7.19336 125.344 4.97266C125.35 2.75781 124.231 1.3457 122.684 1.33984C121.131 1.3457 120.03 2.75781 120.024 4.97266ZM120.914 4.97266C120.914 3.2793 121.641 2.16602 122.684 2.16016C123.733 2.16602 124.453 3.2793 124.453 4.97266C124.453 6.66602 123.733 7.7793 122.684 7.77344C121.641 7.7793 120.914 6.66602 120.914 4.97266ZM136.301 1.33984C134.76 1.3457 133.681 2.75781 133.687 4.97266C133.681 7.19336 134.76 8.59961 136.301 8.59375C137.754 8.59961 138.797 7.32227 138.896 5.27734H141.222V10.9727H142.136V0.53125H141.222V4.51562H138.885C138.744 2.56445 137.719 1.3457 136.301 1.33984ZM134.566 4.97266C134.572 3.2793 135.275 2.16602 136.301 2.16016C137.32 2.16602 138.035 3.2793 138.035 4.97266C138.035 6.66602 137.32 7.7793 136.301 7.77344C135.275 7.7793 134.572 6.66602 134.566 4.97266ZM152.736 0.53125H151.822V2.91016H149.736V3.68359H151.822V5.75781H149.654V6.53125H151.822V10.9727H152.736V0.53125ZM144.474 2.24219H148.154V4.43359H144.509V8.53516H145.283C146.947 8.53516 148.283 8.47656 149.947 8.21875L149.865 7.44531C148.283 7.69141 146.988 7.75 145.423 7.75V5.18359H149.056V1.48047H144.474V2.24219ZM164.249 5.82812H154.71V6.58984H159.093V8.72266H160.019V6.58984H164.249V5.82812ZM155.788 2.89844C155.783 4.18164 157.241 4.97852 159.468 4.97266C161.695 4.97852 163.136 4.18164 163.136 2.89844C163.136 1.60352 161.695 0.806641 159.468 0.800781C157.241 0.806641 155.783 1.60352 155.788 2.89844ZM155.941 10.7266H163.183V9.94141H156.866V7.67969H155.941V10.7266ZM156.773 2.89844C156.761 2.06641 157.845 1.55664 159.468 1.55078C161.085 1.55664 162.163 2.06641 162.163 2.89844C162.163 3.70703 161.085 4.22266 159.468 4.22266C157.845 4.22266 156.761 3.70703 156.773 2.89844ZM173.97 0.53125H173.044V3.14453H170.935V3.91797H173.044V6.63672H173.97V0.53125ZM165.38 5.80469L165.86 6.53125C167.097 6.08008 168.058 5.125 168.509 3.91797C168.96 4.99609 169.868 5.86914 171.04 6.29688L171.521 5.57031C169.997 5.02539 168.954 3.72461 168.954 2.38281V1.97266H171.286V1.21094H165.673V1.97266H168.028V2.38281C168.028 3.86523 166.915 5.25977 165.38 5.80469ZM167.161 10.8086H173.97V7.15234H167.161V10.8086ZM168.075 10.0586V7.89062H173.067V10.0586H168.075ZM182.747 2.69922V2.51172H185.102V1.77344H182.77V0.484375H181.844V1.77344H179.489V2.51172H181.844V2.69922C181.838 4.09375 180.749 5.30078 179.196 5.76953L179.653 6.49609C180.895 6.09766 181.856 5.24219 182.307 4.14062C182.77 5.14258 183.702 5.92188 184.903 6.29688L185.336 5.57031C183.795 5.11328 182.752 3.97656 182.747 2.69922ZM180.766 10.8086H187.34V7.1875H180.766V10.8086ZM181.669 10.0586V7.91406H186.426V10.0586H181.669ZM186.426 6.70703H187.34V3.95312H188.911V3.17969H187.34V0.53125H186.426V6.70703ZM198.162 1.58594H190.815V2.34766H197.237V2.62891C197.231 3.87695 197.231 5.33594 196.838 7.32812L197.776 7.43359C198.151 5.33594 198.151 3.90625 198.162 2.62891V1.58594ZM189.807 9.47266H199.299V8.71094H194.436V4.98438H193.534V8.71094H189.807V9.47266ZM213.197 6.71875H203.658V7.46875H207.947V10.9492H208.849V7.46875H213.197V6.71875ZM204.877 5.45312H211.967V0.964844H211.041V2.40625H205.791V0.964844H204.877V5.45312ZM205.791 4.70312V3.15625H211.041V4.70312H205.791ZM219.566 1.24609H214.773V6.27344H215.558C217.714 6.28516 218.916 6.23828 220.351 5.99219L220.246 5.23047C218.875 5.47656 217.72 5.53516 215.687 5.53516V4.09375H219.367V3.36719H215.687V2.00781H219.566V1.24609ZM215.605 8.11328H221.511V10.9492H222.425V7.36328H215.605V8.11328ZM221.511 6.84766H222.425V4.09375H223.996V3.30859H222.425V0.53125H221.511V6.84766ZM233.306 5.54688H227.025V2.26562H233.201V1.50391H226.111V6.30859H233.306V5.54688ZM224.892 9.53125H234.431V8.75781H224.892V9.53125ZM244.105 0.542969H243.191V6.26172H244.105V0.542969ZM236.03 1.80859H239.874V3.13281H236.054V6.05078H236.898C238.819 6.03906 240.243 5.98633 241.995 5.71094L241.89 4.94922C240.196 5.22461 238.808 5.26562 236.944 5.27734V3.85938H240.788V1.04688H236.03V1.80859ZM237.331 10.8086H244.105V6.78906H243.191V8.03125H238.257V6.78906H237.331V10.8086ZM238.257 10.0586V8.76953H243.191V10.0586H238.257ZM254.704 0.53125H253.79V10.9492H254.704V0.53125ZM246.794 8.26562H247.638C249.307 8.26562 250.954 8.13672 252.806 7.75L252.677 6.96484C250.931 7.33398 249.29 7.45703 247.696 7.46875V1.5625H246.794V8.26562ZM264.788 0.53125H263.874V10.9727H264.788V5.42969H266.534V4.65625H264.788V0.53125ZM257.182 8.35938H258.003C259.983 8.35938 261.348 8.30078 262.983 8.00781L262.866 7.21094C261.313 7.49805 259.983 7.58008 258.096 7.58594V2.3125H262.046V1.55078H257.182V8.35938ZM268.438 10.0703C268.854 10.0645 269.194 9.72461 269.188 9.30859C269.194 8.89844 268.854 8.55859 268.438 8.55859C268.028 8.55859 267.676 8.89844 267.688 9.30859C267.676 9.72461 268.028 10.0645 268.438 10.0703Z" fill="#F52730"/>
<path d="M0.0386658 11.916H269.961V12.7305H0.0386658V11.916Z" fill="#F52730"/>
</svg>
