<svg width="243" height="63" viewBox="0 0 243 63" fill="none" xmlns="http://www.w3.org/2000/svg">
<path d="M104.958 0.945312H88.4966V9.14844H95.6334V12.2656H85.6255V14.0156H107.774V12.2656H97.7662V9.14844H104.958V0.945312ZM88.0865 18.2812H102.879V24.2148H105.04V16.5586H88.0865V18.2812ZM90.6021 7.42578V2.66797H102.825V7.42578H90.6021ZM132.643 19.457H126.271V13.6602H130.455V11.8828H126.654V3.95312H130.51V2.17578H112.354V3.95312H116.209V11.8828H112.408V13.6602H116.592V19.457H110.385V21.2344H132.643V19.457ZM118.342 11.8828V3.95312H124.549V11.8828H118.342ZM118.752 19.457V13.6602H124.139V19.457H118.752ZM154.804 7.28906H140.285V0.808594H138.152V9.01172H154.804V7.28906ZM135.117 14.0703H157.374V12.3203H135.117V14.0703ZM138.015 23.6133H154.941V21.8359H140.148V16.5586H138.015V23.6133ZM21.0216 37.7148H17.9591V62.4336H21.0216V37.7148ZM0.541092 55.625L2.12703 58.0586C10.7813 53.9434 13.6387 47.6953 13.6387 40.3398H1.7989V42.7461H10.5489C10.002 48.3652 7.02156 52.5488 0.541092 55.625ZM44.6323 37.7148H41.5425V55.543H44.6323V47.3672H48.0777V44.8242H44.6323V37.7148ZM25.0542 50.5664L26.312 52.9727C33.6265 50.8535 37.9194 46.1641 37.9058 39.6016H26.0933V42.0898H34.5835C34.064 45.8496 30.7144 48.9258 25.0542 50.5664ZM28.7456 61.9414H45.562V59.4805H31.8355V53.7109H28.7456V61.9414ZM62.4462 39.8477H50.7431V51.5234H62.4462V39.8477ZM53.5595 61.9414H70.3759V59.4805H56.5947V54.0117H53.5595V61.9414ZM53.7236 49.1172V42.2812H59.4658V49.1172H53.7236ZM66.3564 55.7617H69.3916V47.5039H72.8369V44.9609H69.3916V37.7148H66.3564V55.7617ZM93.9178 41.6523H89.4061V38.4258H86.3983V41.6523H81.8045V44.0859H93.9178V41.6523ZM82.5155 51.1406C82.4881 54.5723 84.7713 56.9648 87.9022 56.9648C91.0467 56.9648 93.2889 54.5723 93.2889 51.1406C93.2889 47.7773 91.0467 45.3848 87.9022 45.3984C84.7713 45.3848 82.4881 47.7773 82.5155 51.1406ZM85.1952 51.1406C85.1815 49.1992 86.3026 47.9141 87.9022 47.9141C89.4881 47.9141 90.6092 49.1992 90.6092 51.1406C90.6092 53.1367 89.4881 54.3809 87.9022 54.3672C86.3026 54.3809 85.1815 53.1367 85.1952 51.1406ZM94.9569 61.3125H97.8006V50.3477H100.207V62.4336H103.105V37.7148H100.207V47.8867H97.8006V38.2344H94.9569V61.3125ZM126.689 48.9531H112.388V41.9805H126.497V39.5469H109.353V51.3594H116.353V57.0195H106.618V59.5078H129.204V57.0195H119.361V51.3594H126.689V48.9531ZM161.141 49.1719H138.582V51.6602H161.141V49.1719ZM141.207 57.8672C141.207 60.7793 144.447 62.4062 149.82 62.4062C155.152 62.4062 158.365 60.7793 158.379 57.8672C158.365 54.9961 155.152 53.3691 149.82 53.3828C144.447 53.3691 141.207 54.9961 141.207 57.8672ZM141.344 47.2305H158.543V44.7969H144.379V40.9688H158.406V38.5078H141.344V47.2305ZM144.297 57.8672C144.283 56.4727 146.225 55.707 149.82 55.707C153.361 55.707 155.317 56.4727 155.344 57.8672C155.317 59.3301 153.361 60.0547 149.82 60.0547C146.225 60.0547 144.283 59.3301 144.297 57.8672ZM185.9 51.0859H176.111V49.0352H183.603V46.6562H169.193V44.6875H183.111V38.2617H166.103V40.6406H180.076V42.4727H166.185V49.0352H173.103V51.0859H163.314V53.5469H185.9V51.0859ZM165.83 57.5117H180.185V62.2695H183.248V55.1055H165.83V57.5117ZM214.665 37.7148H211.629V62.3789H214.665V49.9102H218.329V47.3672H214.665V37.7148ZM195.168 55.625L196.891 57.9766C205.108 53.9297 208.116 47.5449 208.129 40.2852H196.508V42.8008H205.04C204.438 48.4336 201.184 52.6172 195.168 55.625ZM240.053 44.1406H226.025V38.1523H222.99V46.6016H240.053V44.1406ZM220.064 51.4414H242.623V48.9805H220.064V51.4414ZM222.689 57.7852C222.689 60.6836 225.93 62.3242 231.303 62.3242C236.635 62.3242 239.848 60.6836 239.861 57.7852C239.848 54.873 236.635 53.2324 231.303 53.2188C225.93 53.2324 222.689 54.873 222.689 57.7852ZM225.779 57.7852C225.766 56.3223 227.707 55.6113 231.303 55.5977C234.844 55.6113 236.799 56.3223 236.826 57.7852C236.799 59.207 234.844 59.9863 231.303 60C227.707 59.9863 225.766 59.207 225.779 57.7852Z" fill="black"/>
</svg>
