<svg width="192" height="17" viewBox="0 0 192 17" fill="none" xmlns="http://www.w3.org/2000/svg">
<path d="M15.2743 8.03906H0.772362V9.63867H15.2743V8.03906ZM2.45986 13.6289C2.45986 15.501 4.54287 16.5469 7.99697 16.5469C11.4247 16.5469 13.4901 15.501 13.4989 13.6289C13.4901 11.7832 11.4247 10.7373 7.99697 10.7461C4.54287 10.7373 2.45986 11.7832 2.45986 13.6289ZM2.54775 6.79102H13.6044V5.22656H4.49892V2.76562H13.5165V1.18359H2.54775V6.79102ZM4.44619 13.6289C4.4374 12.7324 5.68545 12.2402 7.99697 12.2402C10.2733 12.2402 11.5302 12.7324 11.5478 13.6289C11.5302 14.5693 10.2733 15.0352 7.99697 15.0352C5.68545 15.0352 4.4374 14.5693 4.44619 13.6289ZM31.431 9.26953H25.138V7.95117H29.9544V6.42188H20.6907V5.15625H29.638V1.02539H18.7044V2.55469H27.6868V3.73242H18.7571V7.95117H23.2044V9.26953H16.9114V10.8516H31.431V9.26953ZM18.5286 13.4004H27.7571V16.459H29.7259V11.8535H18.5286V13.4004ZM42.3317 5.66602H36.4958V3.24023H42.2087V1.6582H34.5271V7.23047H37.4099V9.10254C35.9157 9.14648 34.4655 9.15527 33.156 9.16406L33.4196 10.7285C36.3815 10.7197 40.029 10.6318 43.404 10.166L43.2634 8.75977C42.0241 8.8916 40.7058 8.97949 39.3786 9.03223V7.23047H42.3317V5.66602ZM35.6872 16.248H46.7966V14.666H37.656V11.7305H35.6872V16.248ZM44.3708 12.6094H46.3396V0.673828H44.3708V12.6094ZM66.7524 1.32422H55.9419V6.84375H60.354V8.51367H54.1138V10.0957H68.5981V8.51367H62.3228V6.84375H66.7524V1.32422ZM55.7134 12.9785H64.8716V16.5645H66.8228V11.4316H55.7134V12.9785ZM57.8403 5.29688V2.85352H64.8188V5.29688H57.8403ZM84.7899 13.1543H80.9579V9.88477H83.4716V8.30273H81.204V3.5918H83.5243V2.02734H71.4657V3.5918H73.7509V8.30273H71.5185V9.88477H74.0321V13.1543H70.2704V14.7363H84.7899V13.1543ZM75.702 8.30273V3.5918H79.2704V8.30273H75.702ZM75.9833 13.1543V9.88477H79.0067V13.1543H75.9833ZM98.8724 0.673828H96.9212V16.5293H98.8724V8.51367H101.228V6.87891H98.8724V0.673828ZM86.3392 12.1875L87.4466 13.6992C92.7288 11.0977 94.6624 6.99316 94.6712 2.32617H87.2005V3.94336H92.6849C92.2981 7.56445 90.2063 10.2539 86.3392 12.1875ZM111.059 9.97266H109.231V16.3711H114.961V15.1143L115.893 16.4941C117.211 15.9668 118.116 14.9912 118.644 13.8223C119.145 15.0264 120.041 15.9844 121.447 16.4941L122.449 15.0352C120.489 14.3672 119.628 12.7588 119.637 11.1152V9.84961H117.686V11.1152C117.686 12.6357 116.833 14.2266 114.961 15.0176V9.97266H113.15V11.6777H111.059V9.97266ZM107.666 5.01562C107.666 7.22168 109.433 8.74219 111.867 8.74219C113.933 8.74219 115.559 7.57324 115.945 5.80664H118.811V9.09375H120.762V0.673828H118.811V4.18945H115.937C115.532 2.4668 113.915 1.31543 111.867 1.32422C109.433 1.31543 107.666 2.84473 107.666 5.01562ZM109.529 5.01562C109.529 3.75879 110.496 2.93262 111.867 2.94141C113.203 2.93262 114.161 3.75879 114.17 5.01562C114.161 6.29883 113.203 7.14258 111.867 7.14258C110.496 7.14258 109.529 6.29883 109.529 5.01562ZM111.059 14.877V13.1367H113.15V14.877H111.059ZM127.954 1.83398C125.563 1.83398 123.867 4.01367 123.875 7.44141C123.867 10.8955 125.563 13.0664 127.954 13.0664C130.16 13.0664 131.777 11.1768 131.988 8.10938H135.002V16.582H136.936V0.673828H135.002V6.52734H131.97C131.689 3.62695 130.098 1.83398 127.954 1.83398ZM125.756 7.44141C125.748 5.01562 126.644 3.5918 127.954 3.5918C129.272 3.5918 130.16 5.01562 130.168 7.44141C130.16 9.88477 129.272 11.2998 127.954 11.3086C126.644 11.2998 125.748 9.88477 125.756 7.44141ZM154.288 13.0312H150.948V8.9707C152.179 8.24121 152.926 7.125 152.917 5.73633C152.926 3.20508 150.43 1.53516 146.993 1.53516C143.574 1.53516 141.096 3.20508 141.104 5.73633C141.096 7.14258 141.86 8.28516 143.126 9.01465V13.0312H139.768V14.6309H154.288V13.0312ZM143.02 5.73633C143.012 4.08398 144.62 3.07324 146.993 3.08203C149.357 3.07324 151.001 4.08398 151.001 5.73633C151.001 7.3623 149.357 8.39941 146.993 8.39062C144.62 8.39941 143.012 7.3623 143.02 5.73633ZM145.059 13.0312V9.72656C145.657 9.84961 146.308 9.91992 146.993 9.91992C147.696 9.91992 148.355 9.84961 148.962 9.71777V13.0312H145.059ZM175.263 5.91211H160.832V7.49414H164.33V14.1387H166.316V7.49414H169.691V14.1387H171.642V7.49414H175.263V5.91211ZM191.42 5.91211H176.988V7.49414H180.486V14.1387H182.473V7.49414H185.848V14.1387H187.799V7.49414H191.42V5.91211Z" fill="#BDBDBD"/>
</svg>
