<svg width="224" height="65" viewBox="0 0 224 65" fill="none" xmlns="http://www.w3.org/2000/svg">
<path d="M49.814 0.956055V26.1281H52.11V0.956055H49.814ZM38.866 2.88805C35.142 2.88805 32.482 6.30406 32.482 11.6521C32.482 17.0001 35.142 20.4161 38.866 20.4161C42.59 20.4161 45.25 17.0001 45.25 11.6521C45.25 6.30406 42.59 2.88805 38.866 2.88805ZM38.866 4.96005C41.302 4.96005 43.038 7.59206 43.038 11.6521C43.038 15.7401 41.302 18.3721 38.866 18.3721C36.402 18.3721 34.666 15.7401 34.666 11.6521C34.666 7.59206 36.402 4.96005 38.866 4.96005Z" fill="black"/>
<path d="M75.5718 6.75205H60.6478V13.6121H78.4558V11.7361H62.9438V8.51605H77.8958V1.96405H60.5638V3.78405H75.5718V6.75205ZM80.6398 16.1881H57.8478V18.0641H68.0678V26.1001H70.3638V18.0641H80.6398V16.1881Z" fill="black"/>
<path d="M101.918 5.96805C101.918 8.99205 101.918 12.5201 100.966 17.3361L103.262 17.5881C104.214 12.5201 104.214 9.07605 104.214 5.96805V3.47605H86.6016V5.35205H101.918V5.96805ZM95.3376 20.6681V11.6801H93.0416V20.6681H84.2216V22.5441H106.93V20.6681H95.3376Z" fill="black"/>
<path d="M118.967 5.43605H124.539V3.53205H110.959V5.43605H116.699V8.62805C116.699 12.8841 113.675 17.6441 110.091 19.4361L111.435 21.2561C114.263 19.8001 116.699 16.6081 117.847 12.9401C118.995 16.3001 121.347 19.2401 124.147 20.6401L125.463 18.7921C121.823 17.0841 118.967 12.6321 118.967 8.62805V5.43605ZM133.975 11.0921H129.831V0.984055H127.535V26.0721H129.831V13.0241H133.975V11.0921Z" fill="black"/>
<path d="M151.699 18.5681C149.431 18.5681 147.779 16.9441 147.779 14.7041C147.779 12.4361 149.431 10.8121 151.699 10.8121C153.995 10.8121 155.647 12.4361 155.647 14.7041C155.647 16.9441 153.995 18.5681 151.699 18.5681ZM151.699 8.90805C148.171 8.90805 145.623 11.3161 145.623 14.7041C145.623 18.1201 148.171 20.4721 151.699 20.4721C155.283 20.4721 157.831 18.1201 157.831 14.7041C157.831 11.3161 155.283 8.90805 151.699 8.90805ZM152.819 1.26405H150.523V4.98805H144.195V6.83605H159.007V4.98805H152.819V1.26405ZM167.799 11.2881H163.683V0.984055H161.387V26.0721H163.683V13.2201H167.799V11.2881Z" fill="black"/>
<path d="M190.784 8.51605H176V1.88005H173.704V10.3921H190.784V8.51605ZM175.832 18.1201H173.536V25.4561H190.924V23.5801H175.832V18.1201ZM170.624 13.7521V15.6001H193.388V13.7521H170.624Z" fill="black"/>
<path d="M16.5522 50.3241C12.4922 49.1201 10.7282 46.2361 10.6722 43.2961H15.7122V40.3281H1.76816V43.2961H6.89216C6.83616 46.5161 4.98816 49.7921 0.816162 51.1921L2.66416 54.076C5.68816 53.0961 7.73216 51.0521 8.88016 48.5041C10.0002 50.632 11.9602 52.3401 14.7882 53.1801L16.5522 50.3241ZM13.0522 61.5801C9.74816 61.5801 7.98416 60.8801 7.98416 59.424C7.98416 57.94 9.74816 57.2401 13.0522 57.2401C16.3282 57.2401 18.0922 57.94 18.0922 59.424C18.0922 60.8801 16.3282 61.5801 13.0522 61.5801ZM13.0522 54.3841C7.67616 54.3841 4.31616 56.26 4.31616 59.424C4.31616 62.5601 7.67616 64.4081 13.0522 64.4081C18.4002 64.4081 21.7602 62.5601 21.7602 59.424C21.7602 56.26 18.4002 54.3841 13.0522 54.3841ZM21.4802 44.5561V38.6201H17.7842V53.9361H21.4802V47.5801H24.8962V44.5561H21.4802Z" fill="black"/>
<path d="M28.926 41.2801V44.2201H37.522C36.99 49.9321 34.134 53.9641 27.554 57.1281L29.486 60.0401C38.642 55.6161 41.302 49.1761 41.302 41.2801H28.926ZM45.25 38.5921V64.3801H48.974V38.5921H45.25Z" fill="black"/>
<path d="M69.3558 50.3801C65.3798 49.0361 63.5878 45.9281 63.5318 42.9881H68.5438V40.0481H54.6838V42.9881H59.7518C59.6958 46.1801 57.8198 49.4561 53.6758 50.8561L55.5518 53.7681C58.5478 52.7881 60.5638 50.7161 61.7118 48.1961C62.8038 50.4921 64.7358 52.3401 67.5638 53.2641L69.3558 50.3801ZM57.7918 58.0521H71.6798V64.4361H75.3758V55.1121H57.7918V58.0521ZM71.6798 38.6481V44.7801H67.8718V47.7481H71.6798V53.9641H75.3758V38.6481H71.6798Z" fill="black"/>
<path d="M101.554 38.6481H97.8296V57.1561H101.554V38.6481ZM84.1096 46.8241C84.1096 44.6961 85.6216 43.4641 87.5256 43.4641C89.4576 43.4641 90.9136 44.6961 90.9136 46.8241C90.9136 48.8961 89.4576 50.1561 87.5256 50.1561C85.6216 50.1561 84.1096 48.8961 84.1096 46.8241ZM94.5256 46.8241C94.5256 43.0161 91.4736 40.2721 87.5256 40.2721C83.5776 40.2721 80.4976 43.0161 80.4976 46.8241C80.4976 50.576 83.5776 53.3481 87.5256 53.3481C91.4736 53.3481 94.5256 50.576 94.5256 46.8241ZM88.0856 61.0201V55.3361H84.3896V63.9601H102.198V61.0201H88.0856Z" fill="black"/>
<path d="M116.56 58.8921H130.784V64.4361H134.48V55.9521H116.56V58.8921ZM120.48 42.5121H130.7V45.8441H120.48V42.5121ZM127.452 51.1641V48.7561H134.34V39.6281H116.84V48.7561H123.756V51.1641H113.984V54.104H137.28V51.1641H127.452Z" fill="black"/>
<path d="M149.71 53.7681H154.162V58.6121H149.71V53.7681ZM149.29 43.6041H154.554V50.8561H149.29V43.6041ZM157.83 58.6121V53.7681H161.666V50.8561H158.222V43.6041H161.722V40.6641H142.122V43.6041H145.622V50.8561H142.262V53.7681H146.042V58.6121H140.274V61.5801H163.654V58.6121H157.83Z" fill="black"/>
<path d="M194.844 45.7041H180.676V42.2601H194.704V39.3201H177.008V48.6161H194.844V45.7041ZM185.744 61.6081C182.3 61.6081 180.536 61.0201 180.536 59.6761C180.536 58.3321 182.3 57.7161 185.744 57.7161C189.188 57.7161 190.952 58.3321 190.952 59.6761C190.952 61.0201 189.188 61.6081 185.744 61.6081ZM185.744 54.9161C180.172 54.9161 176.812 56.6241 176.812 59.6761C176.812 62.7001 180.172 64.4081 185.744 64.4081C191.316 64.4081 194.704 62.7001 194.704 59.6761C194.704 56.6241 191.316 54.9161 185.744 54.9161ZM174.18 50.4081V53.4321H197.504V50.4081H174.18Z" fill="black"/>
<path d="M203.046 59.7321H217.438V64.3241H221.134V56.8201H203.046V59.7321ZM213.994 52.424V50.5761H221.498V47.7761H207.022V46.0961H220.966V39.1241H203.326V41.9241H217.326V43.4921H203.382V50.5761H210.298V52.424H200.47V55.3641H223.822V52.424H213.994Z" fill="black"/>
</svg>
