<svg width="248" height="43" viewBox="0 0 248 43" fill="none" xmlns="http://www.w3.org/2000/svg">
<path d="M97.3969 17.4798H84.8472V19.1617H100.139V26.9798H59.9337V19.1617H75.2257V17.4798H62.676V2.29803H97.3969V17.4798ZM88.2402 41.2071V36.4798H62.2112V28.7071H97.8617V41.2071H88.2402ZM71.8327 8.75257V11.0253H88.2402V8.75257H71.8327Z" fill="black"/>
<path d="M107.295 2.70712H143.875V10.5253H139.506V20.798H143.875V28.6162H138.763V32.4798H145.688V40.298H105.483V32.4798H112.408V28.6162H107.295V20.798H111.711V10.5253H107.295V2.70712ZM121.332 20.798H129.885V10.5253H121.332V20.798ZM122.03 32.4798H129.141V28.6162H122.03V32.4798Z" fill="black"/>
<path d="M172.704 28.7071V33.4344H198.872V41.2071H163.082V28.7071H172.704ZM172.983 11.3889C175.152 11.3889 177.011 11.5859 178.56 11.9798C180.109 12.3738 181.38 12.9192 182.372 13.6162C183.363 14.2829 184.076 15.1011 184.51 16.0708C184.974 17.0101 185.207 18.0405 185.207 19.1617C185.207 20.3132 184.974 21.3738 184.51 22.3435C184.076 23.2829 183.363 24.1011 182.372 24.798C181.38 25.4647 180.109 25.995 178.56 26.3889C177.011 26.7526 175.152 26.9344 172.983 26.9344C170.782 26.9344 168.908 26.7526 167.358 26.3889C165.84 25.995 164.585 25.4647 163.593 24.798C162.602 24.1011 161.874 23.2829 161.409 22.3435C160.975 21.3738 160.758 20.3132 160.758 19.1617C160.758 18.0405 160.975 17.0101 161.409 16.0708C161.874 15.1011 162.602 14.2829 163.593 13.6162C164.585 12.9192 165.84 12.3738 167.358 11.9798C168.908 11.5859 170.782 11.3889 172.983 11.3889ZM198.407 18.6162V30.3435H188.786V1.84348H198.407V10.798H202.451V18.6162H198.407ZM177.77 3.20712H186.322V10.1162H159.596V3.20712H168.149V0.116211H177.77V3.20712ZM172.983 16.8889C172.053 16.8889 171.325 17.1011 170.798 17.5253C170.302 17.9192 170.054 18.4647 170.054 19.1617C170.054 19.8586 170.302 20.4192 170.798 20.8435C171.325 21.2677 172.053 21.4798 172.983 21.4798C173.912 21.4798 174.625 21.2677 175.121 20.8435C175.647 20.4192 175.911 19.8586 175.911 19.1617C175.911 18.4647 175.647 17.9192 175.121 17.5253C174.594 17.1011 173.881 16.8889 172.983 16.8889Z" fill="black"/>
<path d="M226.34 42.1162C223.396 42.1162 220.778 41.9495 218.485 41.6162C216.192 41.2829 214.255 40.7677 212.675 40.0708C211.095 39.4041 209.886 38.5253 209.049 37.4344C208.213 36.3738 207.794 35.0859 207.794 33.5708C207.794 32.0859 208.213 30.8132 209.049 29.7526C209.886 28.6617 211.095 27.7677 212.675 27.0708C214.255 26.3738 216.192 25.8738 218.485 25.5708C220.778 25.2374 223.396 25.0708 226.34 25.0708C229.253 25.0708 231.856 25.2374 234.149 25.5708C236.473 25.8738 238.425 26.3738 240.005 27.0708C241.586 27.7677 242.794 28.6617 243.631 29.7526C244.467 30.8132 244.886 32.0859 244.886 33.5708C244.886 35.0859 244.467 36.3738 243.631 37.4344C242.794 38.5253 241.586 39.4041 240.005 40.0708C238.425 40.7677 236.473 41.2829 234.149 41.6162C231.856 41.9495 229.253 42.1162 226.34 42.1162ZM230.337 2.29803V23.2526H206.679V2.29803H215.789V6.07076H221.227V2.29803H230.337ZM243.956 15.8889V24.3889H234.335V1.84348H243.956V8.07075H248V15.8889H243.956ZM226.34 35.6617C229.067 35.6617 231.236 35.495 232.847 35.1617C234.459 34.8283 235.264 34.298 235.264 33.5708C235.264 32.8435 234.459 32.3132 232.847 31.9798C231.236 31.6465 229.067 31.4798 226.34 31.4798C223.613 31.4798 221.444 31.6465 219.833 31.9798C218.222 32.3132 217.416 32.8435 217.416 33.5708C217.416 34.298 218.222 34.8283 219.833 35.1617C221.444 35.495 223.613 35.6617 226.34 35.6617ZM221.227 16.3435V12.9798H215.789V16.3435H221.227Z" fill="black"/>
<path d="M0 6.83621C0 3.12486 3.00865 0.116211 6.72 0.116211H35.28C38.9914 0.116211 42 3.12486 42 6.83621V35.3962C42 39.1076 38.9914 42.1162 35.28 42.1162H6.72C3.00865 42.1162 0 39.1076 0 35.3962V6.83621Z" fill="black"/>
<path fill-rule="evenodd" clip-rule="evenodd" d="M35.2669 10.8009C32.9545 8.3997 29.2054 8.3997 26.8931 10.8009L11.1789 27.119C11.1131 27.1934 11.0194 27.2397 10.9155 27.2397C10.7163 27.2397 10.5547 27.0686 10.5547 26.8574C10.5547 26.7502 10.5964 26.6532 10.6635 26.5838L26.3742 10.269H18.516L6.73426 22.5035C4.42191 24.9047 4.42191 28.7979 6.73426 31.1991C9.0466 33.6003 12.7957 33.6003 15.108 31.1991L30.8209 14.8823C30.8867 14.8077 30.9805 14.7611 31.0845 14.7611C31.2836 14.7611 31.445 14.9318 31.445 15.1424C31.445 15.2493 31.4035 15.3459 31.3365 15.4151L15.6269 31.731H23.484L35.2657 19.4965C37.5781 17.0953 37.5781 13.2021 35.2657 10.8009H35.2669Z" fill="#703CDE"/>
</svg>
