<svg width="67" height="19" viewBox="0 0 67 19" fill="none" xmlns="http://www.w3.org/2000/svg">
<path d="M9.42784 5.17204V6.37803H12.9198V12.12H14.4138V0.204035H12.9198V5.17204H9.42784ZM2.17384 1.44603V2.65203H7.91584C7.59184 5.55003 5.05384 7.85403 1.36384 9.07803L1.99384 10.266C6.56584 8.75403 9.49984 5.60403 9.49984 1.44603H2.17384ZM5.68384 14.766V10.914H4.20784V15.972H14.8278V14.766H5.68384Z" fill="#616161"/>
<path d="M20.1784 1.98603H18.7024V12.462H19.9624C22.5184 12.462 24.7864 12.3 27.3424 11.814L27.1444 10.554C24.7684 11.04 22.5724 11.202 20.1784 11.22V1.98603ZM29.6464 0.186035V5.51404H24.6964V6.73804H29.6464V16.368H31.1224V0.186035H29.6464Z" fill="#616161"/>
<path d="M44.825 5.96404H41.909V2.58003H44.699V1.37403H40.451V7.17003H44.825V5.96404ZM39.785 5.64003C38.705 5.87403 37.787 5.94604 36.905 5.98203V2.58003H39.605V1.37403H35.447V7.17003H36.185C37.319 7.17003 38.471 7.15203 39.929 6.82803L39.785 5.64003ZM45.473 8.66403C41.783 9.09604 37.697 9.11403 34.403 9.11403L34.619 10.356C36.041 10.356 37.625 10.356 39.281 10.302V15.81H40.757V10.23C42.341 10.14 43.961 10.014 45.563 9.76204L45.473 8.66403ZM46.445 0.204035V16.332H47.921V0.204035H46.445Z" fill="#616161"/>
<path d="M52.1916 1.93203V3.12003H58.2576C57.9516 6.95403 55.7916 10.05 51.4536 12.12L52.2456 13.326C57.6096 10.698 59.7516 6.59404 59.7516 1.93203H52.1916ZM63.0096 0.186035V16.332H64.4856V0.186035H63.0096Z" fill="#616161"/>
<path d="M0.157837 17.7H66.8436V18.6H0.157837V17.7Z" fill="#616161"/>
</svg>
