<svg width="308" height="65" viewBox="0 0 308 65" fill="none" xmlns="http://www.w3.org/2000/svg">
<path d="M40.6879 7.95641H36.9639C37.1879 6.69641 37.2999 5.43641 37.2999 4.14841H27.6679V6.02441H35.0319C34.6399 11.2884 31.9519 15.7964 26.5479 19.0164L27.8919 20.6404C32.6519 17.8124 35.3679 14.0324 36.5439 9.80441H40.6879V14.2284H36.1519V16.1044H40.6879V24.7844H42.8719V1.62841H40.6879V7.95641ZM45.7279 0.956408V26.0444H47.9119V0.956408H45.7279Z" fill="black"/>
<path d="M68.5457 3.25241H62.3297V0.816406H60.0337V3.25241H53.8457V4.98841H68.5457V3.25241ZM57.4017 9.66441C57.4017 8.34841 58.9137 7.53641 61.1817 7.53641C63.5057 7.53641 64.9897 8.34841 64.9897 9.66441C64.9897 10.9524 63.5057 11.7924 61.1817 11.7924C58.9137 11.7924 57.4017 10.9524 57.4017 9.66441ZM69.1617 14.3964C66.9777 14.7044 64.6537 14.8724 62.3297 14.9844V13.3604C65.2977 13.0804 67.1737 11.7084 67.1737 9.66441C67.1737 7.36841 64.7937 5.91241 61.1817 5.91241C57.6257 5.91241 55.2457 7.36841 55.2457 9.66441C55.2457 11.6804 57.0937 13.0524 60.0337 13.3604V15.0964C57.5417 15.1804 55.1057 15.1804 53.0057 15.1804L53.3417 17.0004C57.8497 17.0004 63.8417 16.9164 69.3017 16.0204L69.1617 14.3964ZM56.6177 20.7804H71.1497V26.0724H73.4457V18.9604H56.6177V20.7804ZM71.1497 1.01241V17.7844H73.4457V1.01241H71.1497Z" fill="black"/>
<path d="M107.297 0.984407H105.001V13.9764H107.297V0.984407ZM101.921 11.4564C98.1968 10.2244 95.5648 7.08841 95.5648 3.61641V1.71241H93.2688V3.61641C93.2688 7.25641 90.6648 10.6164 86.8848 11.9324L88.0608 13.7244C91.0288 12.6604 93.3528 10.3644 94.4448 7.48041C95.5928 10.1404 97.8888 12.2404 100.773 13.2484L101.921 11.4564ZM93.3808 23.9724V21.2844H107.325V15.2364H91.0568V17.0284H105.057V19.5484H91.1128V25.7924H108.165V23.9724H93.3808Z" fill="black"/>
<path d="M128.827 9.66441H132.019V16.8604H134.231V0.956408H132.019V7.78841H128.827V1.43241H126.643V15.9364H128.827V9.66441ZM125.635 3.95241H120.427V1.15241H118.159V3.95241H112.895V5.77241H125.663L125.635 3.95241ZM116.003 11.3724C116.003 9.83241 117.319 8.79641 119.307 8.79641C121.267 8.79641 122.611 9.83241 122.611 11.3724C122.611 12.9404 121.267 13.9764 119.307 13.9764C117.319 13.9764 116.003 12.9404 116.003 11.3724ZM124.655 11.3724C124.655 8.79641 122.471 7.08841 119.307 7.08841C116.143 7.08841 113.931 8.79641 113.931 11.3724C113.931 14.0044 116.143 15.6844 119.307 15.6844C122.471 15.6844 124.655 14.0044 124.655 11.3724ZM125.971 24.2804C122.135 24.2804 119.839 23.3284 119.839 21.6764C119.839 19.9964 122.135 19.0444 125.971 19.0444C129.779 19.0444 132.075 19.9964 132.075 21.6764C132.075 23.3284 129.779 24.2804 125.971 24.2804ZM125.971 17.2804C120.735 17.2804 117.571 18.8484 117.571 21.6764C117.571 24.4764 120.735 26.0444 125.971 26.0444C131.207 26.0444 134.371 24.4764 134.371 21.6764C134.371 18.8484 131.207 17.2804 125.971 17.2804Z" fill="black"/>
<path d="M159.542 14.5084C159.71 13.6404 159.822 12.6884 159.822 11.6524C159.822 10.5044 159.682 9.44041 159.458 8.46041H165.254V14.5084H159.542ZM153.578 18.3724C151.17 18.3724 149.49 15.7404 149.49 11.6524C149.49 7.59241 151.17 4.96041 153.578 4.96041C155.958 4.96041 157.666 7.59241 157.666 11.6524C157.666 15.7404 155.958 18.3724 153.578 18.3724ZM165.254 0.956408V6.58441H158.814C157.75 4.23241 155.902 2.88841 153.578 2.88841C149.91 2.88841 147.306 6.30441 147.306 11.6524C147.306 17.0004 149.91 20.4164 153.578 20.4164C155.986 20.4164 157.946 18.9324 158.982 16.3844H165.254V26.1284H167.55V0.956408H165.254Z" fill="black"/>
<path d="M190.76 10.9524H178.3V7.25641H190.76V10.9524ZM193.056 1.96441H190.76V5.40841H178.3V1.96441H176.032V12.8284H193.056V1.96441ZM195.94 15.8524H173.148V17.7004H183.34V26.1004H185.636V17.7004H195.94V15.8524Z" fill="black"/>
<path d="M205.177 18.4284C203.161 18.4284 201.901 15.8804 201.901 11.7644C201.901 7.73241 203.161 5.18441 205.177 5.18441C207.137 5.18441 208.425 7.73241 208.425 11.7644C208.425 15.8804 207.137 18.4284 205.177 18.4284ZM213.661 10.7284H210.497C210.217 5.99641 208.201 3.05641 205.177 3.05641C201.901 3.05641 199.801 6.41641 199.801 11.7644C199.801 17.1964 201.901 20.5564 205.177 20.5564C208.257 20.5564 210.301 17.5324 210.497 12.6044H213.661V24.8404H215.845V1.51641H213.661V10.7284ZM218.645 0.956408V26.0724H220.829V0.956408H218.645Z" fill="black"/>
<path d="M236.341 5.46441H240.401V3.58841H234.073V19.4924H235.193C236.705 19.4924 238.553 19.4644 240.905 18.9604L240.653 17.0564C239.029 17.3924 237.573 17.5324 236.341 17.5604V5.46441ZM244.069 5.46441H248.465V3.58841H241.801V19.4924H243.033C245.609 19.4924 247.345 19.4364 249.473 18.9044L249.249 17.0004C247.541 17.4204 246.001 17.5604 244.069 17.5884V5.46441ZM256.641 10.8124H253.029V0.928407H250.733V26.0724H253.029V12.7444H256.641V10.8124Z" fill="black"/>
<path d="M277.218 6.33241H262.546V12.5764H280.018V10.7844H264.814V8.04041H279.486V1.79641H262.49V3.58841H277.218V6.33241ZM264.898 18.6804H262.602V25.5124H280.018V23.6364H264.898V18.6804ZM259.606 14.8724V16.7484H282.398V14.8724H259.606Z" fill="black"/>
<path d="M21.3571 38.6204H17.6331V57.2684H21.3571V38.6204ZM16.0091 51.2484C11.8371 49.8764 9.96107 46.7124 9.96107 43.6884V43.3804H15.0571V40.4684H1.02907V43.3804H6.20907V43.6884C6.20907 46.9084 4.33307 50.2964 0.0490723 51.6404L1.92507 54.5244C4.92107 53.5444 6.99307 51.5564 8.14107 49.0364C9.31707 51.3324 11.2771 53.1804 14.1331 54.0764L16.0091 51.2484ZM7.88907 61.0204V55.5884H4.19307V63.9604H22.0011V61.0204H7.88907Z" fill="black"/>
<path d="M41.7109 50.9684C37.5669 49.8484 35.7189 47.0484 35.7189 44.3044V44.1924H40.8149V41.3084H35.7189V38.5364H32.0229V41.3084H26.9829V44.1924H32.0229V44.3044C32.0229 47.2164 30.2309 50.1844 26.0869 51.3884L27.8229 54.2724C30.7909 53.4044 32.8069 51.5844 33.9549 49.2604C35.1029 51.3604 37.1189 53.0404 40.0309 53.8524L41.7109 50.9684ZM30.2309 58.3044H44.1189V64.4364H47.8149V55.3364H30.2309V58.3044ZM44.1189 38.6204V45.5924H39.8909V48.5884H44.1189V54.2164H47.8149V38.6204H44.1189Z" fill="black"/>
<path d="M69.4287 42.7924H55.4847V48.8684H73.5167V46.3764H59.1247V45.0884H73.0687V39.0404H55.4287V41.5324H69.4287V42.7924ZM66.5167 54.1884H61.9807V52.7044H66.5167V54.1884ZM75.9527 52.7044V50.0444H52.5727V52.7044H58.3127V54.1884H55.2047V56.6804H69.4847V57.9964H55.2327V64.2124H73.8527V61.7484H58.9007V60.3204H73.1527V54.1884H70.2127V52.7044H75.9527Z" fill="black"/>
<path d="M101.627 50.0444C97.5672 48.7844 95.8312 45.7604 95.8312 42.6524V40.0204H92.0792V42.3444C92.0792 45.8444 90.3432 49.2884 86.0312 50.7164L87.9632 53.6284C90.9032 52.5924 92.8912 50.6044 94.0112 48.0844C95.1032 50.2684 96.9792 52.0044 99.6952 52.9004L101.627 50.0444ZM98.2952 61.5524C94.9912 61.5524 93.2272 60.8804 93.2272 59.4244C93.2272 57.9964 94.9912 57.3244 98.2952 57.3244C101.571 57.3244 103.335 57.9964 103.335 59.4244C103.335 60.8804 101.571 61.5524 98.2952 61.5524ZM98.2952 54.4684C92.9192 54.4684 89.5592 56.3164 89.5592 59.4244C89.5592 62.5604 92.9192 64.4084 98.2952 64.4084C103.643 64.4084 107.003 62.5604 107.003 59.4244C107.003 56.3164 103.643 54.4684 98.2952 54.4684ZM106.723 44.6124V38.6484H103.027V53.8804H106.723V47.6644H110.139V44.6124H106.723Z" fill="black"/>
<path d="M134.889 46.2084C129.121 45.4804 126.293 42.5124 126.293 39.8244V39.0684H122.485V39.8244C122.485 42.5404 119.657 45.4804 113.889 46.2084L115.233 49.0924C119.601 48.4764 122.765 46.6004 124.389 44.1084C126.041 46.6004 129.177 48.4764 133.573 49.0924L134.889 46.2084ZM124.333 61.6644C120.889 61.6644 119.125 61.0764 119.125 59.7604C119.125 58.4444 120.889 57.8564 124.333 57.8564C127.777 57.8564 129.541 58.4444 129.541 59.7604C129.541 61.0764 127.777 61.6644 124.333 61.6644ZM124.333 55.0844C118.761 55.0844 115.401 56.7644 115.401 59.7604C115.401 62.7564 118.761 64.4364 124.333 64.4364C129.905 64.4364 133.293 62.7564 133.293 59.7604C133.293 56.7644 129.905 55.0844 124.333 55.0844ZM112.741 50.4644V53.3764H136.037V50.4644H112.741Z" fill="black"/>
<path d="M150.707 39.9084C145.303 39.9084 141.103 42.8764 141.103 47.3844C141.103 51.8644 145.303 54.8324 150.707 54.8324C156.139 54.8324 160.339 51.8644 160.339 47.3844C160.339 42.8764 156.139 39.9084 150.707 39.9084ZM150.707 42.9324C154.235 42.9324 156.727 44.5844 156.727 47.3844C156.727 50.1284 154.235 51.8084 150.707 51.8084C147.207 51.8084 144.715 50.1284 144.715 47.3844C144.715 44.5844 147.207 42.9324 150.707 42.9324ZM139.059 58.3044V61.3284H162.411V58.3044H139.059Z" fill="black"/>
<path d="M178.873 58.5564V54.7204H186.685V51.7524H171.733V48.8684H186.097V40.2724H168.037V43.2124H182.457V45.9844H168.065V54.7204H175.177V58.5564H165.377V61.5804H188.729V58.5564H178.873Z" fill="black"/>
<path d="M201.803 58.8924H216.027V64.4364H219.723V55.9524H201.803V58.8924ZM205.723 42.5124H215.943V45.8444H205.723V42.5124ZM212.695 51.1644V48.7564H219.583V39.6284H202.083V48.7564H208.999V51.1644H199.227V54.1044H222.523V51.1644H212.695Z" fill="black"/>
<path d="M234.953 53.7684H239.405V58.6124H234.953V53.7684ZM234.533 43.6044H239.797V50.8564H234.533V43.6044ZM243.073 58.6124V53.7684H246.909V50.8564H243.465V43.6044H246.965V40.6644H227.365V43.6044H230.865V50.8564H227.505V53.7684H231.285V58.6124H225.517V61.5804H248.897V58.6124H243.073Z" fill="black"/>
<path d="M274.011 47.1324C271.071 47.7484 268.383 47.9444 263.959 47.9724V42.8484H271.827V39.9644H260.291V50.8844H262.447C267.935 50.8844 271.043 50.7444 274.375 50.0164L274.011 47.1324ZM266.367 59.5924H279.695V52.4804H262.671V55.3924H276.055V56.9044H262.699V64.1004H280.451V61.2164H266.367V59.5924ZM279.695 43.4924V38.5924H275.999V51.4164H279.695V46.4884H283.111V43.4924H279.695Z" fill="black"/>
<path d="M303.577 53.7404H307.273V38.6204H303.577V43.3244H298.873V46.3204H303.577V53.7404ZM301.225 50.0164C297.137 48.7004 295.457 45.5644 295.457 42.0924V39.9644H291.705V42.2604C291.705 45.8164 289.885 49.3164 285.489 50.7164L287.421 53.6844C290.473 52.6484 292.517 50.5764 293.665 47.9444C294.757 50.2404 296.577 52.0044 299.293 52.9284L301.225 50.0164ZM298.565 61.5804C295.177 61.5804 293.413 60.8804 293.413 59.4244C293.413 57.9404 295.177 57.2404 298.565 57.2404C301.925 57.2404 303.689 57.9404 303.689 59.4244C303.689 60.8804 301.925 61.5804 298.565 61.5804ZM298.565 54.3844C293.077 54.3844 289.717 56.2324 289.717 59.4244C289.717 62.5604 293.077 64.4084 298.565 64.4084C304.025 64.4084 307.385 62.5604 307.385 59.4244C307.385 56.2324 304.025 54.3844 298.565 54.3844Z" fill="black"/>
</svg>
