<svg width="250" height="67" viewBox="0 0 250 67" fill="none" xmlns="http://www.w3.org/2000/svg">
<path d="M5.28461 9.10374H18.1086V13.7237H5.28461V9.10374ZM12.8446 20.9757V15.5717H20.3486V2.74773H18.1086V7.22773H5.28461V2.74773H3.01661V15.5717H10.5206V20.9757H0.328613V22.8517H23.0926V20.9757H12.8446Z" fill="black"/>
<path d="M39.8344 11.6797C40.4784 8.37573 40.4784 5.88373 40.4784 4.23173V2.91574H27.9904V4.79173H38.2384C38.2384 6.38773 38.1544 8.54374 37.5664 11.4277L39.8344 11.6797ZM42.2144 13.1917C39.6664 13.5277 36.8104 13.7517 34.0664 13.8637V8.51573H31.7984V13.9477C29.8944 13.9757 28.0744 14.0037 26.4784 14.0037L26.7024 15.8797C31.1544 15.8797 37.1744 15.7397 42.3824 14.8717L42.2144 13.1917ZM32.6104 18.1477H30.3144V25.5117H47.0024V23.6357H32.6104V18.1477ZM46.1904 9.13174V0.955735H43.8944V19.8837H46.1904V11.0357H49.7744V9.13174H46.1904Z" fill="black"/>
<path d="M73.5162 0.955735H71.2202V19.7437H73.5162V0.955735ZM69.2042 14.0037C67.0482 14.2557 64.7802 14.3957 62.4562 14.5077V11.0357H67.4402V9.18774H57.6122V4.45574H67.2722V2.57973H55.3162V11.0357H60.1602V14.5917C57.6962 14.6757 55.2602 14.7037 53.0762 14.7037L53.4122 16.5797C58.0882 16.5797 64.0522 16.4117 69.3722 15.6557L69.2042 14.0037ZM59.5722 23.6357V18.5117H57.2762V25.5117H74.3562V23.6357H59.5722Z" fill="black"/>
<path d="M89.9794 5.88373H97.1474V4.03574H87.7114V20.0237H89.3354C93.3394 20.0237 95.7754 19.9117 98.6314 19.2957L98.4074 17.4197C95.7754 17.9797 93.5354 18.0917 89.9794 18.1197V5.88373ZM100.871 10.5317H95.4674V12.4357H100.871V24.8117H103.027V1.57173H100.871V10.5317ZM105.911 0.955735V26.0717H108.095V0.955735H105.911Z" fill="black"/>
<path d="M131.361 0.955735V26.1277H133.657V0.955735H131.361ZM120.413 2.88774C116.689 2.88774 114.029 6.30374 114.029 11.6517C114.029 16.9997 116.689 20.4157 120.413 20.4157C124.137 20.4157 126.797 16.9997 126.797 11.6517C126.797 6.30374 124.137 2.88774 120.413 2.88774ZM120.413 4.95973C122.849 4.95973 124.585 7.59174 124.585 11.6517C124.585 15.7397 122.849 18.3717 120.413 18.3717C117.949 18.3717 116.213 15.7397 116.213 11.6517C116.213 7.59174 117.949 4.95973 120.413 4.95973Z" fill="black"/>
<path d="M142.867 12.1557H151.099V10.3077H142.867V5.12773H152.191V3.22373H140.571V20.0517H142.503C147.291 20.0517 150.343 19.9117 153.983 19.2677L153.731 17.3917C150.315 18.0077 147.403 18.1757 142.867 18.1757V12.1557ZM157.819 0.927734V10.4197H152.639V12.3237H157.819V26.0997H160.115V0.927734H157.819Z" fill="black"/>
<path d="M183.325 5.35174H168.653V10.7277H186.041V9.07573H170.921V6.91974H185.593V1.68373H168.597V3.30774H183.325V5.35174ZM170.781 21.7597H185.677V16.4117H168.457V18.0637H183.409V20.1637H168.513V25.7357H186.461V24.0837H170.781V21.7597ZM165.741 12.6317V14.3677H188.505V12.6317H165.741Z" fill="black"/>
<path d="M210.904 24.3077C206.872 24.3077 204.604 23.5237 204.604 22.0117C204.604 20.5277 206.872 19.7157 210.904 19.7157C214.964 19.7157 217.204 20.5277 217.204 22.0117C217.204 23.5237 214.964 24.3077 210.904 24.3077ZM210.904 18.0077C205.444 18.0077 202.308 19.4077 202.308 22.0117C202.308 24.6437 205.444 26.0437 210.904 26.0437C216.364 26.0437 219.5 24.6437 219.5 22.0117C219.5 19.4077 216.364 18.0077 210.904 18.0077ZM212.052 14.2557V11.7917H219.612V9.99974H204.828V7.53574H218.8V5.79974H204.828V3.47573H219.472V1.68373H202.532V11.7917H209.756V14.2557H199.536V16.1037H222.272V14.2557H212.052Z" fill="black"/>
<path d="M240.778 4.03574H234.506V0.955735H232.21V4.03574H225.966V5.88373H240.778V4.03574ZM229.55 11.9317C229.55 10.1957 231.09 9.07573 233.358 9.07573C235.626 9.07573 237.194 10.1957 237.194 11.9317C237.194 13.6957 235.626 14.8157 233.358 14.8157C231.09 14.8157 229.55 13.6957 229.55 11.9317ZM239.378 11.9317C239.378 9.13173 236.914 7.28374 233.358 7.28374C229.802 7.28374 227.366 9.13173 227.366 11.9317C227.366 14.7597 229.802 16.6077 233.358 16.6077C236.914 16.6077 239.378 14.7597 239.378 11.9317ZM232.042 18.3157H229.746V25.5117H246.49V23.6357H232.042V18.3157ZM245.37 9.24374V0.955735H243.074V19.7997H245.37V11.1757H249.066V9.24374H245.37Z" fill="black"/>
<path d="M37.3802 47.1317C34.4402 47.7477 31.7522 47.9437 27.3282 47.9717V42.8477H35.1962V39.9637H23.6602V50.8837H25.8162C31.3042 50.8837 34.4122 50.7437 37.7442 50.0157L37.3802 47.1317ZM29.7362 59.5917H43.0642V52.4797H26.0402V55.3917H39.4242V56.9037H26.0682V64.0997H43.8202V61.2157H29.7362V59.5917ZM43.0642 43.4917V38.5917H39.3682V51.4157H43.0642V46.4877H46.4802V43.4917H43.0642Z" fill="black"/>
<path d="M66.946 53.7397H70.642V38.6197H66.946V43.3237H62.242V46.3197H66.946V53.7397ZM64.594 50.0157C60.506 48.6997 58.826 45.5637 58.826 42.0917V39.9637H55.074V42.2597C55.074 45.8157 53.254 49.3157 48.858 50.7157L50.79 53.6837C53.842 52.6477 55.886 50.5757 57.034 47.9437C58.126 50.2397 59.946 52.0037 62.662 52.9277L64.594 50.0157ZM61.934 61.5797C58.546 61.5797 56.782 60.8797 56.782 59.4237C56.782 57.9397 58.546 57.2397 61.934 57.2397C65.294 57.2397 67.058 57.9397 67.058 59.4237C67.058 60.8797 65.294 61.5797 61.934 61.5797ZM61.934 54.3837C56.446 54.3837 53.086 56.2317 53.086 59.4237C53.086 62.5597 56.446 64.4077 61.934 64.4077C67.394 64.4077 70.754 62.5597 70.754 59.4237C70.754 56.2317 67.394 54.3837 61.934 54.3837Z" fill="black"/>
<path d="M79.227 58.7458L79.1997 61.2478C79.1997 62.223 78.9582 63.212 78.4751 64.2146C77.992 65.2172 77.3677 66.0466 76.602 66.7029L74.688 65.6501C74.9341 65.24 75.1619 64.8253 75.3716 64.406C75.5903 63.9867 75.7635 63.531 75.8911 63.0388C76.0278 62.5557 76.0962 62.0134 76.0962 61.4118V58.7458H79.227Z" fill="black"/>
<path d="M91.3423 40.9437V58.2757H103.746V40.9437H91.3423ZM100.106 43.8557V55.3637H94.9823V43.8557H100.106ZM107.75 38.6197V64.4637H111.446V38.6197H107.75Z" fill="black"/>
<path d="M131.016 47.1317C128.076 47.7477 125.388 47.9437 120.964 47.9717V42.8477H128.832V39.9637H117.296V50.8837H119.452C124.94 50.8837 128.048 50.7437 131.38 50.0157L131.016 47.1317ZM123.372 59.5917H136.7V52.4797H119.676V55.3917H133.06V56.9037H119.704V64.0997H137.456V61.2157H123.372V59.5917ZM136.7 43.4917V38.5917H133.004V51.4157H136.7V46.4877H140.116V43.4917H136.7Z" fill="black"/>
<path d="M160.582 53.7397H164.278V38.6197H160.582V43.3237H155.878V46.3197H160.582V53.7397ZM158.23 50.0157C154.142 48.6997 152.462 45.5637 152.462 42.0917V39.9637H148.71V42.2597C148.71 45.8157 146.89 49.3157 142.494 50.7157L144.426 53.6837C147.478 52.6477 149.522 50.5757 150.67 47.9437C151.762 50.2397 153.582 52.0037 156.298 52.9277L158.23 50.0157ZM155.57 61.5797C152.182 61.5797 150.418 60.8797 150.418 59.4237C150.418 57.9397 152.182 57.2397 155.57 57.2397C158.93 57.2397 160.694 57.9397 160.694 59.4237C160.694 60.8797 158.93 61.5797 155.57 61.5797ZM155.57 54.3837C150.082 54.3837 146.722 56.2317 146.722 59.4237C146.722 62.5597 150.082 64.4077 155.57 64.4077C161.03 64.4077 164.39 62.5597 164.39 59.4237C164.39 56.2317 161.03 54.3837 155.57 54.3837Z" fill="black"/>
<path d="M191.548 40.5237H186.088V38.3957H182.392V40.5237H176.904V43.1557H191.548V40.5237ZM181.44 47.6077C181.44 46.6557 182.504 46.1797 184.24 46.1797C185.976 46.1797 187.012 46.6557 187.012 47.6077C187.012 48.5597 185.976 49.0637 184.24 49.0637C182.504 49.0637 181.44 48.5597 181.44 47.6077ZM192.192 52.1717C190.232 52.3957 188.188 52.5637 186.088 52.6477V51.3317C188.832 50.9117 190.512 49.5677 190.512 47.6077C190.512 45.2557 188.048 43.7997 184.24 43.7997C180.432 43.7997 177.94 45.2557 177.94 47.6077C177.94 49.5677 179.648 50.9117 182.392 51.3317V52.7877C180.208 52.8437 178.108 52.8437 176.26 52.8437L176.652 55.6717C181.188 55.6717 187.068 55.6157 192.472 54.6637L192.192 52.1717ZM179.536 60.0677H193.312V64.4357H197.008V57.2117H179.536V60.0677ZM200.256 46.0117H197.008V38.6197H193.312V56.2037H197.008V49.0357H200.256V46.0117Z" fill="black"/>
<path d="M224.306 38.6477H220.582V57.1557H224.306V38.6477ZM206.862 46.8237C206.862 44.6957 208.374 43.4637 210.278 43.4637C212.21 43.4637 213.666 44.6957 213.666 46.8237C213.666 48.8957 212.21 50.1557 210.278 50.1557C208.374 50.1557 206.862 48.8957 206.862 46.8237ZM217.278 46.8237C217.278 43.0157 214.226 40.2717 210.278 40.2717C206.33 40.2717 203.25 43.0157 203.25 46.8237C203.25 50.5757 206.33 53.3477 210.278 53.3477C214.226 53.3477 217.278 50.5757 217.278 46.8237ZM210.838 61.0197V55.3357H207.142V63.9597H224.95V61.0197H210.838Z" fill="black"/>
</svg>
