<svg width="209" height="64" viewBox="0 0 209 64" fill="none" xmlns="http://www.w3.org/2000/svg">
<path d="M81.8209 3.17578V1.78125H79.606V3.17578C79.606 6.66211 75.1627 9.56055 70.774 10.1758L71.649 11.9258C75.4361 11.2969 79.1685 9.23242 80.7271 6.22461C82.2857 9.20508 86.0318 11.2969 89.8052 11.9258L90.6802 10.1758C86.2916 9.56055 81.8345 6.60742 81.8209 3.17578ZM69.6255 16.4102H79.606V25.2148H81.7115V16.4102H91.774V14.6055H69.6255V16.4102ZM114.537 0.90625H112.377V7.25H107.482V9.02734H112.377V15.3984H114.537V0.90625ZM94.4941 13.457L95.6152 15.1797C98.5137 14.0723 100.77 11.8027 101.809 8.95898C102.861 11.4609 104.98 13.5117 107.701 14.4961L108.822 12.7734C105.268 11.5566 102.834 8.53516 102.834 5.36328V4.48828H108.275V2.68359H95.1777V4.48828H100.674V5.39062C100.674 8.86328 98.1035 12.1582 94.4941 13.457ZM98.3223 20.6758C98.3086 23.5469 101.412 25.1875 106.471 25.2148C111.516 25.1875 114.619 23.5469 114.619 20.6758C114.619 17.8184 111.516 16.1504 106.471 16.1641C101.412 16.1504 98.3086 17.8184 98.3223 20.6758ZM100.455 20.6758C100.441 18.8984 102.738 17.832 106.471 17.832C110.189 17.832 112.486 18.8984 112.486 20.6758C112.486 22.4395 110.189 23.5059 106.471 23.4922C102.738 23.5059 100.441 22.4395 100.455 20.6758ZM141.292 13.7305H119.144V15.4805H141.292V13.7305ZM121.605 6.59375C121.605 9.61523 124.941 11.4336 130.218 11.4336C135.441 11.4336 138.79 9.61523 138.804 6.59375C138.79 3.54492 135.441 1.75391 130.218 1.78125C124.941 1.75391 121.605 3.54492 121.605 6.59375ZM122.015 24.6953H138.831V22.8906H124.175V17.6133H122.015V24.6953ZM123.82 6.59375C123.806 4.69336 126.294 3.50391 130.218 3.50391C134.115 3.50391 136.603 4.69336 136.617 6.59375C136.603 8.52148 134.115 9.68359 130.218 9.68359C126.294 9.68359 123.806 8.52148 123.82 6.59375ZM19.855 38.7148H16.7652V56.543H19.855V48.3672H23.3003V45.8242H19.855V38.7148ZM0.276878 51.5664L1.53469 53.9727C8.84914 51.8535 13.1421 47.1641 13.1284 40.6016H1.31594V43.0898H9.80618C9.28664 46.8496 5.93703 49.9258 0.276878 51.5664ZM3.96828 62.9414H20.7847V60.4805H7.05813V54.7109H3.96828V62.9414ZM45.8173 38.7148H42.7822V43.1992H39.2822V45.6602H42.7822V48.0117H39.2822V50.5273H42.7822V56.9805H45.8173V38.7148ZM25.1455 51.2109L25.4736 53.7266C29.4111 53.7266 34.8935 53.6309 39.583 52.8789L39.4463 50.6641C38.5713 50.7598 37.6689 50.8418 36.7392 50.9102V43.0078H38.9267V40.5742H25.7744V43.0078H27.9345V51.1973C26.9502 51.2109 26.0068 51.2109 25.1455 51.2109ZM29.5752 62.9414H46.4463V60.4805H32.6377V55.5586H29.5752V62.9414ZM30.8877 51.1562V43.0078H33.8134V51.0605C32.8291 51.1016 31.8447 51.1426 30.8877 51.1562ZM69.3734 38.7422H66.3383V57.1992H69.3734V49.0234H72.8188V46.5078H69.3734V38.7422ZM49.9047 43.9102H64.5609V41.4766H58.7641V38.7148H55.7289V41.4766H49.9047V43.9102ZM51.1625 49.6523C51.1625 52.4824 53.6371 54.3281 57.2328 54.3281C60.8012 54.3281 63.2621 52.4824 63.2758 49.6523C63.2621 46.8086 60.8012 44.9219 57.2328 44.9219C53.6371 44.9219 51.1625 46.8086 51.1625 49.6523ZM53.5414 62.9414H70.3578V60.4805H56.5766V55.75H53.5414V62.9414ZM54.1156 49.6523C54.102 48.1484 55.3598 47.2734 57.2328 47.2734C59.1059 47.2734 60.3773 48.1484 60.3773 49.6523C60.3773 51.1426 59.1059 51.9902 57.2328 51.9766C55.3598 51.9902 54.102 51.1426 54.1156 49.6523ZM102.568 38.7148H99.5598V47.6562H94.9114V50.1172H99.5598V63.4609H102.568V38.7148ZM82.9622 57.7734H84.9036C89.3196 57.7461 92.4915 57.6094 96.0872 57.0625L95.7864 54.6016C92.6009 55.1074 89.7845 55.2441 86.0247 55.2578V50.1719H93.5442V47.7656H86.0247V43.3359H94.5286V40.8477H82.9622V57.7734ZM127.135 38.7148H124.1V63.4336H127.135V38.7148ZM106.846 56.4062L108.487 58.7578C111.372 57.5 113.505 54.8613 114.612 51.7031C115.747 54.6836 117.88 57.1445 120.71 58.3477L122.378 56.0234C118.385 54.3555 116.075 50.3223 116.089 46.5625V45.2773H121.393V42.8438H116.061V39.2344H113.053V42.8438H107.612V45.2773H113.053V46.5625C113.053 50.5137 110.784 54.6699 106.846 56.4062ZM153.945 58.0469H144.102V54.0273H151.84V51.5391H137.074V48.3398H151.266V40.4102H133.985V42.8711H148.258V45.9336H134.039V54.0273H141.094V58.0469H131.36V60.5625H153.945V58.0469ZM176.202 40.7656V39.5078H173.003V40.7656C173.003 43.8965 169.53 47.0273 164.308 47.7109L165.511 50.1719C169.667 49.543 172.989 47.4785 174.603 44.6895C176.216 47.4785 179.552 49.543 183.749 50.1719L184.952 47.7109C179.675 47.0273 176.189 43.8691 176.202 40.7656ZM163.323 54.8203H173.03V63.4336H176.038V54.8203H185.855V52.3047H163.323V54.8203ZM208.782 38.7148H205.747V44.8672H201.536V47.3555H205.747V53.3984H208.782V38.7148ZM188 50.9375L189.586 53.3438C192.526 52.3047 194.59 50.1719 195.67 47.5469C196.764 49.8711 198.706 51.7578 201.454 52.6875L202.985 50.2812C199.157 48.9961 197.161 45.9609 197.161 42.9531V42.7891H202.274V40.3281H188.93V42.7891H194.071V42.9805C194.071 46.248 191.979 49.5703 188 50.9375ZM192.02 58.7305C191.993 61.6973 195.206 63.4199 200.415 63.4336C205.651 63.4199 208.85 61.6973 208.864 58.7305C208.85 55.7637 205.651 54.0273 200.415 54.0273C195.206 54.0273 191.993 55.7637 192.02 58.7305ZM195.028 58.7305C195.014 57.1855 196.983 56.3516 200.415 56.3516C203.874 56.3516 205.829 57.1855 205.829 58.7305C205.829 60.2617 203.874 61.0957 200.415 61.082C196.983 61.0957 195.014 60.2617 195.028 58.7305Z" fill="black"/>
</svg>
