<svg width="383" height="398" viewBox="0 0 383 398" fill="none" xmlns="http://www.w3.org/2000/svg">
<g filter="url(#filter0_dd_644_2150)">
<rect x="20" y="12" width="343" height="358" rx="10" fill="white"/>
</g>
<path d="M148.963 82.766H154.529V81.292H147.181V93.766H148.479C151.427 93.766 153.429 93.678 155.783 93.172L155.629 91.676C153.473 92.138 151.603 92.248 148.963 92.27V82.766ZM161.503 78.894V86.814H158.709V79.334H157.015V97.638H158.709V88.288H161.503V98.628H163.241V78.894H161.503ZM178.633 87.54C176.059 88.046 173.815 88.2 169.921 88.2V82.062H176.851V80.61H168.117V89.674H169.657C173.793 89.674 176.125 89.542 178.831 88.992L178.633 87.54ZM172.055 91.742H170.251V98.188H183.407V96.714H172.055V91.742ZM182.527 84.746V78.894H180.723V93.172H182.527V86.242H185.453V84.746H182.527ZM192.837 92.556C191.297 92.556 190.219 91.302 190.219 89.542C190.219 87.826 191.297 86.572 192.837 86.572C194.355 86.572 195.455 87.826 195.455 89.542C195.455 91.302 194.355 92.556 192.837 92.556ZM192.837 85.054C190.395 85.054 188.613 86.902 188.613 89.542C188.613 92.226 190.395 94.052 192.837 94.052C195.279 94.052 197.061 92.226 197.061 89.542C197.061 86.902 195.279 85.054 192.837 85.054ZM193.717 79.466H191.935V82.26H187.931V83.734H197.721V82.26H193.717V79.466ZM202.935 78.872V87.21H200.405V79.334H198.711V97.66H200.405V88.684H202.935V98.606H204.673V78.872H202.935ZM214.873 89.96C215.687 90.158 216.633 90.268 217.601 90.268C218.591 90.268 219.537 90.158 220.373 89.96V94.602H214.873V89.96ZM217.601 81.556C220.769 81.556 223.057 83.008 223.057 85.208C223.057 87.408 220.769 88.86 217.601 88.86C214.433 88.86 212.167 87.408 212.167 85.208C212.167 83.008 214.433 81.556 217.601 81.556ZM222.177 94.602V89.256C223.805 88.398 224.773 86.99 224.773 85.208C224.773 82.128 221.803 80.148 217.601 80.148C213.421 80.148 210.429 82.128 210.429 85.208C210.429 86.99 211.419 88.42 213.069 89.278V94.602H208.669V96.098H226.599V94.602H222.177ZM231.39 81.3594L231.314 92.6387H230.133L230.058 81.3594H231.39ZM229.918 96.2373C229.918 95.9938 229.993 95.7897 230.144 95.625C230.301 95.4531 230.52 95.3672 230.799 95.3672C231.071 95.3672 231.286 95.4531 231.443 95.625C231.608 95.7897 231.69 95.9938 231.69 96.2373C231.69 96.4736 231.608 96.6777 231.443 96.8496C231.286 97.0143 231.071 97.0967 230.799 97.0967C230.52 97.0967 230.301 97.0143 230.144 96.8496C229.993 96.6777 229.918 96.4736 229.918 96.2373ZM236.853 81.3594L236.777 92.6387H235.596L235.521 81.3594H236.853ZM235.381 96.2373C235.381 95.9938 235.456 95.7897 235.606 95.625C235.764 95.4531 235.982 95.3672 236.262 95.3672C236.534 95.3672 236.749 95.4531 236.906 95.625C237.071 95.7897 237.153 95.9938 237.153 96.2373C237.153 96.4736 237.071 96.6777 236.906 96.8496C236.749 97.0143 236.534 97.0967 236.262 97.0967C235.982 97.0967 235.764 97.0143 235.606 96.8496C235.456 96.6777 235.381 96.4736 235.381 96.2373ZM49.2632 125.854H61.1212V130.65H62.9252V124.402H49.2632V125.854ZM51.3312 113.138H61.0552V116.966H51.3312V113.138ZM57.1172 120.904V118.396H62.8372V111.708H49.5712V118.396H55.3132V120.904H47.2612V122.356H65.1252V120.904H57.1172ZM74.7755 122.07H79.0655V126.756H74.7755V122.07ZM74.4675 114.172H79.3735V120.618H74.4675V114.172ZM80.8695 126.756V122.07H84.2135V120.618H81.1775V114.172H84.2355V112.72H69.6055V114.172H72.6635V120.618H69.6495V122.07H72.9715V126.756H67.9995V128.23H85.9075V126.756H80.8695ZM102.576 114.348H91.0478V118.572H104.71V117.274H92.8298V115.58H104.358V111.466H91.0038V112.742H102.576V114.348ZM92.7198 127.24H104.424V123.038H90.8938V124.336H102.642V125.986H90.9378V130.364H105.04V129.066H92.7198V127.24ZM88.7598 120.068V121.432H106.646V120.068H88.7598ZM129.713 110.894V130.672H131.517V110.894H129.713ZM121.111 112.412C118.185 112.412 116.095 115.096 116.095 119.298C116.095 123.5 118.185 126.184 121.111 126.184C124.037 126.184 126.127 123.5 126.127 119.298C126.127 115.096 124.037 112.412 121.111 112.412ZM121.111 114.04C123.025 114.04 124.389 116.108 124.389 119.298C124.389 122.51 123.025 124.578 121.111 124.578C119.175 124.578 117.811 122.51 117.811 119.298C117.811 116.108 119.175 114.04 121.111 114.04ZM150.011 115.448H138.285V120.838H152.277V119.364H140.089V116.834H151.837V111.686H138.219V113.116H150.011V115.448ZM153.993 122.862H136.085V124.336H144.115V130.65H145.919V124.336H153.993V122.862ZM172.664 116.834H161.048V111.62H159.244V118.308H172.664V116.834ZM160.916 124.38H159.112V130.144H172.774V128.67H160.916V124.38ZM156.824 120.948V122.4H174.71V120.948H156.824ZM180.092 114.766H185.724V113.314H178.31V125.876H179.586C182.732 125.876 184.646 125.788 186.89 125.304L186.714 123.83C184.646 124.27 182.886 124.358 180.092 124.38V114.766ZM188.65 118.418H184.404V119.914H188.65V129.638H190.344V111.378H188.65V118.418ZM192.61 110.894V130.628H194.326V110.894H192.61ZM218.625 122.576H220.451V110.916H218.625V115.096H214.335V116.57H218.625V122.576ZM215.765 120.244C212.883 119.232 210.969 116.79 210.969 113.974V112.016H209.165V114.04C209.165 117.054 207.207 119.694 204.171 120.772L205.117 122.246C207.493 121.344 209.275 119.562 210.111 117.23C210.969 119.276 212.641 120.838 214.797 121.652L215.765 120.244ZM213.939 129.176C210.969 129.176 209.165 128.318 209.165 126.888C209.165 125.436 210.969 124.578 213.939 124.578C216.909 124.578 218.713 125.436 218.713 126.888C218.713 128.318 216.909 129.176 213.939 129.176ZM213.939 123.17C209.891 123.17 207.361 124.512 207.361 126.888C207.361 129.242 209.891 130.606 213.939 130.606C217.987 130.606 220.517 129.242 220.517 126.888C220.517 124.512 217.987 123.17 213.939 123.17ZM238.726 113.578C238.726 115.118 238.726 116.57 238.198 118.594L239.958 118.792C240.508 116.768 240.508 115.162 240.508 113.578V111.906H227.066V113.358H238.726V113.578ZM233.776 129.198C230.696 129.198 228.716 128.362 228.716 126.998C228.716 125.59 230.696 124.754 233.776 124.754C236.878 124.754 238.858 125.59 238.858 126.998C238.858 128.362 236.878 129.198 233.776 129.198ZM233.776 123.368C229.574 123.368 226.912 124.71 226.912 126.998C226.912 129.242 229.574 130.606 233.776 130.606C237.978 130.606 240.662 129.242 240.662 126.998C240.662 124.71 237.978 123.368 233.776 123.368ZM234.062 120.09V116.306H232.258V120.09H224.976V121.542H242.73V120.09H234.062ZM258.1 117.802H260.586V123.126H262.324V110.916H260.586V116.328H258.1V111.202H256.406V122.818H258.1V117.802ZM255.592 113.16H251.478V111.004H249.696V113.16H245.56V114.59H255.57L255.592 113.16ZM250.598 116.922C252.138 116.922 253.194 117.736 253.194 118.968C253.194 120.2 252.138 120.992 250.598 120.992C249.036 120.992 248.002 120.2 248.002 118.968C248.002 117.736 249.036 116.922 250.598 116.922ZM250.598 122.334C253.084 122.334 254.8 120.992 254.8 118.968C254.8 116.922 253.084 115.58 250.598 115.58C248.112 115.58 246.374 116.922 246.374 118.968C246.374 120.992 248.112 122.334 250.598 122.334ZM259.904 123.698H258.122V124.38C258.122 125.832 257.198 127.724 255.35 128.824C253.524 127.812 252.622 126.052 252.622 124.38V123.698H250.884V124.38C250.884 126.184 249.388 128.208 246.924 129.044L247.76 130.386C249.652 129.704 251.016 128.406 251.742 126.866C252.336 128.472 253.502 129.858 255.394 130.562C257.22 129.814 258.408 128.362 259.002 126.8C259.662 128.406 261.048 129.704 263.028 130.386L263.864 129.044C261.378 128.252 259.904 126.316 259.904 124.38V123.698ZM283.238 117.054C279.74 116.614 276.264 114.436 276.264 111.994V111.114H274.416V111.994C274.416 114.502 270.962 116.614 267.42 117.054L268.08 118.506C271.16 118.022 274.108 116.482 275.34 114.282C276.594 116.482 279.52 118.022 282.578 118.506L283.238 117.054ZM280.136 128.912H270.434V126.404H280.136V128.912ZM280.136 125.018H270.434V122.708H268.652V130.364H281.918V122.708H280.136V125.018ZM266.386 119.892V121.344H284.25V119.892H266.386ZM290.182 112.808H288.378V125.524H290.006C293.152 125.524 296.254 125.304 299.686 124.6L299.488 123.06C296.21 123.72 293.152 123.984 290.182 123.984V112.808ZM301.512 110.894V130.606H303.316V110.894H301.512ZM310.525 114.282H317.895V112.786H308.721V125.744H310.283C314.001 125.744 316.597 125.612 319.611 125.04L319.413 123.544C316.553 124.05 314.023 124.204 310.525 124.204V114.282ZM326.321 118.682H323.065V110.894H321.261V130.672H323.065V120.178H326.321V118.682ZM330.583 113.359L330.508 124.639H329.326L329.251 113.359H330.583ZM329.111 128.237C329.111 127.994 329.187 127.79 329.337 127.625C329.494 127.453 329.713 127.367 329.992 127.367C330.264 127.367 330.479 127.453 330.637 127.625C330.801 127.79 330.884 127.994 330.884 128.237C330.884 128.474 330.801 128.678 330.637 128.85C330.479 129.014 330.264 129.097 329.992 129.097C329.713 129.097 329.494 129.014 329.337 128.85C329.187 128.678 329.111 128.474 329.111 128.237ZM336.046 113.359L335.971 124.639H334.789L334.714 113.359H336.046ZM334.574 128.237C334.574 127.994 334.649 127.79 334.8 127.625C334.957 127.453 335.176 127.367 335.455 127.367C335.727 127.367 335.942 127.453 336.1 127.625C336.264 127.79 336.347 127.994 336.347 128.237C336.347 128.474 336.264 128.678 336.1 128.85C335.942 129.014 335.727 129.097 335.455 129.097C335.176 129.097 334.957 129.014 334.8 128.85C334.649 128.678 334.574 128.474 334.574 128.237Z" fill="#212121"/>
<path d="M72.9047 208.273H71.1996V212.949H72.9047V208.273ZM74.3988 212.949H76.1039V208.273H74.3988V212.949ZM90.3191 207.324H79.5086V212.844H83.9207V214.514H77.6805V216.096H92.1648V214.514H85.8895V212.844H90.3191V207.324ZM79.2801 218.979H88.4383V222.564H90.3895V217.432H79.2801V218.979ZM81.407 211.297V208.854H88.3855V211.297H81.407ZM107.857 219.154H104.025V215.885H106.538V214.303H104.271V209.592H106.591V208.027H94.5324V209.592H96.8176V214.303H94.5852V215.885H97.0988V219.154H93.3371V220.736H107.857V219.154ZM98.7687 214.303V209.592H102.337V214.303H98.7687ZM99.05 219.154V215.885H102.073V219.154H99.05ZM123.496 213.881H108.976V215.357H123.496V213.881ZM110.664 217.678H119.804V218.662H110.681V222.389H122.212V221.035H112.632V219.928H121.738V216.307H110.664V217.678ZM110.769 208.379H119.752V209.346H110.822V212.984H121.984V211.648H112.755V210.611H121.703V207.025H110.769V208.379ZM133.979 210.84V208.08H132.098V210.928C132.089 213.635 131.07 216.438 128.758 217.836L129.971 219.295C131.465 218.381 132.485 216.764 133.056 214.856C133.583 216.588 134.515 218.064 135.948 218.926L137.02 217.432C134.867 216.078 133.988 213.406 133.979 210.84ZM135.315 213.758H137.582V221.791H139.428V206.955H137.582V212.141H135.315V213.758ZM140.852 222.564H142.733V206.674H140.852V222.564ZM159.18 215.621H144.661V217.238H150.919V222.564H152.852V217.238H159.18V215.621ZM146.19 210.805C146.181 212.958 148.502 214.329 151.886 214.32C155.269 214.329 157.607 212.958 157.616 210.805C157.607 208.625 155.269 207.245 151.886 207.236C148.502 207.245 146.181 208.625 146.19 210.805ZM148.194 210.805C148.185 209.557 149.644 208.818 151.886 208.818C154.136 208.818 155.595 209.557 155.595 210.805C155.595 212.044 154.136 212.773 151.886 212.773C149.644 212.773 148.185 212.044 148.194 210.805ZM173.308 208.133H161.847V209.697H171.339C171.33 211.604 171.33 213.863 170.706 216.957L172.675 217.168C173.29 213.846 173.29 211.64 173.308 209.662V208.133ZM160.335 220.508H174.82V218.908H167.612V213.389H165.679V218.908H160.335V220.508ZM193.002 208.221H181.893V209.803H191.051V210.014C191.051 212.079 191.051 214.382 190.436 217.502L192.422 217.678C193.002 214.329 193.002 212.141 193.002 210.014V208.221ZM180.363 220.385H194.848V218.785H180.363V220.385ZM209.327 206.691H207.375V210.98H204.352V212.58H207.375V217.291H209.327V206.691ZM196.231 214.953L197.075 216.482C201.812 215.006 204.238 212.132 204.246 207.922H197.057V209.486H202.137C201.803 211.956 199.887 213.854 196.231 214.953ZM197.901 220.947L198.674 222.494C201.135 222.063 203.051 220.895 204.018 219.251C204.976 220.886 206.866 222.055 209.327 222.477L210.118 220.93C206.945 220.411 204.994 218.627 205.002 216.658V216.043H203.051V216.658C203.042 218.636 201.082 220.464 197.901 220.947ZM218.901 206.92C215.289 206.929 213.171 207.887 213.171 209.645C213.171 211.42 215.289 212.378 218.901 212.387C222.522 212.378 224.623 211.42 224.632 209.645C224.623 207.887 222.522 206.929 218.901 206.92ZM211.677 214.795H226.161V213.23H211.677V214.795ZM213.382 217.309H222.434V218.363H213.399V222.424H224.79V220.93H215.315V219.752H224.35V215.867H213.382V217.309ZM215.227 209.645C215.219 208.827 216.484 208.361 218.901 208.361C221.353 208.361 222.61 208.827 222.61 209.645C222.61 210.523 221.353 210.928 218.901 210.928C216.484 210.928 215.219 210.523 215.227 209.645ZM244.923 206.674H242.955V222.582H244.923V206.674ZM232.214 213.441C232.206 216.896 233.955 219.066 236.363 219.066C238.745 219.066 240.503 216.896 240.511 213.441C240.503 210.014 238.745 207.834 236.363 207.834C233.955 207.834 232.206 210.014 232.214 213.441ZM234.095 213.441C234.095 211.016 235.018 209.592 236.363 209.592C237.699 209.592 238.613 211.016 238.613 213.441C238.613 215.885 237.699 217.3 236.363 217.309C235.018 217.3 234.095 215.885 234.095 213.441ZM260.176 207.219H249.049V208.801H258.172V210.26H249.084V214.883H260.527V213.318H251.053V211.736H260.176V207.219ZM247.344 217.801H253.602V222.582H255.553V217.801H261.863V216.236H247.344V217.801ZM276.289 206.674H274.321V222.564H276.289V206.674ZM263.123 218.188L264.143 219.752C269.706 217.106 271.543 213.09 271.543 208.361H263.932V209.908H269.557C269.205 213.521 267.289 216.21 263.123 218.188ZM288.232 207.377C285.841 207.368 284.101 208.722 284.101 210.717C284.101 212.677 285.841 214.048 288.232 214.039C290.649 214.048 292.398 212.677 292.398 210.717C292.398 208.722 290.649 207.368 288.232 207.377ZM283.064 215.129L283.31 216.746C284.505 216.737 285.885 216.72 287.353 216.658V222.072H289.321V216.544C290.71 216.438 292.134 216.271 293.505 216.008L293.364 214.566C289.945 215.076 285.929 215.129 283.064 215.129ZM285.999 210.717C285.99 209.618 286.931 208.941 288.232 208.959C289.585 208.941 290.534 209.618 290.534 210.717C290.534 211.78 289.585 212.448 288.232 212.439C286.931 212.448 285.99 211.78 285.999 210.717ZM294.402 222.547H296.335V206.691H294.402V222.547ZM306.455 209.205H303.554V207.131H301.621V209.205H298.668V210.77H306.455V209.205ZM299.125 215.305C299.107 217.511 300.575 219.049 302.587 219.049C304.609 219.049 306.05 217.511 306.05 215.305C306.05 213.143 304.609 211.604 302.587 211.613C300.575 211.604 299.107 213.143 299.125 215.305ZM300.847 215.305C300.838 214.057 301.559 213.23 302.587 213.23C303.607 213.23 304.328 214.057 304.328 215.305C304.328 216.588 303.607 217.388 302.587 217.379C301.559 217.388 300.838 216.588 300.847 215.305ZM307.123 221.844H308.951V214.795H310.498V222.564H312.361V206.674H310.498V213.213H308.951V207.008H307.123V221.844ZM120.657 242.652H111.411V236.939H109.407V244.234H113.995V248.084H107.737V249.666H122.256V248.084H115.963V244.234H120.657V242.652ZM130.987 236.623H124.009V238.17H129.036V239.945H124.044V244.92H125.204C128.324 244.92 129.968 244.876 131.866 244.551L131.673 242.969C129.985 243.285 128.535 243.355 125.978 243.355V241.404H130.987V236.623ZM125.837 247.785H134.749V251.564H136.7V246.221H125.837V247.785ZM131.937 242.846H134.749V245.465H136.7V235.691H134.749V237.941H131.937V239.506H134.749V241.281H131.937V242.846ZM151.496 235.674H149.562V251.564H151.496V243.619H153.939V242.002H151.496V235.674ZM138.962 239.682H148.331V238.117H144.675V235.902H142.724V238.117H138.962V239.682ZM139.701 244.463C139.683 246.651 141.388 248.189 143.708 248.189C145.994 248.189 147.69 246.651 147.699 244.463C147.69 242.266 145.994 240.71 143.708 240.719C141.388 240.71 139.683 242.266 139.701 244.463ZM141.564 244.463C141.555 243.171 142.46 242.318 143.708 242.318C144.93 242.318 145.818 243.171 145.835 244.463C145.818 245.755 144.93 246.581 143.708 246.572C142.46 246.581 141.555 245.755 141.564 244.463ZM167.574 240.174H158.504V236.254H156.57V241.721H167.574V240.174ZM154.689 245.113H169.209V243.566H154.689V245.113ZM156.429 251.195H167.679V249.613H158.381V246.52H156.429V251.195ZM188.042 235.691H186.09V239.98H183.067V241.58H186.09V246.291H188.042V235.691ZM174.946 243.953L175.79 245.482C180.527 244.006 182.953 241.132 182.962 236.922H175.772V238.486H180.852C180.518 240.956 178.602 242.854 174.946 243.953ZM176.616 249.947L177.389 251.494C179.85 251.063 181.766 249.895 182.733 248.251C183.691 249.886 185.581 251.055 188.042 251.477L188.833 249.93C185.66 249.411 183.709 247.627 183.717 245.658V245.043H181.766V245.658C181.757 247.636 179.797 249.464 176.616 249.947ZM204.876 243.883H190.392V245.447H204.876V243.883ZM191.886 239.4C191.886 241.422 194.145 242.652 197.616 242.652C201.079 242.652 203.338 241.422 203.347 239.4C203.338 237.388 201.079 236.175 197.616 236.184C194.145 236.175 191.886 237.388 191.886 239.4ZM192.185 251.248H203.241V249.666H194.136V246.625H192.185V251.248ZM193.925 239.4C193.907 238.354 195.305 237.748 197.616 237.748C199.937 237.748 201.325 238.354 201.325 239.4C201.325 240.481 199.937 241.062 197.616 241.053C195.305 241.062 193.907 240.481 193.925 239.4ZM223.656 235.691H221.687V247.17H223.656V235.691ZM210.701 240.701C210.701 243.048 212.573 244.691 214.99 244.691C217.407 244.691 219.27 243.048 219.262 240.701C219.27 238.39 217.407 236.737 214.99 236.729C212.573 236.737 210.701 238.39 210.701 240.701ZM212.617 240.701C212.608 239.33 213.628 238.434 214.99 238.434C216.317 238.434 217.346 239.33 217.346 240.701C217.346 242.107 216.317 242.986 214.99 242.986C213.628 242.986 212.608 242.107 212.617 240.701ZM213.144 251.248H224.096V249.666H215.113V246.01H213.144V251.248ZM231.033 238.627V236.658H229.153V238.627C229.144 240.385 228.124 242.371 225.936 243.338L226.99 244.832C228.502 244.199 229.539 242.986 230.119 241.571C230.691 242.802 231.675 243.821 233.09 244.357L234.127 242.863C232.044 242.072 231.042 240.341 231.033 238.627ZM228.854 248.611C228.845 250.448 230.954 251.547 234.303 251.547C237.625 251.547 239.743 250.448 239.752 248.611C239.743 246.783 237.625 245.693 234.303 245.693C230.954 245.693 228.845 246.783 228.854 248.611ZM230.805 248.611C230.796 247.68 232.097 247.17 234.303 247.17C236.474 247.17 237.775 247.68 237.783 248.611C237.775 249.552 236.474 250.062 234.303 250.053C232.097 250.062 230.796 249.552 230.805 248.611ZM234.391 244.938H236.219V241.299H237.801V245.43H239.664V235.691H237.801V239.699H236.219V235.99H234.391V244.938ZM255.444 235.674H253.563V251.564H255.444V235.674ZM241.891 242.547C241.891 246.054 243.245 248.233 245.319 248.225C247.288 248.233 248.615 246.335 248.799 243.232H250.311V250.791H252.174V235.955H250.311V241.65H248.782C248.553 238.68 247.244 236.878 245.319 236.887C243.245 236.878 241.891 239.049 241.891 242.547ZM243.702 242.547C243.693 240.068 244.308 238.724 245.319 238.732C246.374 238.724 246.998 240.068 247.006 242.547C246.998 245.034 246.374 246.37 245.319 246.361C244.308 246.37 243.693 245.034 243.702 242.547ZM263.261 239.488V236.957H261.274V239.488C261.266 242.459 259.824 245.518 257.231 246.73L258.462 248.312C260.29 247.39 261.591 245.562 262.285 243.364C262.962 245.447 264.228 247.135 266.021 248.014L267.198 246.449C264.667 245.342 263.252 242.441 263.261 239.488ZM265.44 242.389H268.78V251.582H270.714V235.674H268.78V240.807H265.44V242.389ZM95.0355 264.674H93.0844V280.529H95.0355V272.514H97.391V270.879H95.0355V264.674ZM82.5023 276.188L83.6098 277.699C88.892 275.098 90.8256 270.993 90.8344 266.326H83.3637V267.943H88.848C88.4613 271.564 86.3695 274.254 82.5023 276.188ZM103.942 267.539V267.363H107.247V265.781H98.616V267.363H101.973V267.557C101.973 269.666 100.629 271.731 98.0711 272.566L99.0555 274.113C100.971 273.472 102.307 272.145 103.011 270.475C103.705 271.907 104.971 273.041 106.755 273.604L107.686 272.074C105.199 271.31 103.942 269.481 103.942 267.539ZM100.233 277.506C100.233 279.422 102.29 280.547 105.612 280.547C108.908 280.547 110.929 279.422 110.938 277.506C110.929 275.607 108.908 274.5 105.612 274.5C102.29 274.5 100.233 275.607 100.233 277.506ZM102.184 277.506C102.184 276.539 103.432 276.029 105.612 276.029C107.783 276.029 109.005 276.539 109.005 277.506C109.005 278.49 107.783 279.009 105.612 279.018C103.432 279.009 102.184 278.49 102.184 277.506ZM108.829 274.148H110.78V270.088H112.995V268.488H110.78V264.674H108.829V274.148ZM132.759 271.969H118.275V273.551H124.533V274.878C121.65 275.062 119.962 276.056 119.962 277.699C119.962 279.527 122.028 280.547 125.5 280.547C128.919 280.547 130.993 279.527 131.002 277.699C130.993 276.056 129.305 275.071 126.466 274.887V273.551H132.759V271.969ZM118.978 269.701L119.646 271.248C122.529 270.949 124.638 269.798 125.5 268.189C126.361 269.798 128.497 270.949 131.388 271.248L132.074 269.701C129.086 269.429 127.196 268.251 126.879 266.941H131.459V265.377H119.593V266.941H124.129C123.803 268.242 121.896 269.429 118.978 269.701ZM121.949 277.699C121.94 276.82 123.188 276.354 125.5 276.346C127.776 276.354 129.033 276.82 129.05 277.699C129.033 278.578 127.776 279.062 125.5 279.053C123.188 279.062 121.94 278.578 121.949 277.699ZM148.451 277.031H145.111V272.971C146.342 272.241 147.089 271.125 147.08 269.736C147.089 267.205 144.593 265.535 141.156 265.535C137.737 265.535 135.259 267.205 135.268 269.736C135.259 271.143 136.023 272.285 137.289 273.015V277.031H133.932V278.631H148.451V277.031ZM137.184 269.736C137.175 268.084 138.783 267.073 141.156 267.082C143.521 267.073 145.164 268.084 145.164 269.736C145.164 271.362 143.521 272.399 141.156 272.391C138.783 272.399 137.175 271.362 137.184 269.736ZM139.223 277.031V273.727C139.82 273.85 140.471 273.92 141.156 273.92C141.859 273.92 142.519 273.85 143.125 273.718V277.031H139.223ZM162.121 264.691H160.17V276.557H162.121V271.301H164.336V269.684H162.121V264.691ZM149.606 268.014H159.028V266.449H155.301V264.674H153.35V266.449H149.606V268.014ZM150.414 271.705C150.414 273.524 152.005 274.711 154.317 274.711C156.611 274.711 158.193 273.524 158.202 271.705C158.193 269.877 156.611 268.664 154.317 268.664C152.005 268.664 150.414 269.877 150.414 271.705ZM151.944 280.248H162.754V278.666H153.895V275.625H151.944V280.248ZM152.313 271.705C152.304 270.738 153.113 270.176 154.317 270.176C155.521 270.176 156.338 270.738 156.338 271.705C156.338 272.663 155.521 273.208 154.317 273.199C153.113 273.208 152.304 272.663 152.313 271.705ZM182.923 264.691H180.972V268.98H177.948V270.58H180.972V275.291H182.923V264.691ZM169.827 272.953L170.671 274.482C175.408 273.006 177.834 270.132 177.843 265.922H170.654V267.486H175.734C175.4 269.956 173.484 271.854 169.827 272.953ZM171.497 278.947L172.271 280.494C174.732 280.063 176.648 278.895 177.614 277.251C178.572 278.886 180.462 280.055 182.923 280.477L183.714 278.93C180.541 278.411 178.59 276.627 178.599 274.658V274.043H176.648V274.658C176.639 276.636 174.679 278.464 171.497 278.947ZM204.129 271.969H189.645V273.551H195.902V274.878C193.02 275.062 191.332 276.056 191.332 277.699C191.332 279.527 193.397 280.547 196.869 280.547C200.288 280.547 202.362 279.527 202.371 277.699C202.362 276.056 200.675 275.071 197.836 274.887V273.551H204.129V271.969ZM190.348 269.701L191.016 271.248C193.898 270.949 196.008 269.798 196.869 268.189C197.73 269.798 199.866 270.949 202.758 271.248L203.443 269.701C200.455 269.429 198.565 268.251 198.249 266.941H202.828V265.377H190.963V266.941H195.498C195.173 268.242 193.266 269.429 190.348 269.701ZM193.318 277.699C193.31 276.82 194.558 276.354 196.869 276.346C199.146 276.354 200.402 276.82 200.42 277.699C200.402 278.578 199.146 279.062 196.869 279.053C194.558 279.062 193.31 278.578 193.318 277.699ZM222.118 264.674H220.184V280.564H222.118V272.619H224.561V271.002H222.118V264.674ZM209.585 268.682H218.954V267.117H215.298V264.902H213.346V267.117H209.585V268.682ZM210.323 273.463C210.305 275.651 212.011 277.189 214.331 277.189C216.616 277.189 218.312 275.651 218.321 273.463C218.312 271.266 216.616 269.71 214.331 269.719C212.011 269.71 210.305 271.266 210.323 273.463ZM212.186 273.463C212.178 272.171 213.083 271.318 214.331 271.318C215.553 271.318 216.44 272.171 216.458 273.463C216.44 274.755 215.553 275.581 214.331 275.572C213.083 275.581 212.178 274.755 212.186 273.463ZM240.13 270.809H237.775V264.674H235.823V280.529H237.775V272.408H240.13V270.809ZM225.892 276.609H227.228C229.583 276.601 232.123 276.46 234.804 275.924L234.593 274.271C232.194 274.772 229.944 274.957 227.825 274.992V266.221H225.892V276.609ZM254.222 264.674H252.254V273.199H254.222V264.674ZM241.267 269.104C241.267 271.274 243.095 272.804 245.556 272.795C248.008 272.804 249.837 271.274 249.828 269.104C249.837 266.897 248.008 265.368 245.556 265.377C243.095 265.368 241.267 266.897 241.267 269.104ZM243.183 269.104C243.174 267.829 244.168 267.003 245.556 267.012C246.919 267.003 247.912 267.829 247.912 269.104C247.912 270.378 246.919 271.187 245.556 271.195C244.168 271.187 243.174 270.378 243.183 269.104ZM243.711 280.371H254.222V273.938H252.271V275.572H245.644V273.938H243.711V280.371ZM245.644 278.789V277.102H252.271V278.789H245.644ZM269.896 264.674H267.963V280.564H269.896V264.674ZM257.557 276.574H258.928C261.397 276.583 263.99 276.398 266.785 275.818L266.539 274.184C264.087 274.676 261.714 274.869 259.49 274.904V266.221H257.557V276.574ZM284.745 264.674H282.793V280.582H284.745V272.303H287.188V270.703H284.745V264.674ZM272.95 276.697H274.268C277.133 276.697 279.269 276.627 281.739 276.205L281.51 274.553C279.33 274.931 277.371 275.054 274.901 275.062V267.768H280.385V266.186H272.95V276.697ZM289.889 279.141C290.619 279.141 291.243 278.525 291.243 277.77C291.243 277.031 290.619 276.425 289.889 276.416C289.134 276.425 288.51 277.031 288.518 277.77C288.51 278.525 289.134 279.141 289.889 279.141ZM293.417 266.273H291.712V270.949H293.417V266.273ZM294.911 270.949H296.616V266.273H294.911V270.949Z" fill="#212121"/>
<path d="M110.429 297.189H114.366V308H116.651V297.189H120.571V295.273H110.429V297.189ZM124.609 302.41C124.609 301.021 125.47 300.222 126.683 300.23C127.861 300.222 128.555 300.969 128.564 302.27V308H130.796V301.918C130.796 299.615 129.487 298.332 127.509 298.332C126.041 298.332 125.11 298.991 124.679 300.072H124.556V295.273H122.359V308H124.609V302.41ZM137.259 308.193C139.474 308.193 141.004 307.104 141.408 305.451H139.211C138.921 306.022 138.261 306.444 137.277 306.436C135.827 306.444 134.869 305.478 134.834 303.852H141.496V303.148C141.496 299.8 139.474 298.332 137.136 298.332C134.412 298.332 132.619 300.336 132.619 303.289C132.619 306.277 134.385 308.193 137.259 308.193ZM134.842 302.322C134.921 301.109 135.827 300.072 137.171 300.072C138.463 300.072 139.342 301.021 139.351 302.322H134.842ZM147.502 308.193C150.297 308.193 152.081 306.216 152.072 303.271C152.081 300.301 150.297 298.332 147.502 298.332C144.716 298.332 142.932 300.301 142.932 303.271C142.932 306.216 144.716 308.193 147.502 308.193ZM145.199 303.254C145.199 301.505 145.964 300.099 147.52 300.107C149.049 300.099 149.813 301.505 149.805 303.254C149.813 305.003 149.049 306.4 147.52 306.4C145.964 306.4 145.199 305.003 145.199 303.254ZM157.463 308.176C159.116 308.167 159.845 307.191 160.205 306.488H160.329V308H162.526V295.273H160.293V300.02H160.205C159.863 299.343 159.16 298.332 157.481 298.332C155.266 298.332 153.526 300.055 153.526 303.236C153.526 306.374 155.222 308.167 157.463 308.176ZM155.811 303.219C155.811 301.443 156.584 300.169 158.079 300.16C159.537 300.169 160.346 301.364 160.346 303.219C160.346 305.082 159.529 306.33 158.079 306.33C156.602 306.33 155.811 305.021 155.811 303.219ZM169.059 308.193C171.854 308.193 173.638 306.216 173.63 303.271C173.638 300.301 171.854 298.332 169.059 298.332C166.273 298.332 164.489 300.301 164.489 303.271C164.489 306.216 166.273 308.193 169.059 308.193ZM166.757 303.254C166.757 301.505 167.521 300.099 169.077 300.107C170.606 300.099 171.371 301.505 171.362 303.254C171.371 305.003 170.606 306.4 169.077 306.4C167.521 306.4 166.757 305.003 166.757 303.254ZM175.47 308H177.72V302.375C177.72 301.171 178.634 300.31 179.882 300.301C180.251 300.31 180.717 300.371 180.919 300.441V298.367C180.708 298.341 180.357 298.314 180.111 298.314C179.012 298.314 178.098 298.938 177.755 300.037H177.65V298.455H175.47V308ZM186.275 308.193C188.49 308.193 190.019 307.104 190.423 305.451H188.226C187.936 306.022 187.277 306.444 186.293 306.436C184.842 306.444 183.884 305.478 183.849 303.852H190.511V303.148C190.511 299.8 188.49 298.332 186.152 298.332C183.427 298.332 181.634 300.336 181.634 303.289C181.634 306.277 183.401 308.193 186.275 308.193ZM183.858 302.322C183.937 301.109 184.842 300.072 186.187 300.072C187.479 300.072 188.358 301.021 188.367 302.322H183.858ZM196.829 308H199.114V303.342H201.504L204 308H206.549L203.798 302.955C205.292 302.349 206.083 301.065 206.092 299.334C206.083 296.908 204.528 295.273 201.61 295.273H196.829V308ZM199.114 301.426V297.189H201.258C202.981 297.189 203.754 297.98 203.754 299.334C203.754 300.696 202.981 301.435 201.258 301.426H199.114ZM212.081 308.193C214.876 308.193 216.66 306.216 216.651 303.271C216.66 300.301 214.876 298.332 212.081 298.332C209.295 298.332 207.511 300.301 207.511 303.271C207.511 306.216 209.295 308.193 212.081 308.193ZM209.778 303.254C209.778 301.505 210.543 300.099 212.098 300.107C213.628 300.099 214.392 301.505 214.384 303.254C214.392 305.003 213.628 306.4 212.098 306.4C210.543 306.4 209.778 305.003 209.778 303.254ZM222.657 308.193C225.452 308.193 227.237 306.216 227.228 303.271C227.237 300.301 225.452 298.332 222.657 298.332C219.871 298.332 218.087 300.301 218.087 303.271C218.087 306.216 219.871 308.193 222.657 308.193ZM220.355 303.254C220.355 301.505 221.119 300.099 222.675 300.107C224.204 300.099 224.969 301.505 224.96 303.254C224.969 305.003 224.204 306.4 222.675 306.4C221.119 306.4 220.355 305.003 220.355 303.254ZM234.482 301.18H236.609C236.442 299.448 235.036 298.332 232.759 298.332C230.43 298.332 228.901 299.483 228.91 301.25C228.901 302.612 229.824 303.544 231.599 303.904L233.129 304.238C234.078 304.44 234.508 304.792 234.517 305.346C234.508 306.058 233.805 306.497 232.724 306.488C231.678 306.497 231.046 306.093 230.914 305.275H228.629C228.866 307.104 230.298 308.193 232.724 308.193C235.22 308.193 236.794 306.945 236.802 305.152C236.794 303.781 235.915 302.946 234.113 302.551L232.496 302.217C231.529 301.988 231.133 301.619 231.142 301.127C231.133 300.477 231.837 299.993 232.795 300.002C233.744 299.993 234.341 300.459 234.482 301.18ZM242.844 308.193C245.059 308.193 246.588 307.104 246.992 305.451H244.795C244.505 306.022 243.846 306.444 242.861 306.436C241.411 306.444 240.453 305.478 240.418 303.852H247.08V303.148C247.08 299.8 245.059 298.332 242.721 298.332C239.996 298.332 238.203 300.336 238.203 303.289C238.203 306.277 239.97 308.193 242.844 308.193ZM240.427 302.322C240.506 301.109 241.411 300.072 242.756 300.072C244.048 300.072 244.927 301.021 244.936 302.322H240.427ZM257.164 298.455H254.791L252.577 305.557H252.471L250.274 298.455H247.883L251.293 308H253.754L257.164 298.455ZM262.573 308.193C264.788 308.193 266.317 307.104 266.721 305.451H264.524C264.234 306.022 263.575 306.444 262.591 306.436C261.14 306.444 260.182 305.478 260.147 303.852H266.809V303.148C266.809 299.8 264.788 298.332 262.45 298.332C259.725 298.332 257.932 300.336 257.932 303.289C257.932 306.277 259.699 308.193 262.573 308.193ZM260.156 302.322C260.235 301.109 261.14 300.072 262.485 300.072C263.777 300.072 264.656 301.021 264.665 302.322H260.156ZM270.9 295.273H268.65V308H270.9V295.273ZM277.908 298.455H276.027V296.17H273.795V298.455H272.423V300.178H273.795V305.504C273.777 307.297 275.078 308.132 276.765 308.123C277.337 308.132 277.767 308.079 278.031 308.035V306.207C277.75 306.225 277.31 306.251 277.046 306.242C276.484 306.233 276.027 306.049 276.027 305.135V300.178H277.908V298.455Z" fill="#9E9E9E"/>
<rect x="37" y="150" width="262.762" height="16" rx="8" fill="#EEEEEE"/>
<path d="M37 158C37 153.582 40.5817 150 45 150H291.762C296.18 150 299.762 153.582 299.762 158C299.762 162.418 296.18 166 291.762 166H45C40.5817 166 37 162.418 37 158Z" fill="#4CC590"/>
<path d="M314.254 153.102H312.778L310.317 154.715V156.15L312.682 154.605H312.737V163H314.254V153.102ZM320.315 163.137C322.605 163.137 323.945 161.291 323.952 158.051C323.945 154.831 322.585 152.965 320.315 152.965C318.039 152.965 316.679 154.831 316.679 158.051C316.679 161.291 318.025 163.137 320.315 163.137ZM318.182 158.051C318.182 155.59 318.982 154.243 320.315 154.236C321.641 154.243 322.448 155.59 322.448 158.051C322.448 160.519 321.648 161.838 320.315 161.838C318.975 161.838 318.176 160.519 318.182 158.051ZM329.056 163.137C331.346 163.137 332.686 161.291 332.693 158.051C332.686 154.831 331.325 152.965 329.056 152.965C326.78 152.965 325.419 154.831 325.419 158.051C325.419 161.291 326.766 163.137 329.056 163.137ZM326.923 158.051C326.923 155.59 327.723 154.243 329.056 154.236C330.382 154.243 331.189 155.59 331.189 158.051C331.189 160.519 330.389 161.838 329.056 161.838C327.716 161.838 326.916 160.519 326.923 158.051ZM336.621 157.805C337.954 157.818 338.692 156.82 338.699 155.344C338.692 153.895 337.981 152.89 336.621 152.896C335.301 152.89 334.529 153.895 334.543 155.344C334.529 156.813 335.267 157.818 336.621 157.805ZM335.664 163H336.908L343.703 153.102H342.459L335.664 163ZM335.664 155.344C335.671 154.462 335.985 153.867 336.621 153.854C337.284 153.847 337.564 154.455 337.564 155.344C337.564 156.253 337.263 156.841 336.621 156.848C335.985 156.841 335.671 156.253 335.664 155.344ZM340.791 160.744C340.784 162.2 341.522 163.205 342.869 163.205C344.202 163.205 344.94 162.207 344.947 160.744C344.94 159.281 344.222 158.276 342.869 158.283C341.549 158.276 340.784 159.281 340.791 160.744ZM341.912 160.744C341.919 159.849 342.24 159.254 342.869 159.24C343.532 159.24 343.812 159.842 343.812 160.744C343.812 161.64 343.511 162.234 342.869 162.234C342.233 162.234 341.919 161.64 341.912 160.744Z" fill="black"/>
<line x1="37" y1="184.5" x2="347" y2="184.5" stroke="#EEEEEE"/>
<defs>
<filter id="filter0_dd_644_2150" x="0" y="0" width="383" height="398" filterUnits="userSpaceOnUse" color-interpolation-filters="sRGB">
<feFlood flood-opacity="0" result="BackgroundImageFix"/>
<feColorMatrix in="SourceAlpha" type="matrix" values="0 0 0 0 0 0 0 0 0 0 0 0 0 0 0 0 0 0 127 0" result="hardAlpha"/>
<feOffset dy="8"/>
<feGaussianBlur stdDeviation="10"/>
<feComposite in2="hardAlpha" operator="out"/>
<feColorMatrix type="matrix" values="0 0 0 0 0 0 0 0 0 0 0 0 0 0 0 0 0 0 0.1 0"/>
<feBlend mode="normal" in2="BackgroundImageFix" result="effect1_dropShadow_644_2150"/>
<feColorMatrix in="SourceAlpha" type="matrix" values="0 0 0 0 0 0 0 0 0 0 0 0 0 0 0 0 0 0 127 0" result="hardAlpha"/>
<feOffset dy="2"/>
<feGaussianBlur stdDeviation="4"/>
<feComposite in2="hardAlpha" operator="out"/>
<feColorMatrix type="matrix" values="0 0 0 0 0 0 0 0 0 0 0 0 0 0 0 0 0 0 0.1 0"/>
<feBlend mode="normal" in2="effect1_dropShadow_644_2150" result="effect2_dropShadow_644_2150"/>
<feBlend mode="normal" in="SourceGraphic" in2="effect2_dropShadow_644_2150" result="shape"/>
</filter>
</defs>
</svg>
