<svg width="24" height="24" viewBox="0 0 24 24" fill="none" xmlns="http://www.w3.org/2000/svg">
<circle cx="12" cy="12" r="10" fill="black"/>
<path d="M11.373 12.1434C12.0085 11.2808 13.0328 10.8742 13.7083 10.1287C14.4217 9.34756 14.3555 7.66784 12.7222 7.41047C11.6523 7.24188 10.9905 8.02419 10.6561 8.7057L9.13251 7.71063C9.80884 6.34185 11.2256 5.29754 13.0045 5.57786C14.4922 5.81229 15.3975 6.69608 15.7739 7.68355C16.0946 8.53063 16.1252 10.0247 15.271 10.9983C14.3229 12.0749 13.5373 12.3251 13.0234 13.0338C12.8161 13.3197 12.7209 13.5125 12.5633 14.5128L10.7337 14.2245C10.8104 13.6963 10.8697 12.826 11.373 12.1434ZM12.4664 17.2682C12.3493 18.0116 11.6837 18.5301 10.9873 18.4204C10.2909 18.3107 9.81701 17.6126 9.93416 16.8691C10.0513 16.1257 10.7169 15.6072 11.4133 15.7169C12.1097 15.8267 12.5836 16.5247 12.4664 17.2682Z" fill="white"/>
</svg>
