<svg width="24" height="24" viewBox="0 0 24 24" fill="none" xmlns="http://www.w3.org/2000/svg">
<circle cx="12" cy="12" r="10" fill="black"/>
<path d="M11.373 12.1434C12.0085 11.2808 13.0328 10.8742 13.7082 10.1287C14.4217 9.34756 14.3555 7.66784 12.7222 7.41047C11.6523 7.24188 10.9905 8.02419 10.656 8.7057L9.13245 7.71063C9.80878 6.34185 11.2255 5.29754 13.0044 5.57786C14.4922 5.81229 15.3974 6.69608 15.7739 7.68355C16.0945 8.53063 16.1251 10.0247 15.271 10.9983C14.3228 12.0749 13.5372 12.3251 13.0233 13.0338C12.8161 13.3197 12.7208 13.5125 12.5632 14.5128L10.7336 14.2245C10.8104 13.6963 10.8696 12.826 11.373 12.1434ZM12.4664 17.2682C12.3492 18.0116 11.6836 18.5301 10.9872 18.4204C10.2909 18.3107 9.81695 17.6126 9.9341 16.8691C10.0513 16.1257 10.7169 15.6072 11.4132 15.7169C12.1096 15.8267 12.5835 16.5247 12.4664 17.2682Z" fill="white"/>
</svg>
