<svg width="383" height="398" viewBox="0 0 383 398" fill="none" xmlns="http://www.w3.org/2000/svg">
<g filter="url(#filter0_dd_644_2317)">
<rect x="20" y="12" width="343" height="358" rx="10" fill="white"/>
</g>
<path d="M119.062 80.028V81.48H126.476C126.102 86.166 123.462 89.95 118.16 92.48L119.128 93.954C125.684 90.742 128.302 85.726 128.302 80.028H119.062ZM132.284 77.894V97.628H134.088V77.894H132.284ZM139.471 79.434V80.908H146.731C146.357 84.384 143.321 87.178 138.679 88.63L139.405 90.06C145.081 88.278 148.667 84.538 148.667 79.434H139.471ZM143.453 90.852H141.649V97.188H154.805V95.714H143.453V90.852ZM153.947 83.9V77.916H152.143V92.326H153.947V85.396H156.851V83.9H153.947ZM162.145 80.292H160.341V92.502H161.595C163.729 92.502 165.995 92.392 168.657 91.886L168.481 90.324C166.127 90.786 164.037 90.918 162.145 90.94V80.292ZM174.377 77.894V85.924H171.583V78.334H169.889V96.616H171.583V87.42H174.377V97.606H176.115V77.894H174.377ZM184.577 91.622C182.993 91.622 182.003 89.62 182.003 86.386C182.003 83.218 182.993 81.216 184.577 81.216C186.117 81.216 187.129 83.218 187.129 86.386C187.129 89.62 186.117 91.622 184.577 91.622ZM191.243 85.572H188.757C188.537 81.854 186.953 79.544 184.577 79.544C182.003 79.544 180.353 82.184 180.353 86.386C180.353 90.654 182.003 93.294 184.577 93.294C186.997 93.294 188.603 90.918 188.757 87.046H191.243V96.66H192.959V78.334H191.243V85.572ZM195.159 77.894V97.628H196.875V77.894H195.159ZM208.701 92.854H220.559V97.65H222.363V91.402H208.701V92.854ZM210.769 80.138H220.493V83.966H210.769V80.138ZM216.555 87.904V85.396H222.275V78.708H209.009V85.396H214.751V87.904H206.699V89.356H224.563V87.904H216.555ZM234.213 89.07H238.503V93.756H234.213V89.07ZM233.905 81.172H238.811V87.618H233.905V81.172ZM240.307 93.756V89.07H243.651V87.618H240.615V81.172H243.673V79.72H229.043V81.172H232.101V87.618H229.087V89.07H232.409V93.756H227.437V95.23H245.345V93.756H240.307ZM262.013 81.348H250.485V85.572H264.147V84.274H252.267V82.58H263.795V78.466H250.441V79.742H262.013V81.348ZM252.157 94.24H263.861V90.038H250.331V91.336H262.079V92.986H250.375V97.364H264.477V96.066H252.157V94.24ZM248.197 87.068V88.432H266.083V87.068H248.197ZM105.694 116.956C103.054 117.484 100.766 117.638 96.9384 117.638V112.49H103.868V111.038H95.1564V119.09H96.6744C100.744 119.09 103.142 118.958 105.914 118.386L105.694 116.956ZM98.8744 125.69H109.588V120.828H97.0484V122.258H107.806V124.326H97.1144V129.364H110.314V127.912H98.8744V125.69ZM109.588 114.052V109.894H107.784V119.816H109.588V115.526H112.514V114.052H109.588ZM129.447 121.576H131.273V109.916H129.447V114.096H125.157V115.57H129.447V121.576ZM126.587 119.244C123.705 118.232 121.791 115.79 121.791 112.974V111.016H119.987V113.04C119.987 116.054 118.029 118.694 114.993 119.772L115.939 121.246C118.315 120.344 120.097 118.562 120.933 116.23C121.791 118.276 123.463 119.838 125.619 120.652L126.587 119.244ZM124.761 128.176C121.791 128.176 119.987 127.318 119.987 125.888C119.987 124.436 121.791 123.578 124.761 123.578C127.731 123.578 129.535 124.436 129.535 125.888C129.535 127.318 127.731 128.176 124.761 128.176ZM124.761 122.17C120.713 122.17 118.183 123.512 118.183 125.888C118.183 128.242 120.713 129.606 124.761 129.606C128.809 129.606 131.339 128.242 131.339 125.888C131.339 123.512 128.809 122.17 124.761 122.17ZM141.539 123.732C139.757 123.732 138.459 122.456 138.459 120.696C138.459 118.914 139.757 117.638 141.539 117.638C143.343 117.638 144.641 118.914 144.641 120.696C144.641 122.456 143.343 123.732 141.539 123.732ZM141.539 116.142C138.767 116.142 136.765 118.034 136.765 120.696C136.765 123.38 138.767 125.228 141.539 125.228C144.355 125.228 146.357 123.38 146.357 120.696C146.357 118.034 144.355 116.142 141.539 116.142ZM142.419 110.136H140.615V113.062H135.643V114.514H147.281V113.062H142.419V110.136ZM154.189 118.012H150.955V109.916H149.151V129.628H150.955V119.53H154.189V118.012ZM163.531 113.414H168.173V111.918H157.151V113.414H161.727V115.922C161.727 119.332 159.329 123.05 156.491 124.392L157.547 125.844C159.791 124.7 161.727 122.214 162.629 119.332C163.575 122.038 165.511 124.304 167.799 125.36L168.811 123.908C165.907 122.676 163.531 119.266 163.531 115.922V113.414ZM170.835 109.916V129.628H172.639V109.916H170.835ZM192.957 122.39H191.109V122.984C191.109 125.602 188.051 127.56 184.465 128.088L185.147 129.496C188.161 128.99 190.823 127.604 192.033 125.47C193.199 127.604 195.861 128.99 198.875 129.496L199.557 128.088C195.971 127.56 192.957 125.602 192.957 122.984V122.39ZM187.149 112.138H196.873V115.922H187.149V112.138ZM192.935 119.662V117.374H198.655V110.708H185.389V117.374H191.131V119.662H183.079V121.114H200.943V119.662H192.935ZM216.269 116.802H218.755V122.126H220.493V109.916H218.755V115.328H216.269V110.202H214.575V121.818H216.269V116.802ZM213.761 112.16H209.647V110.004H207.865V112.16H203.729V113.59H213.739L213.761 112.16ZM208.767 115.922C210.307 115.922 211.363 116.736 211.363 117.968C211.363 119.2 210.307 119.992 208.767 119.992C207.205 119.992 206.171 119.2 206.171 117.968C206.171 116.736 207.205 115.922 208.767 115.922ZM208.767 121.334C211.253 121.334 212.969 119.992 212.969 117.968C212.969 115.922 211.253 114.58 208.767 114.58C206.281 114.58 204.543 115.922 204.543 117.968C204.543 119.992 206.281 121.334 208.767 121.334ZM218.073 122.698H216.291V123.38C216.291 124.832 215.367 126.724 213.519 127.824C211.693 126.812 210.791 125.052 210.791 123.38V122.698H209.053V123.38C209.053 125.184 207.557 127.208 205.093 128.044L205.929 129.386C207.821 128.704 209.185 127.406 209.911 125.866C210.505 127.472 211.671 128.858 213.563 129.562C215.389 128.814 216.577 127.362 217.171 125.8C217.831 127.406 219.217 128.704 221.197 129.386L222.033 128.044C219.547 127.252 218.073 125.316 218.073 123.38V122.698ZM241.407 116.054C237.909 115.614 234.433 113.436 234.433 110.994V110.114H232.585V110.994C232.585 113.502 229.131 115.614 225.589 116.054L226.249 117.506C229.329 117.022 232.277 115.482 233.509 113.282C234.763 115.482 237.689 117.022 240.747 117.506L241.407 116.054ZM238.305 127.912H228.603V125.404H238.305V127.912ZM238.305 124.018H228.603V121.708H226.821V129.364H240.087V121.708H238.305V124.018ZM224.555 118.892V120.344H242.419V118.892H224.555ZM248.351 111.808H246.547V124.524H248.175C251.321 124.524 254.423 124.304 257.855 123.6L257.657 122.06C254.379 122.72 251.321 122.984 248.351 122.984V111.808ZM259.681 109.894V129.606H261.485V109.894H259.681ZM268.694 113.282H276.064V111.786H266.89V124.744H268.452C272.17 124.744 274.766 124.612 277.78 124.04L277.582 122.544C274.722 123.05 272.192 123.204 268.694 123.204V113.282ZM284.49 117.682H281.234V109.894H279.43V129.672H281.234V119.178H284.49V117.682ZM287.194 127.216C287.194 126.965 287.273 126.754 287.431 126.582C287.595 126.403 287.817 126.313 288.097 126.313C288.383 126.313 288.609 126.399 288.773 126.571C288.938 126.743 289.021 126.958 289.021 127.216C289.021 127.459 288.938 127.667 288.773 127.839C288.609 128.011 288.383 128.097 288.097 128.097C287.817 128.097 287.595 128.011 287.431 127.839C287.273 127.667 287.194 127.459 287.194 127.216Z" fill="#212121"/>
<path d="M86.3756 222.273H84.6705V226.949H86.3756V222.273ZM87.8697 226.949H89.5748V222.273H87.8697V226.949ZM103.685 220.691H101.733V232.557H103.685V227.301H105.899V225.684H103.685V220.691ZM91.1689 224.014H100.591V222.449H96.8643V220.674H94.9131V222.449H91.1689V224.014ZM91.9775 227.705C91.9775 229.524 93.5684 230.711 95.8799 230.711C98.1738 230.711 99.7559 229.524 99.7647 227.705C99.7559 225.877 98.1738 224.664 95.8799 224.664C93.5684 224.664 91.9775 225.877 91.9775 227.705ZM93.5068 236.248H104.317V234.666H95.458V231.625H93.5068V236.248ZM93.876 227.705C93.8672 226.738 94.6758 226.176 95.8799 226.176C97.084 226.176 97.9014 226.738 97.9014 227.705C97.9014 228.663 97.084 229.208 95.8799 229.199C94.6758 229.208 93.8672 228.663 93.876 227.705ZM124.486 220.674H122.535V224.207H119.459V225.807H122.535V228.707H124.486V220.674ZM111.39 227.529L112.058 229.094C116.699 227.969 119.292 225.402 119.283 221.324H112.269V222.906H117.182C116.884 225.042 114.985 226.712 111.39 227.529ZM114.027 230.887H122.535V232.064H114.045V236.406H124.908V234.842H115.996V233.523H124.486V229.34H114.027V230.887ZM134.061 220.99C130.58 220.99 128.33 222.142 128.33 224.084C128.33 225.982 130.58 227.116 134.061 227.107C137.576 227.116 139.782 225.982 139.791 224.084C139.782 222.142 137.576 220.99 134.061 220.99ZM126.836 229.762H141.321V228.18H126.836V229.762ZM128.541 236.371H139.563V231.027H128.541V236.371ZM130.369 224.084C130.352 223.073 131.74 222.52 134.061 222.52C136.381 222.52 137.77 223.073 137.77 224.084C137.77 225.042 136.381 225.587 134.061 225.596C131.74 225.587 130.352 225.042 130.369 224.084ZM130.475 234.789V232.574H137.664V234.789H130.475ZM159.397 220.691H157.446V232.557H159.397V227.301H161.612V225.684H159.397V220.691ZM146.882 224.014H156.304V222.449H152.577V220.674H150.626V222.449H146.882V224.014ZM147.69 227.705C147.69 229.524 149.281 230.711 151.593 230.711C153.887 230.711 155.469 229.524 155.478 227.705C155.469 225.877 153.887 224.664 151.593 224.664C149.281 224.664 147.69 225.877 147.69 227.705ZM149.22 236.248H160.03V234.666H151.171V231.625H149.22V236.248ZM149.589 227.705C149.58 226.738 150.389 226.176 151.593 226.176C152.797 226.176 153.614 226.738 153.614 227.705C153.614 228.663 152.797 229.208 151.593 229.199C150.389 229.208 149.58 228.663 149.589 227.705ZM180.199 220.674H178.248V224.207H175.172V225.807H178.248V228.707H180.199V220.674ZM167.103 227.529L167.771 229.094C172.412 227.969 175.005 225.402 174.996 221.324H167.982V222.906H172.895C172.596 225.042 170.698 226.712 167.103 227.529ZM169.74 230.887H178.248V232.064H169.758V236.406H180.621V234.842H171.709V233.523H180.199V229.34H169.74V230.887ZM189.774 220.99C186.293 220.99 184.043 222.142 184.043 224.084C184.043 225.982 186.293 227.116 189.774 227.107C193.289 227.116 195.495 225.982 195.504 224.084C195.495 222.142 193.289 220.99 189.774 220.99ZM182.549 229.762H197.033V228.18H182.549V229.762ZM184.254 236.371H195.276V231.027H184.254V236.371ZM186.082 224.084C186.065 223.073 187.453 222.52 189.774 222.52C192.094 222.52 193.483 223.073 193.483 224.084C193.483 225.042 192.094 225.587 189.774 225.596C187.453 225.587 186.065 225.042 186.082 224.084ZM186.188 234.789V232.574H193.377V234.789H186.188ZM217.378 226.809H215.022V220.674H213.071V236.529H215.022V228.408H217.378V226.809ZM203.14 232.609H204.476C206.831 232.601 209.371 232.46 212.052 231.924L211.841 230.271C209.441 230.772 207.191 230.957 205.073 230.992V222.221H203.14V232.609ZM222.505 221.834C220.088 221.834 218.366 224.014 218.374 227.441C218.366 230.896 220.088 233.066 222.505 233.066C224.896 233.066 226.619 230.896 226.636 227.441C226.619 224.014 224.896 221.834 222.505 221.834ZM220.255 227.441C220.246 225.016 221.169 223.592 222.505 223.592C223.85 223.592 224.746 225.016 224.755 227.441C224.746 229.885 223.85 231.3 222.505 231.309C221.169 231.3 220.246 229.885 220.255 227.441ZM228.728 236.564H230.679V228.426H233.122V226.773H230.679V220.674H228.728V236.564ZM246.336 220.674H244.385V236.529H246.336V228.514H248.691V226.879H246.336V220.674ZM233.803 232.188L234.91 233.699C240.192 231.098 242.126 226.993 242.135 222.326H234.664V223.943H240.148C239.762 227.564 237.67 230.254 233.803 232.188ZM261.992 220.674H260.041V236.582H261.992V228.303H264.436V226.703H261.992V220.674ZM250.197 232.697H251.516C254.381 232.697 256.517 232.627 258.987 232.205L258.758 230.553C256.578 230.931 254.618 231.054 252.149 231.062V223.768H257.633V222.186H250.197V232.697ZM284.095 233.049H277.767V229.955H282.442V221.729H280.491V224.33H273.126V221.729H271.175V229.955H275.833V233.049H269.575V234.648H284.095V233.049ZM273.126 228.373V225.895H280.491V228.373H273.126ZM293.388 222.01H285.917V229.621H293.388V228.25H296.587V232.258H298.538V220.691H296.587V223.275H293.388V222.01ZM287.869 228.092V223.557H291.454V228.092H287.869ZM288.062 236.248H298.89V234.666H290.048V231.186H288.062V236.248ZM293.388 226.686V224.875H296.587V226.686H293.388ZM143.201 249.674H141.233V257.725H143.201V249.674ZM130.211 256.459L130.897 258.041C135.819 257.004 138.394 254.587 138.403 250.324H131.055V251.906H136.232C136.003 254.024 134.157 255.686 130.211 256.459ZM132.654 259.904H141.233V261.1H132.69V265.406H143.676V263.877H134.658V262.523H143.201V258.375H132.654V259.904ZM160.106 257.883H145.622V259.447H160.106V257.883ZM147.116 253.4C147.116 255.422 149.375 256.652 152.846 256.652C156.309 256.652 158.568 255.422 158.577 253.4C158.568 251.388 156.309 250.175 152.846 250.184C149.375 250.175 147.116 251.388 147.116 253.4ZM147.415 265.248H158.471V263.666H149.366V260.625H147.415V265.248ZM149.155 253.4C149.137 252.354 150.535 251.748 152.846 251.748C155.167 251.748 156.555 252.354 156.555 253.4C156.555 254.481 155.167 255.062 152.846 255.053C150.535 255.062 149.137 254.481 149.155 253.4ZM173.718 251.045H166.195V258.551H173.718V251.045ZM168.005 265.248H178.816V263.666H169.956V260.15H168.005V265.248ZM168.111 257.004V252.609H171.802V257.004H168.111ZM176.232 261.275H178.183V255.967H180.398V254.332H178.183V249.674H176.232V261.275ZM195.808 256.037H181.306V257.584H195.808V256.037ZM183.012 260.15H192.064V261.258H183.029V265.406H194.42V263.877H184.945V262.664H193.98V258.674H183.012V260.15ZM183.152 255.018H194.086V253.471H185.103V251.643H193.945V250.078H183.152V255.018ZM201.305 250.834C198.914 250.834 197.218 253.014 197.227 256.441C197.218 259.896 198.914 262.066 201.305 262.066C203.511 262.066 205.128 260.177 205.339 257.109H208.354V265.582H210.287V249.674H208.354V255.527H205.321C205.04 252.627 203.449 250.834 201.305 250.834ZM199.108 256.441C199.099 254.016 199.995 252.592 201.305 252.592C202.623 252.592 203.511 254.016 203.52 256.441C203.511 258.885 202.623 260.3 201.305 260.309C199.995 260.3 199.099 258.885 199.108 256.441ZM218.649 252.908V252.451H221.989V250.887H213.253V252.451H216.68V252.908C216.663 255 215.3 257.057 212.743 257.9L213.745 259.447C215.626 258.797 216.979 257.487 217.691 255.844C218.421 257.355 219.73 258.551 221.532 259.131L222.534 257.602C220.003 256.819 218.649 254.886 218.649 252.908ZM215.344 265.248H226.296V263.666H217.313V260.168H215.344V265.248ZM223.887 261.223H225.856V249.691H223.887V261.223ZM240.722 249.674H238.771V265.582H240.722V257.303H243.165V255.703H240.722V249.674ZM228.927 261.697H230.245C233.11 261.697 235.246 261.627 237.716 261.205L237.487 259.553C235.308 259.931 233.348 260.054 230.878 260.062V252.768H236.362V251.186H228.927V261.697ZM246.042 251.273H244.337V255.949H246.042V251.273ZM247.537 255.949H249.242V251.273H247.537V255.949Z" fill="#212121"/>
<path d="M132.818 284.334H135.155C134.769 281.838 132.598 280.098 129.794 280.098C126.463 280.098 123.967 282.55 123.976 286.637C123.967 290.671 126.349 293.176 129.864 293.176C133.011 293.176 135.261 291.146 135.261 287.867V286.338H130.093V288.148H133.046C133.011 289.959 131.789 291.119 129.864 291.119C127.737 291.119 126.27 289.511 126.279 286.619C126.27 283.754 127.764 282.154 129.812 282.154C131.359 282.154 132.404 282.98 132.818 284.334ZM141.566 293.193C143.781 293.193 145.31 292.104 145.714 290.451H143.517C143.227 291.022 142.568 291.444 141.584 291.436C140.133 291.444 139.175 290.478 139.14 288.852H145.802V288.148C145.802 284.8 143.781 283.332 141.443 283.332C138.718 283.332 136.925 285.336 136.925 288.289C136.925 291.277 138.692 293.193 141.566 293.193ZM139.149 287.322C139.228 286.109 140.133 285.072 141.478 285.072C142.77 285.072 143.649 286.021 143.658 287.322H139.149ZM151.809 293.193C154.604 293.193 156.388 291.216 156.379 288.271C156.388 285.301 154.604 283.332 151.809 283.332C149.022 283.332 147.238 285.301 147.238 288.271C147.238 291.216 149.022 293.193 151.809 293.193ZM149.506 288.254C149.506 286.505 150.271 285.099 151.826 285.107C153.355 285.099 154.12 286.505 154.111 288.254C154.12 290.003 153.355 291.4 151.826 291.4C150.271 291.4 149.506 290.003 149.506 288.254ZM158.219 293H160.469V287.375C160.469 286.171 161.383 285.31 162.631 285.301C163 285.31 163.466 285.371 163.668 285.441V283.367C163.457 283.341 163.106 283.314 162.86 283.314C161.761 283.314 160.847 283.938 160.504 285.037H160.399V283.455H158.219V293ZM168.954 296.779C171.529 296.779 173.419 295.602 173.419 293.158V283.455H171.204V285.02H171.098C170.747 284.343 170.035 283.332 168.356 283.332C166.141 283.332 164.401 285.011 164.401 288.148C164.401 291.26 166.133 292.859 168.339 292.859C169.982 292.859 170.747 291.98 171.098 291.277H171.204V293.105C171.204 294.503 170.334 295.083 168.989 295.092C167.838 295.083 167.055 294.696 166.897 293.861H164.665C164.814 295.654 166.423 296.779 168.954 296.779ZM166.686 288.184C166.686 286.443 167.46 285.169 168.954 285.16C170.413 285.169 171.221 286.364 171.221 288.184C171.221 290.012 170.404 291.102 168.954 291.102C167.477 291.102 166.686 289.941 166.686 288.184ZM175.663 293H177.913V283.455H175.663V293ZM175.505 280.871C175.505 281.548 176.094 282.093 176.806 282.102C177.518 282.093 178.107 281.548 178.107 280.871C178.107 280.203 177.518 279.658 176.806 279.658C176.094 279.658 175.505 280.203 175.505 280.871ZM179.718 290.311C179.718 292.2 181.098 293.193 182.918 293.193C184.421 293.193 185.308 292.49 185.73 291.682H185.8V293H187.945V286.619C187.945 284.079 185.853 283.332 184.043 283.332C181.652 283.332 180.193 284.554 180.035 286.18H182.197C182.373 285.494 182.988 285.037 183.99 285.037C185.106 285.037 185.712 285.582 185.712 286.531L185.721 287.296C185.299 287.313 183.937 287.375 183.269 287.428C181.503 287.542 179.718 288.166 179.718 290.311ZM181.88 290.293C181.88 289.458 182.557 289.01 183.621 288.922C184.069 288.887 185.317 288.808 185.721 288.79L185.73 289.572C185.73 290.645 184.86 291.541 183.498 291.541C182.557 291.541 181.88 291.119 181.88 290.293ZM205.987 286.637C205.996 282.523 203.482 280.098 200.151 280.098C196.802 280.098 194.306 282.523 194.315 286.637C194.306 290.741 196.802 293.176 200.151 293.176C203.482 293.176 205.996 290.75 205.987 286.637ZM196.618 286.637C196.609 283.728 198.077 282.154 200.151 282.154C202.234 282.154 203.693 283.728 203.684 286.637C203.693 289.546 202.234 291.119 200.151 291.119C198.077 291.119 196.609 289.546 196.618 286.637ZM209.585 280.273H207.88V284.949H209.585V280.273ZM211.812 293H214.097V289.203L215.521 287.533L219.335 293H222.095L217.12 285.986L222.042 280.273H219.247L214.273 286.127H214.097V280.273H211.812V293ZM227.029 293.193C229.244 293.193 230.773 292.104 231.177 290.451H228.98C228.69 291.022 228.031 291.444 227.046 291.436C225.596 291.444 224.638 290.478 224.603 288.852H231.265V288.148C231.265 284.8 229.244 283.332 226.906 283.332C224.181 283.332 222.388 285.336 222.388 288.289C222.388 291.277 224.155 293.193 227.029 293.193ZM224.612 287.322C224.691 286.109 225.596 285.072 226.941 285.072C228.233 285.072 229.112 286.021 229.121 287.322H224.612ZM237.342 293.193C239.557 293.193 241.086 292.104 241.49 290.451H239.293C239.003 291.022 238.344 291.444 237.359 291.436C235.909 291.444 234.951 290.478 234.916 288.852H241.578V288.148C241.578 284.8 239.557 283.332 237.219 283.332C234.494 283.332 232.701 285.336 232.701 288.289C232.701 291.277 234.468 293.193 237.342 293.193ZM234.925 287.322C235.004 286.109 235.909 285.072 237.254 285.072C238.546 285.072 239.425 286.021 239.434 287.322H234.925ZM248.252 283.455H246.284V282.752C246.275 281.882 246.732 281.53 247.637 281.521C247.804 281.53 248.077 281.539 248.446 281.592V279.816C248.024 279.729 247.54 279.676 247.022 279.676C245.185 279.676 244.034 280.687 244.034 282.541V283.455H242.61V285.178H244.034V293H246.284V285.178H248.252V283.455ZM254.786 283.455H252.817V282.752C252.808 281.882 253.265 281.53 254.171 281.521C254.338 281.53 254.61 281.539 254.979 281.592V279.816C254.557 279.729 254.074 279.676 253.555 279.676C251.719 279.676 250.567 280.687 250.567 282.541V283.455H249.143V285.178H250.567V293H252.817V285.178H254.786V283.455ZM260.353 293.193C262.568 293.193 264.097 292.104 264.501 290.451H262.304C262.014 291.022 261.355 291.444 260.37 291.436C258.92 291.444 257.962 290.478 257.927 288.852H264.589V288.148C264.589 284.8 262.568 283.332 260.23 283.332C257.505 283.332 255.712 285.336 255.712 288.289C255.712 291.277 257.479 293.193 260.353 293.193ZM257.936 287.322C258.015 286.109 258.92 285.072 260.265 285.072C261.557 285.072 262.436 286.021 262.445 287.322H257.936Z" fill="#9E9E9E"/>
<line x1="37" y1="184.5" x2="347" y2="184.5" stroke="#EEEEEE"/>
<path d="M53.4015 147.634H58.0915V146.682H52.2535V154.928H53.2475C55.6135 154.928 57.2655 154.844 59.1835 154.48L59.0575 153.528C57.2375 153.85 55.6275 153.948 53.4015 153.948V147.634ZM63.4535 150.434H61.3815V145.478H60.2335V158.064H61.3815V151.386H63.4535V150.434ZM70.7704 145.758C68.0544 145.758 66.3604 146.64 66.3604 148.138C66.3604 149.622 68.0544 150.504 70.7704 150.504C73.4864 150.504 75.1804 149.622 75.1804 148.138C75.1804 146.64 73.4864 145.758 70.7704 145.758ZM70.7704 146.668C72.7584 146.668 74.0044 147.214 74.0044 148.138C74.0044 149.062 72.7584 149.608 70.7704 149.608C68.7824 149.608 67.5364 149.062 67.5364 148.138C67.5364 147.214 68.7824 146.668 70.7704 146.668ZM66.5004 153.738V157.868H75.0684V153.738H66.5004ZM73.9484 154.648V156.944H67.6204V154.648H73.9484ZM65.1004 151.582V152.506H76.4544V151.582H65.1004ZM81.3213 154.214C80.3133 154.214 79.6833 152.94 79.6833 150.882C79.6833 148.866 80.3133 147.592 81.3213 147.592C82.3013 147.592 82.9453 148.866 82.9453 150.882C82.9453 152.94 82.3013 154.214 81.3213 154.214ZM85.5633 150.364H83.9813C83.8413 147.998 82.8333 146.528 81.3213 146.528C79.6833 146.528 78.6333 148.208 78.6333 150.882C78.6333 153.598 79.6833 155.278 81.3213 155.278C82.8613 155.278 83.8833 153.766 83.9813 151.302H85.5633V157.42H86.6553V145.758H85.5633V150.364ZM88.0553 145.478V158.036H89.1473V145.478H88.0553ZM101.924 149.258H94.5322V145.94H93.3842V150.196H101.924V149.258ZM94.4482 154.06H93.3002V157.728H101.994V156.79H94.4482V154.06ZM91.8442 151.876V152.8H103.226V151.876H91.8442ZM144.773 147.676H137.437V150.364H146.131V149.538H138.571V148.46H145.907V145.842H137.409V146.654H144.773V147.676ZM138.501 155.88H145.949V153.206H137.339V154.032H144.815V155.082H137.367V157.868H146.341V157.042H138.501V155.88ZM135.981 151.316V152.184H147.363V151.316H135.981ZM162.474 145.478V158.064H163.622V145.478H162.474ZM157 146.444C155.138 146.444 153.808 148.152 153.808 150.826C153.808 153.5 155.138 155.208 157 155.208C158.862 155.208 160.192 153.5 160.192 150.826C160.192 148.152 158.862 146.444 157 146.444ZM157 147.48C158.218 147.48 159.086 148.796 159.086 150.826C159.086 152.87 158.218 154.186 157 154.186C155.768 154.186 154.9 152.87 154.9 150.826C154.9 148.796 155.768 147.48 157 147.48ZM175.517 147.662H168.181V150.364H176.875V149.538H169.315V148.446H176.651V145.828H168.153V146.64H175.517V147.662ZM178.107 152.114V151.26H166.711V152.114H171.835V153.22H168.069V154.046H175.559V155.096H168.111V157.896H177.085V157.056H169.245V155.894H176.693V153.22H172.997V152.114H178.107ZM194.899 150.266C192.617 149.93 190.377 148.376 190.377 146.626V145.926H189.173V146.626C189.173 148.418 186.961 149.93 184.679 150.266L185.141 151.19C187.101 150.854 188.991 149.776 189.775 148.25C190.587 149.762 192.477 150.854 194.423 151.19L194.899 150.266ZM195.445 152.548H184.105V153.5H189.173V158.05H190.321V153.5H195.459L195.445 152.548ZM211.76 145.492H210.612V152.66H211.76V145.492ZM205.012 147.172C206.258 147.172 207.182 147.998 207.182 149.146C207.182 150.308 206.258 151.12 205.012 151.12C203.766 151.12 202.87 150.308 202.87 149.146C202.87 147.998 203.766 147.172 205.012 147.172ZM205.012 152.072C206.916 152.072 208.302 150.882 208.302 149.146C208.302 147.41 206.916 146.22 205.012 146.22C203.122 146.22 201.75 147.41 201.75 149.146C201.75 150.882 203.122 152.072 205.012 152.072ZM210.36 153.206H209.24V153.878C209.24 154.858 208.638 156.118 207.434 156.86C206.272 156.174 205.698 154.984 205.698 153.878V153.206H204.592V153.878C204.592 155.082 203.654 156.44 202.072 157L202.646 157.868C203.822 157.42 204.676 156.552 205.124 155.544C205.502 156.594 206.258 157.504 207.462 157.98C208.624 157.476 209.394 156.524 209.786 155.502C210.206 156.552 211.074 157.42 212.306 157.868L212.88 157C211.284 156.468 210.36 155.18 210.36 153.878V153.206ZM221.093 155.502V152.282H224.915V151.358H217.425V147.424H224.789V146.486H216.277V152.282H219.931V155.502H214.821V156.454H226.231V155.502H221.093ZM229.474 155.222H237.062V157.924H238.21V154.284H229.474V155.222ZM234.486 152.38V151.064H238.406V150.168H230.804V148.852H238.14V145.8H229.642V146.696H237.006V147.998H229.67V151.064H233.324V152.38H228.2V153.318H239.596V152.38H234.486ZM251.837 155.474V152.114H255.673V151.19H248.113V146.556H246.965V152.114H250.689V155.474H245.565V156.412H256.975V155.474H251.837ZM265.594 151.4C264.138 151.638 262.934 151.694 260.61 151.694V149.79H264.866V146.234H259.448V147.172H263.746V148.908H259.49V152.632H260.386C262.892 152.632 264.166 152.59 265.706 152.324L265.594 151.4ZM260.89 154.816H268.142V158.05H269.304V153.878H260.89V154.816ZM268.142 145.492V147.34H265.692V148.278H268.142V149.958H265.692V150.882H268.142V153.206H269.304V145.492H268.142ZM275.445 154.172C274.465 154.172 273.779 153.374 273.779 152.254C273.779 151.162 274.465 150.364 275.445 150.364C276.411 150.364 277.111 151.162 277.111 152.254C277.111 153.374 276.411 154.172 275.445 154.172ZM275.445 149.398C273.891 149.398 272.757 150.574 272.757 152.254C272.757 153.962 273.891 155.124 275.445 155.124C276.999 155.124 278.133 153.962 278.133 152.254C278.133 150.574 276.999 149.398 275.445 149.398ZM276.005 145.842H274.871V147.62H272.323V148.558H278.553V147.62H276.005V145.842ZM281.871 145.464V150.77H280.261V145.758H279.183V157.42H280.261V151.708H281.871V158.022H282.977V145.464H281.871ZM294.48 156.944H288.278V155.488H294.48V156.944ZM294.48 154.592H288.278V153.318H287.144V157.868H295.628V153.318H294.48V154.592ZM288.348 147.914H294.452V149.3H288.348V147.914ZM291.974 151.554V150.224H295.586V145.688H294.452V147.032H288.348V145.688H287.214V150.224H290.826V151.554H285.702V152.478H297.07V151.554H291.974ZM303.547 146.57H302.413V148.824C302.413 151.204 300.887 153.612 299.039 154.494L299.739 155.432C301.209 154.676 302.413 153.108 302.987 151.218C303.589 153.01 304.793 154.494 306.221 155.194L306.907 154.27C305.045 153.43 303.547 151.12 303.547 148.824V146.57ZM308.223 145.478V158.064H309.371V145.478H308.223ZM314.153 147.634H318.843V146.682H313.005V154.928H313.999C316.365 154.928 318.017 154.844 319.935 154.48L319.809 153.528C317.989 153.85 316.379 153.948 314.153 153.948V147.634ZM324.205 150.434H322.133V145.478H320.985V158.064H322.133V151.386H324.205V150.434ZM327.858 147.047L327.694 154.067H326.286L326.115 147.047H327.858ZM326.067 156.221C326.067 155.97 326.149 155.76 326.313 155.592C326.482 155.419 326.715 155.332 327.011 155.332C327.302 155.332 327.533 155.419 327.701 155.592C327.87 155.76 327.954 155.97 327.954 156.221C327.954 156.462 327.87 156.67 327.701 156.843C327.533 157.011 327.302 157.096 327.011 157.096C326.715 157.096 326.482 157.011 326.313 156.843C326.149 156.67 326.067 156.462 326.067 156.221ZM332.063 147.047L331.899 154.067H330.491L330.32 147.047H332.063ZM330.272 156.221C330.272 155.97 330.354 155.76 330.519 155.592C330.687 155.419 330.92 155.332 331.216 155.332C331.507 155.332 331.738 155.419 331.906 155.592C332.075 155.76 332.159 155.97 332.159 156.221C332.159 156.462 332.075 156.67 331.906 156.843C331.738 157.011 331.507 157.096 331.216 157.096C330.92 157.096 330.687 157.011 330.519 156.843C330.354 156.67 330.272 156.462 330.272 156.221Z" fill="#616161"/>
<path d="M110.483 154.998H118.029V158.05H119.177V154.074H110.483V154.998ZM111.799 146.906H117.987V149.342H111.799V146.906ZM115.481 151.848V150.252H119.121V145.996H110.679V150.252H114.333V151.848H109.209V152.772H120.577V151.848H115.481ZM126.9 152.59H129.63V155.572H126.9V152.59ZM126.704 147.564H129.826V151.666H126.704V147.564ZM130.778 155.572V152.59H132.906V151.666H130.974V147.564H132.92V146.64H123.61V147.564H125.556V151.666H123.638V152.59H125.752V155.572H122.588V156.51H133.984V155.572H130.778Z" fill="#BF041F"/>
<defs>
<filter id="filter0_dd_644_2317" x="0" y="0" width="383" height="398" filterUnits="userSpaceOnUse" color-interpolation-filters="sRGB">
<feFlood flood-opacity="0" result="BackgroundImageFix"/>
<feColorMatrix in="SourceAlpha" type="matrix" values="0 0 0 0 0 0 0 0 0 0 0 0 0 0 0 0 0 0 127 0" result="hardAlpha"/>
<feOffset dy="8"/>
<feGaussianBlur stdDeviation="10"/>
<feComposite in2="hardAlpha" operator="out"/>
<feColorMatrix type="matrix" values="0 0 0 0 0 0 0 0 0 0 0 0 0 0 0 0 0 0 0.1 0"/>
<feBlend mode="normal" in2="BackgroundImageFix" result="effect1_dropShadow_644_2317"/>
<feColorMatrix in="SourceAlpha" type="matrix" values="0 0 0 0 0 0 0 0 0 0 0 0 0 0 0 0 0 0 127 0" result="hardAlpha"/>
<feOffset dy="2"/>
<feGaussianBlur stdDeviation="4"/>
<feComposite in2="hardAlpha" operator="out"/>
<feColorMatrix type="matrix" values="0 0 0 0 0 0 0 0 0 0 0 0 0 0 0 0 0 0 0.1 0"/>
<feBlend mode="normal" in2="effect1_dropShadow_644_2317" result="effect2_dropShadow_644_2317"/>
<feBlend mode="normal" in="SourceGraphic" in2="effect2_dropShadow_644_2317" result="shape"/>
</filter>
</defs>
</svg>
